STARTFONT 2.1
FONT -FontForge-Good Times Rg-Book-R-Normal--182-1750-75-75-P-1352-ISO10646-1
SIZE 175 75 75
FONTBOUNDINGBOX 363 214 -51 -37
COMMENT "Generated by fontforge, http://fontforge.sourceforge.net"
COMMENT "(c) 1998-2012 Typodermic Fonts Inc. See attached license agreement. If agreement is missing visit typodermicfonts.com for more info. Languages by Chikako Larabie"
STARTPROPERTIES 39
FOUNDRY "FontForge"
FAMILY_NAME "Good Times Rg"
WEIGHT_NAME "Book"
SLANT "R"
SETWIDTH_NAME "Normal"
ADD_STYLE_NAME ""
PIXEL_SIZE 182
POINT_SIZE 1750
RESOLUTION_X 75
RESOLUTION_Y 75
SPACING "P"
AVERAGE_WIDTH 1352
CHARSET_REGISTRY "ISO10646"
CHARSET_ENCODING "1"
FONTNAME_REGISTRY ""
CHARSET_COLLECTIONS "ISO8859-2 ISO8859-9 ISO8859-4 ISO10646-1"
FONT_NAME "GoodTimesRg-Regular"
FACE_NAME "GoodTimesRg-Regular"
COPYRIGHT "(c) 1998-2012 Typodermic Fonts Inc. See attached license agreement. If agreement is missing visit typodermicfonts.com for more info. Languages by Chikako Larabie"
FONT_VERSION "4.001"
FONT_ASCENT 145
FONT_DESCENT 37
UNDERLINE_POSITION -26
UNDERLINE_THICKNESS 4
X_HEIGHT 131
CAP_HEIGHT 131
RAW_ASCENT 799
RAW_DESCENT 201
NORM_SPACE 54
RELATIVE_WEIGHT 40
RELATIVE_SETWIDTH 50
SUPERSCRIPT_X 0
SUPERSCRIPT_Y 54
SUPERSCRIPT_SIZE 54
SUBSCRIPT_X 0
SUBSCRIPT_Y 0
SUBSCRIPT_SIZE 54
AVG_LOWERCASE_WIDTH 1552
AVG_UPPERCASE_WIDTH 1546
ENDPROPERTIES
CHARS 372
STARTCHAR space
ENCODING 32
SWIDTH 294 0
DWIDTH 54 0
BBX 1 1 0 0
BITMAP
00
ENDCHAR
STARTCHAR exclam
ENCODING 33
SWIDTH 298 0
DWIDTH 54 0
BBX 25 132 15 0
BITMAP
7FFFFE00
7FFFFE00
7FFFFE00
7FFFFE00
7FFFFE00
7FFFFE00
7FFFFE00
7FFFFE00
7FFFFE00
7FFFFE00
7FFFFE00
7FFFFE00
7FFFFE00
7FFFFE00
7FFFFE00
7FFFFE00
7FFFFE00
7FFFFE00
7FFFFE00
7FFFFE00
7FFFFE00
7FFFFE00
7FFFFE00
7FFFFE00
7FFFFE00
7FFFFE00
7FFFFE00
7FFFFE00
7FFFFE00
7FFFFE00
7FFFFE00
7FFFFE00
7FFFFE00
7FFFFE00
7FFFFE00
7FFFFE00
7FFFFE00
7FFFFE00
7FFFFE00
7FFFFE00
7FFFFE00
7FFFFE00
7FFFFE00
7FFFFE00
7FFFFE00
7FFFFE00
7FFFFE00
7FFFFE00
7FFFFE00
7FFFFE00
7FFFFE00
7FFFFE00
7FFFFE00
7FFFFE00
7FFFFE00
7FFFFE00
7FFFFE00
7FFFFE00
7FFFFE00
7FFFFE00
7FFFFE00
7FFFFE00
7FFFFE00
7FFFFE00
7FFFFE00
7FFFFE00
7FFFFE00
7FFFFE00
7FFFFE00
7FFFFE00
7FFFFE00
7FFFFE00
7FFFFE00
7FFFFE00
7FFFFE00
7FFFFE00
7FFFFE00
7FFFFE00
7FFFFE00
7FFFFE00
7FFFFE00
7FFFFE00
7FFFFE00
7FFFFE00
7FFFFE00
7FFFFE00
7FFFFE00
7FFFFE00
7FFFFE00
7FFFFE00
00000000
00000000
00000000
00000000
00000000
00000000
00000000
00000000
00000000
00000000
00000000
00000000
00000000
00000000
00000000
00000000
00000000
007F0000
03FFE000
07FFF000
0FFFF800
1FFFFC00
3FFFFE00
7FFFFF00
7FFFFF00
7FFFFF00
FFFFFF80
FFFFFF80
FFFFFF80
FFFFFF80
FFFFFF80
FFFFFF80
FFFFFF80
7FFFFF00
7FFFFF00
7FFFFF00
3FFFFE00
1FFFFC00
0FFFF800
07FFF000
03FFE000
007F0000
ENDCHAR
STARTCHAR quotedbl
ENCODING 34
SWIDTH 452 0
DWIDTH 82 0
BBX 58 47 12 85
BITMAP
FFFFFF003FFFFFC0
7FFFFF001FFFFFC0
7FFFFF001FFFFFC0
7FFFFF001FFFFFC0
7FFFFE001FFFFFC0
7FFFFE001FFFFF80
7FFFFE001FFFFF80
7FFFFE001FFFFF80
7FFFFE001FFFFF80
7FFFFE001FFFFF80
7FFFFE001FFFFF80
7FFFFE001FFFFF80
7FFFFE000FFFFF80
3FFFFE000FFFFF80
3FFFFE000FFFFF80
3FFFFC000FFFFF80
3FFFFC000FFFFF00
3FFFFC000FFFFF00
3FFFFC000FFFFF00
3FFFFC000FFFFF00
3FFFFC000FFFFF00
3FFFFC000FFFFF00
3FFFFC000FFFFF00
3FFFFC0007FFFF00
1FFFFC0007FFFF00
1FFFFC0007FFFF00
1FFFFC0007FFFF00
1FFFF80007FFFE00
1FFFF80007FFFE00
1FFFF80007FFFE00
1FFFF80007FFFE00
1FFFF80007FFFE00
1FFFF80007FFFE00
1FFFF80003FFFE00
1FFFF80003FFFE00
0FFFF80003FFFE00
0FFFF80003FFFE00
0FFFF80003FFFE00
0FFFF00003FFFC00
0FFFF00003FFFC00
0FFFF00003FFFC00
0FFFF00003FFFC00
0FFFF00003FFFC00
0FFFF00003FFFC00
0FFFF00001FFFC00
0FFFF00001FFFC00
07FFF00001FFFC00
ENDCHAR
STARTCHAR numbersign
ENCODING 35
SWIDTH 697 0
DWIDTH 127 0
BBX 112 132 8 0
BITMAP
000000000007FFFC0000007FFF80
000000000007FFFC0000007FFF80
000000000007FFF8000000FFFF80
00000000000FFFF8000000FFFF00
00000000000FFFF8000000FFFF00
00000000000FFFF0000001FFFF00
00000000000FFFF0000001FFFE00
00000000001FFFF0000001FFFE00
00000000001FFFF0000003FFFE00
00000000001FFFE0000003FFFE00
00000000003FFFE0000003FFFC00
00000000003FFFE0000003FFFC00
00000000003FFFC0000007FFFC00
00000000007FFFC0000007FFF800
00000000007FFFC0000007FFF800
00000000007FFF8000000FFFF800
00000000007FFF8000000FFFF000
0000000000FFFF8000000FFFF000
0000000000FFFF8000001FFFF000
0000000000FFFF0000001FFFF000
0000000001FFFF0000001FFFE000
0000000001FFFF0000001FFFE000
0000000001FFFE0000003FFFE000
0000000003FFFE0000003FFFC000
0000000003FFFE0000003FFFC000
0000000003FFFC0000007FFFC000
0000000003FFFC0000007FFF8000
0000000007FFFC0000007FFF8000
0000000007FFFC000000FFFF8000
0000000007FFF8000000FFFF8000
000000000FFFF8000000FFFF0000
000000000FFFF8000000FFFF0000
000000000FFFF0000001FFFF0000
000000001FFFF0000001FFFE0000
0003FFFFFFFFFFFFFFFFFFFFFFFF
0003FFFFFFFFFFFFFFFFFFFFFFFF
0003FFFFFFFFFFFFFFFFFFFFFFFF
0003FFFFFFFFFFFFFFFFFFFFFFFF
0003FFFFFFFFFFFFFFFFFFFFFFFF
0003FFFFFFFFFFFFFFFFFFFFFFFF
0003FFFFFFFFFFFFFFFFFFFFFFFF
0003FFFFFFFFFFFFFFFFFFFFFFFF
0003FFFFFFFFFFFFFFFFFFFFFFFF
0003FFFFFFFFFFFFFFFFFFFFFFFF
0003FFFFFFFFFFFFFFFFFFFFFFFF
0003FFFFFFFFFFFFFFFFFFFFFFFF
0003FFFFFFFFFFFFFFFFFFFFFFFF
0003FFFFFFFFFFFFFFFFFFFFFFFF
0003FFFFFFFFFFFFFFFFFFFFFFFF
00000003FFFE0000003FFFC00000
00000003FFFE0000003FFFC00000
00000003FFFC0000007FFFC00000
00000003FFFC0000007FFF800000
00000007FFFC0000007FFF800000
00000007FFF8000000FFFF800000
00000007FFF8000000FFFF800000
0000000FFFF8000000FFFF000000
0000000FFFF0000000FFFF000000
0000000FFFF0000001FFFF000000
0000001FFFF0000001FFFE000000
0000001FFFF0000001FFFE000000
0000001FFFE0000003FFFE000000
0000001FFFE0000003FFFC000000
0000003FFFE0000003FFFC000000
0000003FFFC0000007FFFC000000
0000003FFFC0000007FFFC000000
0000007FFFC0000007FFF8000000
0000007FFFC0000007FFF8000000
0000007FFF8000000FFFF8000000
000000FFFF8000000FFFF0000000
000000FFFF8000000FFFF0000000
000000FFFF0000001FFFF0000000
000000FFFF0000001FFFF0000000
000001FFFF0000001FFFE0000000
000001FFFE0000001FFFE0000000
000001FFFE0000003FFFE0000000
000003FFFE0000003FFFC0000000
000003FFFE0000003FFFC0000000
000003FFFC0000007FFFC0000000
000003FFFC0000007FFF80000000
000007FFFC0000007FFF80000000
FFFFFFFFFFFFFFFFFFFFFFFFC000
FFFFFFFFFFFFFFFFFFFFFFFFC000
FFFFFFFFFFFFFFFFFFFFFFFFC000
FFFFFFFFFFFFFFFFFFFFFFFFC000
FFFFFFFFFFFFFFFFFFFFFFFFC000
FFFFFFFFFFFFFFFFFFFFFFFFC000
FFFFFFFFFFFFFFFFFFFFFFFFC000
FFFFFFFFFFFFFFFFFFFFFFFFC000
FFFFFFFFFFFFFFFFFFFFFFFFC000
FFFFFFFFFFFFFFFFFFFFFFFFC000
FFFFFFFFFFFFFFFFFFFFFFFFC000
FFFFFFFFFFFFFFFFFFFFFFFFC000
FFFFFFFFFFFFFFFFFFFFFFFFC000
FFFFFFFFFFFFFFFFFFFFFFFFC000
FFFFFFFFFFFFFFFFFFFFFFFFC000
0000FFFF8000000FFFF000000000
0000FFFF0000001FFFF000000000
0000FFFF0000001FFFF000000000
0001FFFF0000001FFFE000000000
0001FFFE0000001FFFE000000000
0001FFFE0000003FFFE000000000
0003FFFE0000003FFFC000000000
0003FFFE0000003FFFC000000000
0003FFFC0000007FFFC000000000
0003FFFC0000007FFF8000000000
0007FFFC0000007FFF8000000000
0007FFF8000000FFFF8000000000
0007FFF8000000FFFF8000000000
000FFFF8000000FFFF0000000000
000FFFF0000000FFFF0000000000
000FFFF0000001FFFF0000000000
000FFFF0000001FFFE0000000000
001FFFF0000001FFFE0000000000
001FFFE0000003FFFE0000000000
001FFFE0000003FFFC0000000000
003FFFE0000003FFFC0000000000
003FFFC0000007FFFC0000000000
003FFFC0000007FFFC0000000000
007FFFC0000007FFF80000000000
007FFF80000007FFF80000000000
007FFF8000000FFFF80000000000
007FFF8000000FFFF00000000000
00FFFF8000000FFFF00000000000
00FFFF0000001FFFF00000000000
00FFFF0000001FFFE00000000000
01FFFF0000001FFFE00000000000
01FFFE0000003FFFE00000000000
01FFFE0000003FFFE00000000000
01FFFE0000003FFFC00000000000
03FFFC0000003FFFC00000000000
03FFFC0000007FFFC00000000000
ENDCHAR
STARTCHAR dollar
ENCODING 36
SWIDTH 744 0
DWIDTH 135 0
BBX 115 132 10 0
BITMAP
00000000000003FF00000000000000
00000000000003FF00000000000000
00000000000003FF00000000000000
00000000000003FF00000000000000
00000000000003FF00000000000000
00000000000003FF00000000000000
00000000000003FF00000000000000
00000000000003FF00000000000000
00000000000003FF00000000000000
00000000000003FF00000000000000
00000000000003FF00000000000000
00000000000003FF00000000000000
00000000000003FF00000000000000
0000003FFFFFFFFFFFFFFFFFFFFC00
000007FFFFFFFFFFFFFFFFFFFFFC00
00003FFFFFFFFFFFFFFFFFFFFFFC00
0000FFFFFFFFFFFFFFFFFFFFFFFC00
0003FFFFFFFFFFFFFFFFFFFFFFFC00
000FFFFFFFFFFFFFFFFFFFFFFFFC00
001FFFFFFFFFFFFFFFFFFFFFFFFC00
003FFFFFFFFFFFFFFFFFFFFFFFFC00
007FFFFFFFFFFFFFFFFFFFFFFFFC00
00FFFFFFFFFFFFFFFFFFFFFFFFFC00
01FFFFFFFFFFFFFFFFFFFFFFFFFC00
03FFFFFFFFFFFFFFFFFFFFFFFFFC00
07FFFFFFFFFFFFFFFFFFFFFFFFFC00
0FFFFFFFFFFFFFFFFFFFFFFFFFFC00
0FFFFFFFFFFFFFFFFFFFFFFFFFFC00
1FFFFFFFFFFFFFFFFFFFFFFFFFFC00
1FFFFFFFFFFFFFFFFFFFFFFFFFFC00
3FFFFFFFFFFFFFFFFFFFFFFFFFFC00
3FFFFFFFFFFFFFFFFFFFFFFFFFFC00
3FFFFFF0000003FF00000000000000
7FFFFFC0000003FF00000000000000
7FFFFF00000003FF00000000000000
7FFFFE00000003FF00000000000000
7FFFFC00000003FF00000000000000
7FFFF800000003FF00000000000000
7FFFF800000003FF00000000000000
FFFFF800000003FF00000000000000
FFFFF000000003FF00000000000000
FFFFF000000003FF00000000000000
FFFFF000000003FF00000000000000
FFFFF000000003FF00000000000000
FFFFF000000003FF00000000000000
7FFFF000000003FF00000000000000
7FFFF000000003FF00000000000000
7FFFF000000003FF00000000000000
7FFFF000000003FF00000000000000
7FFFF000000003FF00000000000000
7FFFF800000003FF00000000000000
3FFFF800000003FF00000000000000
3FFFFC00000003FF00000000000000
3FFFFE00000003FF00000000000000
1FFFFF00000003FF00000000000000
1FFFFFC0000003FF00000000000000
0FFFFFF8000003FF00000000000000
0FFFFFFFFFFFFFFFFFFFFFC0000000
07FFFFFFFFFFFFFFFFFFFFFE000000
03FFFFFFFFFFFFFFFFFFFFFFC00000
03FFFFFFFFFFFFFFFFFFFFFFF00000
01FFFFFFFFFFFFFFFFFFFFFFFC0000
00FFFFFFFFFFFFFFFFFFFFFFFF0000
007FFFFFFFFFFFFFFFFFFFFFFF8000
003FFFFFFFFFFFFFFFFFFFFFFFC000
001FFFFFFFFFFFFFFFFFFFFFFFE000
0007FFFFFFFFFFFFFFFFFFFFFFF000
0003FFFFFFFFFFFFFFFFFFFFFFF800
0000FFFFFFFFFFFFFFFFFFFFFFFC00
00001FFFFFFFFFFFFFFFFFFFFFFC00
000003FFFFFFFFFFFFFFFFFFFFFE00
0000003FFFFFFFFFFFFFFFFFFFFE00
00000000000003FF000001FFFFFF00
00000000000003FF0000003FFFFF00
00000000000003FF0000000FFFFF80
00000000000003FF00000007FFFF80
00000000000003FF00000003FFFF80
00000000000003FF00000001FFFFC0
00000000000003FF00000001FFFFC0
00000000000003FF00000000FFFFC0
00000000000003FF00000000FFFFC0
00000000000003FF00000000FFFFC0
00000000000003FF000000007FFFC0
00000000000003FF000000007FFFC0
00000000000003FF000000007FFFE0
00000000000003FF000000007FFFE0
00000000000003FF000000007FFFE0
00000000000003FF000000007FFFE0
00000000000003FF000000007FFFE0
00000000000003FF000000007FFFE0
00000000000003FF00000000FFFFE0
00000000000003FF00000000FFFFE0
00000000000003FF00000000FFFFC0
00000000000003FF00000001FFFFC0
00000000000003FF00000001FFFFC0
00000000000003FF00000003FFFFC0
00000000000003FF00000007FFFFC0
00000000000003FF0000000FFFFFC0
00000000000003FF0000003FFFFF80
00000000000003FF000001FFFFFF80
3FFFFFFFFFFFFFFFFFFFFFFFFFFF80
3FFFFFFFFFFFFFFFFFFFFFFFFFFF00
3FFFFFFFFFFFFFFFFFFFFFFFFFFF00
3FFFFFFFFFFFFFFFFFFFFFFFFFFE00
3FFFFFFFFFFFFFFFFFFFFFFFFFFE00
3FFFFFFFFFFFFFFFFFFFFFFFFFFC00
3FFFFFFFFFFFFFFFFFFFFFFFFFF800
3FFFFFFFFFFFFFFFFFFFFFFFFFF800
3FFFFFFFFFFFFFFFFFFFFFFFFFF000
3FFFFFFFFFFFFFFFFFFFFFFFFFE000
3FFFFFFFFFFFFFFFFFFFFFFFFFC000
3FFFFFFFFFFFFFFFFFFFFFFFFF8000
3FFFFFFFFFFFFFFFFFFFFFFFFF0000
3FFFFFFFFFFFFFFFFFFFFFFFFC0000
3FFFFFFFFFFFFFFFFFFFFFFFF80000
3FFFFFFFFFFFFFFFFFFFFFFFE00000
3FFFFFFFFFFFFFFFFFFFFFFF800000
3FFFFFFFFFFFFFFFFFFFFFFC000000
3FFFFFFFFFFFFFFFFFFFFF80000000
00000000000003FF00000000000000
00000000000003FF00000000000000
00000000000003FF00000000000000
00000000000003FF00000000000000
00000000000003FF00000000000000
00000000000003FF00000000000000
00000000000003FF00000000000000
00000000000003FF00000000000000
00000000000003FF00000000000000
00000000000003FF00000000000000
00000000000003FF00000000000000
00000000000003FF00000000000000
00000000000003FF00000000000000
ENDCHAR
STARTCHAR percent
ENCODING 37
SWIDTH 965 0
DWIDTH 176 0
BBX 160 152 8 -12
BITMAP
000000000000000000000000000000007FFF8000
00000000000000000000000000000000FFFF0000
00000000000000000000000000000001FFFE0000
00000000000000000000000000000003FFFC0000
00000000000000000000000000000003FFF80000
0000000FFF0000000000000000000007FFF00000
000001FFFFF80000000000000000000FFFF00000
00000FFFFFFF0000000000000000001FFFE00000
00003FFFFFFFC000000000000000001FFFC00000
0000FFFFFFFFF000000000000000003FFF800000
0003FFFFFFFFF800000000000000007FFF000000
0007FFFFFFFFFE0000000000000000FFFF000000
000FFFFFFFFFFF0000000000000001FFFE000000
003FFFFFFFFFFF8000000000000001FFFC000000
007FFFFFFFFFFFC000000000000003FFF8000000
00FFFFFFFFFFFFE000000000000007FFF8000000
01FFFFFFFFFFFFF00000000000000FFFF0000000
01FFFFF001FFFFF80000000000001FFFE0000000
03FFFF00001FFFFC0000000000001FFFC0000000
07FFFC000003FFFE0000000000003FFF80000000
07FFF0000001FFFE0000000000007FFF80000000
0FFFE00000007FFF000000000000FFFF00000000
1FFFC00000003FFF000000000000FFFE00000000
1FFF800000001FFF800000000001FFFC00000000
3FFF000000000FFF800000000003FFFC00000000
3FFE0000000007FFC00000000007FFF800000000
3FFC0000000007FFC0000000000FFFF000000000
7FFC0000000003FFE0000000000FFFE000000000
7FF80000000003FFE0000000001FFFC000000000
7FF80000000001FFE0000000003FFFC000000000
FFF00000000001FFE0000000007FFF8000000000
FFF00000000000FFF000000000FFFF0000000000
FFF00000000000FFF000000000FFFE0000000000
FFF00000000000FFF000000001FFFC0000000000
FFE00000000000FFF000000003FFFC0000000000
FFE00000000000FFF000000007FFF80000000000
FFE000000000007FF000000007FFF00000000000
FFE000000000007FF00000000FFFE00000000000
FFE000000000007FF00000001FFFE00000000000
FFE000000000007FF00000003FFFC00000000000
FFE000000000007FF00000007FFF800000000000
FFE00000000000FFF00000007FFF000000000000
FFE00000000000FFF0000000FFFE000000000000
FFE00000000000FFF0000001FFFE000000000000
FFF00000000000FFF0000003FFFC000000000000
FFF00000000000FFF0000007FFF8000000000000
7FF00000000001FFE0000007FFF0000000000000
7FF80000000001FFE000000FFFE0000000000000
7FF80000000001FFE000001FFFE0000000000000
7FF80000000003FFC000003FFFC0000000000000
3FFC0000000003FFC000007FFF80000000000000
3FFE0000000007FFC000007FFF00000000000000
1FFE000000000FFF800000FFFF00000000000000
1FFF000000000FFF800001FFFE00000000000000
1FFF800000001FFF000003FFFC00000000000000
0FFFC00000003FFF000003FFF800000000000000
07FFE00000007FFE000007FFF000000000000000
07FFF0000001FFFE00000FFFF000000000000000
03FFFC000003FFFC00001FFFE000000000000000
01FFFF00001FFFF800003FFFC000000000000000
01FFFFF000FFFFF800003FFF8000000000000000
00FFFFFFFFFFFFF000007FFF0000000000000000
007FFFFFFFFFFFE00000FFFF0000000000000000
003FFFFFFFFFFFC00001FFFE0000000000000000
001FFFFFFFFFFF800003FFFC0000000000000000
000FFFFFFFFFFE000003FFF80000000000000000
0003FFFFFFFFFC000007FFF80000000000000000
0001FFFFFFFFF800000FFFF00000000000000000
00007FFFFFFFE000001FFFE00000000000000000
00001FFFFFFF8000001FFFC00000000000000000
000007FFFFFE0000003FFF800000000000000000
000000FFFFF00000007FFF800000000000000000
0000000FFF00000000FFFF000000000000000000
000000000000000001FFFE000000000000000000
000000000000000001FFFC000000000000000000
000000000000000003FFFC00000001FFF0000000
000000000000000007FFF80000001FFFFF000000
00000000000000000FFFF0000000FFFFFFE00000
00000000000000001FFFE0000003FFFFFFFC0000
00000000000000001FFFC000000FFFFFFFFE0000
00000000000000003FFFC000003FFFFFFFFF8000
00000000000000007FFF8000007FFFFFFFFFE000
0000000000000000FFFF000001FFFFFFFFFFF000
0000000000000000FFFE000003FFFFFFFFFFF800
0000000000000001FFFC000007FFFFFFFFFFFC00
0000000000000003FFFC00000FFFFFFFFFFFFE00
0000000000000007FFF800001FFFFFFFFFFFFF00
000000000000000FFFF000003FFFFF001FFFFF80
000000000000000FFFE000003FFFF00001FFFFC0
000000000000001FFFE000007FFFC000007FFFC0
000000000000003FFFC00000FFFF0000001FFFE0
000000000000007FFF800000FFFE00000007FFF0
00000000000000FFFF000001FFF800000003FFF0
00000000000000FFFE000001FFF000000001FFF8
00000000000001FFFE000003FFF000000000FFF8
00000000000003FFFC000003FFE000000000FFFC
00000000000007FFF8000007FFC0000000007FFC
00000000000007FFF0000007FFC0000000003FFC
0000000000000FFFE0000007FF80000000003FFE
0000000000001FFFE000000FFF80000000001FFE
0000000000003FFFC000000FFF00000000001FFE
0000000000007FFF8000000FFF00000000001FFE
0000000000007FFF0000000FFF00000000000FFF
000000000000FFFF0000000FFE00000000000FFF
000000000001FFFE0000000FFE00000000000FFF
000000000003FFFC0000001FFE00000000000FFF
000000000007FFF80000001FFE00000000000FFF
000000000007FFF00000001FFE00000000000FFF
00000000000FFFF00000001FFE00000000000FFF
00000000001FFFE00000001FFE00000000000FFF
00000000003FFFC00000001FFE00000000000FFF
00000000007FFF800000001FFE00000000000FFF
00000000007FFF000000000FFE00000000000FFF
0000000000FFFF000000000FFE00000000000FFF
0000000001FFFE000000000FFE00000000000FFE
0000000003FFFC000000000FFF00000000001FFE
0000000003FFF8000000000FFF00000000001FFE
0000000007FFF8000000000FFF00000000001FFE
000000000FFFF00000000007FF80000000003FFE
000000001FFFE00000000007FF80000000003FFC
000000003FFFC00000000007FFC0000000007FFC
000000003FFF800000000003FFC0000000007FF8
000000007FFF800000000003FFE000000000FFF8
00000000FFFF000000000001FFF000000001FFF8
00000001FFFE000000000001FFF800000001FFF0
00000003FFFC000000000000FFFC00000003FFF0
00000003FFFC000000000000FFFE0000000FFFE0
00000007FFF80000000000007FFF0000001FFFC0
0000000FFFF00000000000003FFFC000007FFFC0
0000001FFFE00000000000003FFFF00001FFFF80
0000001FFFC00000000000001FFFFF001FFFFF00
0000003FFFC00000000000000FFFFFFFFFFFFE00
0000007FFF8000000000000007FFFFFFFFFFFC00
000000FFFF0000000000000003FFFFFFFFFFF800
000001FFFE0000000000000001FFFFFFFFFFF000
000001FFFC0000000000000000FFFFFFFFFFE000
000003FFFC00000000000000007FFFFFFFFFC000
000007FFF800000000000000001FFFFFFFFF0000
00000FFFF000000000000000000FFFFFFFFE0000
00001FFFE0000000000000000003FFFFFFF80000
00001FFFE00000000000000000007FFFFFE00000
00003FFFC00000000000000000001FFFFF000000
00007FFF8000000000000000000001FFF0000000
0000FFFF00000000000000000000000000000000
0000FFFE00000000000000000000000000000000
0001FFFE00000000000000000000000000000000
0003FFFC00000000000000000000000000000000
0007FFF800000000000000000000000000000000
000FFFF000000000000000000000000000000000
000FFFE000000000000000000000000000000000
001FFFE000000000000000000000000000000000
003FFFC000000000000000000000000000000000
ENDCHAR
STARTCHAR ampersand
ENCODING 38
SWIDTH 759 0
DWIDTH 138 0
BBX 124 132 9 0
BITMAP
0000000007FFFFFFFC00000000000000
00000003FFFFFFFFFC00000000000000
0000001FFFFFFFFFFC00000000000000
000000FFFFFFFFFFFC00000000000000
000007FFFFFFFFFFFC00000000000000
00001FFFFFFFFFFFFC00000000000000
00007FFFFFFFFFFFFC00000000000000
0000FFFFFFFFFFFFFC00000000000000
0003FFFFFFFFFFFFFC00000000000000
0007FFFFFFFFFFFFFC00000000000000
000FFFFFFFFFFFFFFC00000000000000
001FFFFFFFFFFFFFFC00000000000000
003FFFFFFFFFFFFFFC00000000000000
007FFFFFFFFFFFFFFC00000000000000
00FFFFFFFFFFFFFFFC00000000000000
00FFFFFFFFFFFFFFFC00000000000000
01FFFFFFFFFFFFFFFC00000000000000
03FFFFFFFFFFFFFFFC00000000000000
03FFFFFFFFFFFFFFFC00000000000000
07FFFFFFFFFFFFFFFC00000000000000
07FFFFFFFFFFFFFFFC00000000000000
07FFFFFFFFFFFFFFFC00000000000000
0FFFFFFFFFFFFFFFFC00000000000000
0FFFFFFFFE0000000000000000000000
0FFFFFFFE00000000000000000000000
1FFFFFFF800000000000000000000000
1FFFFFFE000000000000000000000000
1FFFFFFC000000000000000000000000
1FFFFFF8000000000000000000000000
1FFFFFF0000000000000000000000000
1FFFFFF0000000000000000000000000
1FFFFFE0000000000000000000000000
3FFFFFE0000000000000000000000000
3FFFFFC0000000000000000000000000
3FFFFFC0000000000000000000000000
3FFFFFC0000000000000000000000000
1FFFFFC0000000000000000000000000
1FFFFFC0000000000000000000000000
1FFFFFC0000000000000000000000000
1FFFFFC0000000000000000000000000
1FFFFFC0000000000000000000000000
1FFFFFC0000000000000000000000000
1FFFFFC0000000000000000000000000
1FFFFFC0000000000000000000000000
0FFFFFC0000000000000000000000000
0FFFFFE0000000000000000000000000
0FFFFFE0000000000000000000000000
07FFFFF0000000000000000000000000
07FFFFF0000000000000000000000000
03FFFFF8000000000000000000000000
03FFFFFC000000000000000000000000
01FFFFFE000000000000000000000000
01FFFFFF800000000000000000000000
00FFFFFFE00000000000000000000000
007FFFFFFE0000000000000000000000
003FFFFFFFFFFFFFFFFFFFFFFFFFF000
001FFFFFFFFFFFFFFFFFFFFFFFFFF000
000FFFFFFFFFFFFFFFFFFFFFFFFFF000
0003FFFFFFFFFFFFFFFFFFFFFFFFF000
0001FFFFFFFFFFFFFFFFFFFFFFFFF000
00007FFFFFFFFFFFFFFFFFFFFFFFF000
00001FFFFFFFFFFFFFFFFFFFFFFFF000
00001FFFFFFFFFFFFFFFFFFFFFFFF000
00007FFFFFFFFFFFFFFFFFFFFFFFF000
0001FFFFFFFFFFFFFFFFFFFFFFFFF000
0007FFFFFFFFFFFFFFFFFFFFFFFFF000
000FFFFFFFFFFFFFFFFFFFFFFFFFF000
001FFFFFFFFFFFFFFFFFFFFFFFFFF000
003FFFFFFFFFFFFFFFFFFFFFFFFFF000
007FFFFFFFFFFFFFFFFFFFFFFFFFF000
00FFFFFFFFFFFFFFFFFFFFFFFFFFF000
01FFFFFFFFFFFFFFFFFFFFFFFFFFF000
03FFFFFFFFFFFFFFFFFFFFFFFFFFF000
07FFFFFFFFFFFFFFFFFFFFFFFFFFF000
0FFFFFFFFE0000000007FFFFF0000000
0FFFFFFFC00000000007FFFFF0000000
1FFFFFFF000000000007FFFFF0000000
1FFFFFFC000000000007FFFFF0000000
3FFFFFF0000000000007FFFFF0000000
3FFFFFE0000000000007FFFFF0000000
3FFFFFC0000000000007FFFFF0000000
7FFFFF80000000000007FFFFF0000000
7FFFFF80000000000007FFFFF0000000
7FFFFF80000000000007FFFFF0000000
7FFFFF00000000000007FFFFF0000000
FFFFFF00000000000007FFFFF0000000
FFFFFF00000000000007FFFFF0000000
FFFFFE00000000000007FFFFF0000000
FFFFFE00000000000007FFFFF0000000
FFFFFE00000000000007FFFFF0000000
FFFFFE00000000000007FFFFF0000000
FFFFFE00000000000007FFFFF0000000
FFFFFE00000000000007FFFFF0000000
FFFFFE00000000000007FFFFF0000000
FFFFFE00000000000007FFFFF0000000
FFFFFF00000000000007FFFFF0000000
FFFFFF00000000000007FFFFF0000000
FFFFFF00000000000007FFFFF0000000
FFFFFF80000000000007FFFFF0000000
7FFFFF80000000000007FFFFF0000000
7FFFFFC0000000000007FFFFF0000000
7FFFFFC0000000000007FFFFF0000000
7FFFFFE0000000000007FFFFF0000000
7FFFFFF0000000000007FFFFF0000000
3FFFFFF8000000000007FFFFF0000000
3FFFFFFE000000000007FFFFF0000000
3FFFFFFF800000000007FFFFF0000000
1FFFFFFFF00000000007FFFFF0000000
1FFFFFFFFF0000000007FFFFF0000000
1FFFFFFFFFFFFFFFFFFFFFFFFFFFFFF0
0FFFFFFFFFFFFFFFFFFFFFFFFFFFFFF0
0FFFFFFFFFFFFFFFFFFFFFFFFFFFFFF0
07FFFFFFFFFFFFFFFFFFFFFFFFFFFFF0
07FFFFFFFFFFFFFFFFFFFFFFFFFFFFF0
03FFFFFFFFFFFFFFFFFFFFFFFFFFFFF0
01FFFFFFFFFFFFFFFFFFFFFFFFFFFFF0
01FFFFFFFFFFFFFFFFFFFFFFFFFFFFF0
00FFFFFFFFFFFFFFFFFFFFFFFFFFFFF0
007FFFFFFFFFFFFFFFFFFFFFFFFFFFF0
003FFFFFFFFFFFFFFFFFFFFFFFFFFFF0
001FFFFFFFFFFFFFFFFFFFFFFFFFFFF0
000FFFFFFFFFFFFFFFFFFFFFFFFFFFF0
0007FFFFFFFFFFFFFFFFFFFFFFFFFFF0
0003FFFFFFFFFFFFFFFFFFFFFFFFFFF0
0000FFFFFFFFFFFFFFFFFFFFFFFFFFF0
00007FFFFFFFFFFFFFFFFFFFFFFFFFF0
00001FFFFFFFFFFFFFFFFFFFFFFFFFF0
000007FFFFFFFFFFFFFFFFFFFFFFFFF0
000001FFFFFFFFFFFFFFFFFFFFFFFFF0
0000003FFFFFFFFFFFFFFFFFFFFFFFF0
00000007FFFFFFFFFFFFFFFFFFFFFFF0
000000001FFFFFFFFFFFFFFFFFFFFFF0
ENDCHAR
STARTCHAR quotesingle
ENCODING 39
SWIDTH 255 0
DWIDTH 46 0
BBX 24 47 11 85
BITMAP
FFFFFF
7FFFFF
7FFFFF
7FFFFF
7FFFFF
7FFFFE
7FFFFE
7FFFFE
7FFFFE
7FFFFE
7FFFFE
3FFFFE
3FFFFE
3FFFFE
3FFFFE
3FFFFE
3FFFFC
3FFFFC
3FFFFC
3FFFFC
3FFFFC
3FFFFC
1FFFFC
1FFFFC
1FFFFC
1FFFFC
1FFFF8
1FFFF8
1FFFF8
1FFFF8
1FFFF8
1FFFF8
1FFFF8
0FFFF8
0FFFF8
0FFFF8
0FFFF8
0FFFF0
0FFFF0
0FFFF0
0FFFF0
0FFFF0
0FFFF0
07FFF0
07FFF0
07FFF0
07FFF0
ENDCHAR
STARTCHAR parenleft
ENCODING 40
SWIDTH 356 0
DWIDTH 65 0
BBX 36 166 17 -16
BITMAP
00001FFFF0
00001FFFE0
00003FFFE0
00003FFFE0
00007FFFC0
00007FFFC0
00007FFF80
0000FFFF80
0000FFFF00
0001FFFF00
0001FFFF00
0001FFFE00
0003FFFE00
0003FFFE00
0007FFFC00
0007FFFC00
0007FFF800
000FFFF800
000FFFF800
000FFFF000
001FFFF000
001FFFE000
001FFFE000
003FFFE000
003FFFC000
003FFFC000
007FFFC000
007FFF8000
007FFF8000
00FFFF8000
00FFFF0000
00FFFF0000
01FFFF0000
01FFFE0000
01FFFE0000
01FFFE0000
03FFFC0000
03FFFC0000
03FFFC0000
03FFF80000
07FFF80000
07FFF80000
07FFF80000
07FFF00000
0FFFF00000
0FFFF00000
0FFFF00000
0FFFE00000
1FFFE00000
1FFFE00000
1FFFE00000
1FFFC00000
1FFFC00000
1FFFC00000
3FFFC00000
3FFFC00000
3FFF800000
3FFF800000
3FFF800000
3FFF800000
3FFF800000
7FFF800000
7FFF000000
7FFF000000
7FFF000000
7FFF000000
7FFF000000
7FFF000000
7FFF000000
7FFF000000
FFFE000000
FFFE000000
FFFE000000
FFFE000000
FFFE000000
FFFE000000
FFFE000000
FFFE000000
FFFE000000
FFFE000000
FFFE000000
FFFE000000
FFFE000000
FFFE000000
FFFE000000
FFFE000000
FFFE000000
FFFE000000
FFFE000000
FFFE000000
FFFE000000
FFFE000000
FFFE000000
FFFE000000
FFFE000000
7FFE000000
7FFE000000
7FFF000000
7FFF000000
7FFF000000
7FFF000000
7FFF000000
7FFF000000
7FFF000000
7FFF000000
3FFF800000
3FFF800000
3FFF800000
3FFF800000
3FFF800000
3FFF800000
3FFFC00000
1FFFC00000
1FFFC00000
1FFFC00000
1FFFC00000
1FFFE00000
0FFFE00000
0FFFE00000
0FFFE00000
0FFFF00000
0FFFF00000
07FFF00000
07FFF00000
07FFF80000
07FFF80000
03FFF80000
03FFF80000
03FFFC0000
03FFFC0000
01FFFC0000
01FFFE0000
01FFFE0000
00FFFE0000
00FFFE0000
00FFFF0000
00FFFF0000
007FFF0000
007FFF8000
007FFF8000
003FFFC000
003FFFC000
003FFFC000
001FFFE000
001FFFE000
001FFFE000
000FFFF000
000FFFF000
0007FFF800
0007FFF800
0007FFF800
0003FFFC00
0003FFFC00
0001FFFE00
0001FFFE00
0001FFFF00
0000FFFF00
0000FFFF00
00007FFF80
00007FFF80
00007FFFC0
00003FFFC0
00003FFFE0
00001FFFE0
00001FFFF0
00000FFFF0
ENDCHAR
STARTCHAR parenright
ENCODING 41
SWIDTH 355 0
DWIDTH 65 0
BBX 37 166 11 -16
BITMAP
7FFF800000
7FFFC00000
3FFFC00000
3FFFE00000
1FFFE00000
1FFFF00000
0FFFF00000
0FFFF00000
0FFFF80000
07FFF80000
07FFFC0000
03FFFC0000
03FFFC0000
03FFFE0000
01FFFE0000
01FFFE0000
00FFFF0000
00FFFF0000
00FFFF8000
007FFF8000
007FFF8000
007FFFC000
003FFFC000
003FFFC000
001FFFE000
001FFFE000
001FFFE000
000FFFF000
000FFFF000
000FFFF000
0007FFF800
0007FFF800
0007FFF800
0003FFF800
0003FFFC00
0003FFFC00
0003FFFC00
0001FFFE00
0001FFFE00
0001FFFE00
0000FFFE00
0000FFFF00
0000FFFF00
0000FFFF00
00007FFF00
00007FFF80
00007FFF80
00007FFF80
00003FFF80
00003FFF80
00003FFFC0
00003FFFC0
00001FFFC0
00001FFFC0
00001FFFC0
00001FFFC0
00001FFFE0
00001FFFE0
00000FFFE0
00000FFFE0
00000FFFE0
00000FFFE0
00000FFFE0
00000FFFF0
000007FFF0
000007FFF0
000007FFF0
000007FFF0
000007FFF0
000007FFF0
000007FFF0
000007FFF0
000007FFF0
000007FFF0
000007FFF0
000003FFF8
000003FFF8
000003FFF8
000003FFF8
000003FFF8
000003FFF8
000003FFF8
000003FFF8
000003FFF8
000003FFF8
000003FFF8
000003FFF8
000003FFF8
000003FFF8
000003FFF8
000003FFF8
000007FFF0
000007FFF0
000007FFF0
000007FFF0
000007FFF0
000007FFF0
000007FFF0
000007FFF0
000007FFF0
000007FFF0
000007FFF0
00000FFFF0
00000FFFE0
00000FFFE0
00000FFFE0
00000FFFE0
00000FFFE0
00001FFFE0
00001FFFE0
00001FFFC0
00001FFFC0
00001FFFC0
00001FFFC0
00003FFFC0
00003FFFC0
00003FFF80
00003FFF80
00003FFF80
00007FFF80
00007FFF80
00007FFF00
00007FFF00
0000FFFF00
0000FFFF00
0000FFFE00
0000FFFE00
0001FFFE00
0001FFFE00
0001FFFC00
0003FFFC00
0003FFFC00
0003FFFC00
0007FFF800
0007FFF800
0007FFF800
000FFFF000
000FFFF000
000FFFF000
001FFFE000
001FFFE000
001FFFE000
003FFFC000
003FFFC000
003FFFC000
007FFF8000
007FFF8000
00FFFF8000
00FFFF0000
00FFFF0000
01FFFE0000
01FFFE0000
03FFFE0000
03FFFC0000
03FFFC0000
07FFF80000
07FFF80000
0FFFF80000
0FFFF00000
1FFFF00000
1FFFE00000
1FFFE00000
3FFFC00000
3FFFC00000
7FFFC00000
FFFF800000
ENDCHAR
STARTCHAR asterisk
ENCODING 42
SWIDTH 469 0
DWIDTH 85 0
BBX 63 60 11 72
BITMAP
0000003FF8000000
0000003FF8000000
0000003FF8000000
0000003FF8000000
0000003FF8000000
0000003FF8000000
0000003FF8000000
0000003FF8000000
0000003FF8000000
0000003FF8000000
0000003FF8000000
0000003FF8000000
0000003FF8000000
0000003FF8000000
0000003FF8000000
0000003FF8000000
1000003FF8000010
1F00003FF80000F0
1FE0003FF80007F0
1FFC003FF8007FF8
3FFF803FF803FFF8
3FFFF83FF81FFFF8
3FFFFF3FF9FFFFFC
7FFFFFFFFFFFFFFC
7FFFFFFFFFFFFFFC
7FFFFFFFFFFFFFFE
FFFFFFFFFFFFFFFE
0FFFFFFFFFFFFFF0
01FFFFFFFFFFFF00
003FFFFFFFFFF800
0007FFFFFFFFC000
00007FFFFFFE0000
00000FFFFFE00000
000001FFFF000000
000003FFFF800000
000007FFFFC00000
000007FFFFE00000
00000FFFFFE00000
00001FFFFFF00000
00001FFFFFF80000
00003FFEFFF80000
00007FFC7FFC0000
0000FFFC3FFE0000
0000FFF83FFE0000
0001FFF01FFF0000
0003FFF00FFF8000
0003FFE00FFFC000
0007FFC007FFC000
000FFF8003FFE000
001FFF8001FFF000
001FFF0001FFF000
003FFE0000FFF800
007FFE00007FFC00
003FFC00007FFC00
001FF800003FF800
000FF000001FE000
0003F000000FC000
0001E000000F8000
0000C00000060000
0000400000040000
ENDCHAR
STARTCHAR plus
ENCODING 43
SWIDTH 690 0
DWIDTH 126 0
BBX 103 103 11 16
BITMAP
00000000000FFFF00000000000
00000000000FFFF00000000000
00000000000FFFF00000000000
00000000000FFFF00000000000
00000000000FFFF00000000000
00000000000FFFF00000000000
00000000000FFFF00000000000
00000000000FFFF00000000000
00000000000FFFF00000000000
00000000000FFFF00000000000
00000000000FFFF00000000000
00000000000FFFF00000000000
00000000000FFFF00000000000
00000000000FFFF00000000000
00000000000FFFF00000000000
00000000000FFFF00000000000
00000000000FFFF00000000000
00000000000FFFF00000000000
00000000000FFFF00000000000
00000000000FFFF00000000000
00000000000FFFF00000000000
00000000000FFFF00000000000
00000000000FFFF00000000000
00000000000FFFF00000000000
00000000000FFFF00000000000
00000000000FFFF00000000000
00000000000FFFF00000000000
00000000000FFFF00000000000
00000000000FFFF00000000000
00000000000FFFF00000000000
00000000000FFFF00000000000
00000000000FFFF00000000000
00000000000FFFF00000000000
00000000000FFFF00000000000
00000000000FFFF00000000000
00000000000FFFF00000000000
00000000000FFFF00000000000
00000000000FFFF00000000000
00000000000FFFF00000000000
00000000000FFFF00000000000
00000000000FFFF00000000000
00000000000FFFF00000000000
00000000000FFFF00000000000
00000000000FFFF00000000000
FFFFFFFFFFFFFFFFFFFFFFFFFE
FFFFFFFFFFFFFFFFFFFFFFFFFE
FFFFFFFFFFFFFFFFFFFFFFFFFE
FFFFFFFFFFFFFFFFFFFFFFFFFE
FFFFFFFFFFFFFFFFFFFFFFFFFE
FFFFFFFFFFFFFFFFFFFFFFFFFE
FFFFFFFFFFFFFFFFFFFFFFFFFE
FFFFFFFFFFFFFFFFFFFFFFFFFE
FFFFFFFFFFFFFFFFFFFFFFFFFE
FFFFFFFFFFFFFFFFFFFFFFFFFE
FFFFFFFFFFFFFFFFFFFFFFFFFE
FFFFFFFFFFFFFFFFFFFFFFFFFE
FFFFFFFFFFFFFFFFFFFFFFFFFE
FFFFFFFFFFFFFFFFFFFFFFFFFE
FFFFFFFFFFFFFFFFFFFFFFFFFE
00000000000FFFF00000000000
00000000000FFFF00000000000
00000000000FFFF00000000000
00000000000FFFF00000000000
00000000000FFFF00000000000
00000000000FFFF00000000000
00000000000FFFF00000000000
00000000000FFFF00000000000
00000000000FFFF00000000000
00000000000FFFF00000000000
00000000000FFFF00000000000
00000000000FFFF00000000000
00000000000FFFF00000000000
00000000000FFFF00000000000
00000000000FFFF00000000000
00000000000FFFF00000000000
00000000000FFFF00000000000
00000000000FFFF00000000000
00000000000FFFF00000000000
00000000000FFFF00000000000
00000000000FFFF00000000000
00000000000FFFF00000000000
00000000000FFFF00000000000
00000000000FFFF00000000000
00000000000FFFF00000000000
00000000000FFFF00000000000
00000000000FFFF00000000000
00000000000FFFF00000000000
00000000000FFFF00000000000
00000000000FFFF00000000000
00000000000FFFF00000000000
00000000000FFFF00000000000
00000000000FFFF00000000000
00000000000FFFF00000000000
00000000000FFFF00000000000
00000000000FFFF00000000000
00000000000FFFF00000000000
00000000000FFFF00000000000
00000000000FFFF00000000000
00000000000FFFF00000000000
00000000000FFFF00000000000
00000000000FFFF00000000000
00000000000FFFF00000000000
00000000000FFFF00000000000
ENDCHAR
STARTCHAR comma
ENCODING 44
SWIDTH 259 0
DWIDTH 47 0
BBX 24 47 12 -21
BITMAP
FFFFFF
FFFFFE
FFFFFE
FFFFFE
FFFFFE
FFFFFE
FFFFFC
FFFFFC
FFFFFC
FFFFFC
FFFFFC
FFFFF8
FFFFF8
FFFFF8
FFFFF8
FFFFF8
FFFFF0
FFFFF0
FFFFF0
FFFFF0
FFFFF0
FFFFF0
FFFFE0
FFFFE0
FFFFE0
FFFFE0
FFFFE0
FFFFC0
FFFFC0
FFFFC0
FFFFC0
FFFFC0
FFFF80
FFFF80
FFFF80
FFFF80
FFFF80
FFFF00
FFFF00
FFFF00
FFFF00
FFFF00
FFFE00
FFFE00
FFFE00
FFFE00
FFFE00
ENDCHAR
STARTCHAR hyphen
ENCODING 45
SWIDTH 296 0
DWIDTH 54 0
BBX 44 15 5 59
BITMAP
FFFFFFFFFFF0
FFFFFFFFFFF0
FFFFFFFFFFF0
FFFFFFFFFFF0
FFFFFFFFFFF0
FFFFFFFFFFF0
FFFFFFFFFFF0
FFFFFFFFFFF0
FFFFFFFFFFF0
FFFFFFFFFFF0
FFFFFFFFFFF0
FFFFFFFFFFF0
FFFFFFFFFFF0
FFFFFFFFFFF0
FFFFFFFFFFF0
ENDCHAR
STARTCHAR period
ENCODING 46
SWIDTH 262 0
DWIDTH 48 0
BBX 25 25 11 0
BITMAP
007F0000
01FFE000
07FFF000
0FFFF800
1FFFFC00
3FFFFE00
3FFFFF00
7FFFFF00
7FFFFF80
7FFFFF80
7FFFFF80
FFFFFF80
FFFFFF80
FFFFFF80
7FFFFF80
7FFFFF80
7FFFFF80
7FFFFF00
3FFFFF00
3FFFFE00
1FFFFC00
0FFFFC00
07FFF000
01FFE000
007F0000
ENDCHAR
STARTCHAR slash
ENCODING 47
SWIDTH 444 0
DWIDTH 81 0
BBX 77 132 2 0
BITMAP
0000000000000003FFF8
0000000000000007FFF0
0000000000000007FFF0
000000000000000FFFE0
000000000000000FFFE0
000000000000001FFFC0
000000000000001FFFC0
000000000000003FFFC0
000000000000003FFF80
000000000000007FFF80
000000000000007FFF00
00000000000000FFFF00
00000000000000FFFE00
00000000000001FFFE00
00000000000001FFFC00
00000000000001FFFC00
00000000000003FFF800
00000000000003FFF800
00000000000007FFF000
00000000000007FFF000
0000000000000FFFE000
0000000000000FFFE000
0000000000001FFFE000
0000000000001FFFC000
0000000000003FFFC000
0000000000003FFF8000
0000000000007FFF8000
0000000000007FFF0000
000000000000FFFF0000
000000000000FFFE0000
000000000001FFFE0000
000000000001FFFC0000
000000000001FFFC0000
000000000003FFF80000
000000000003FFF80000
000000000007FFF80000
000000000007FFF00000
00000000000FFFF00000
00000000000FFFE00000
00000000001FFFE00000
00000000001FFFC00000
00000000003FFFC00000
00000000003FFF800000
00000000007FFF800000
00000000007FFF000000
0000000000FFFF000000
0000000000FFFE000000
0000000001FFFE000000
0000000001FFFC000000
0000000001FFFC000000
0000000003FFFC000000
0000000003FFF8000000
0000000007FFF8000000
0000000007FFF0000000
000000000FFFF0000000
000000000FFFE0000000
000000001FFFE0000000
000000001FFFC0000000
000000003FFFC0000000
000000003FFF80000000
000000007FFF80000000
000000007FFF00000000
00000000FFFF00000000
00000000FFFE00000000
00000001FFFE00000000
00000001FFFE00000000
00000001FFFC00000000
00000003FFFC00000000
00000003FFF800000000
00000007FFF800000000
00000007FFF000000000
0000000FFFF000000000
0000000FFFE000000000
0000001FFFE000000000
0000001FFFC000000000
0000003FFFC000000000
0000003FFF8000000000
0000007FFF8000000000
0000007FFF8000000000
000000FFFF0000000000
000000FFFF0000000000
000001FFFE0000000000
000001FFFE0000000000
000003FFFC0000000000
000003FFFC0000000000
000003FFF80000000000
000007FFF80000000000
000007FFF00000000000
00000FFFF00000000000
00000FFFE00000000000
00001FFFE00000000000
00001FFFC00000000000
00003FFFC00000000000
00003FFFC00000000000
00007FFF800000000000
00007FFF800000000000
0000FFFF000000000000
0000FFFF000000000000
0001FFFE000000000000
0001FFFE000000000000
0003FFFC000000000000
0003FFFC000000000000
0003FFF8000000000000
0007FFF8000000000000
0007FFF0000000000000
000FFFF0000000000000
000FFFF0000000000000
001FFFE0000000000000
001FFFE0000000000000
003FFFC0000000000000
003FFFC0000000000000
007FFF80000000000000
007FFF80000000000000
00FFFF00000000000000
00FFFF00000000000000
01FFFE00000000000000
01FFFE00000000000000
03FFFC00000000000000
03FFFC00000000000000
03FFF800000000000000
07FFF800000000000000
07FFF800000000000000
0FFFF000000000000000
0FFFF000000000000000
1FFFE000000000000000
1FFFE000000000000000
3FFFC000000000000000
3FFFC000000000000000
7FFF8000000000000000
7FFF8000000000000000
FFFF0000000000000000
FFFF0000000000000000
ENDCHAR
STARTCHAR zero
ENCODING 48
SWIDTH 838 0
DWIDTH 153 0
BBX 137 132 8 0
BITMAP
000000000000001FFFF80000000000000000
00000000000007FFFFFFF000000000000000
000000000000FFFFFFFFFF00000000000000
000000000007FFFFFFFFFFF0000000000000
00000000003FFFFFFFFFFFFC000000000000
0000000001FFFFFFFFFFFFFF800000000000
0000000007FFFFFFFFFFFFFFE00000000000
000000001FFFFFFFFFFFFFFFF80000000000
000000007FFFFFFFFFFFFFFFFE0000000000
00000001FFFFFFFFFFFFFFFFFF8000000000
00000007FFFFFFFFFFFFFFFFFFE000000000
0000000FFFFFFFFFFFFFFFFFFFF000000000
0000003FFFFFFFFFFFFFFFFFFFFC00000000
0000007FFFFFFFFFFFFFFFFFFFFE00000000
000000FFFFFFFFFFFFFFFFFFFFFF80000000
000003FFFFFFFFFFFFFFFFFFFFFFC0000000
000007FFFFFFFFFFFFFFFFFFFFFFE0000000
00000FFFFFFFFFFFFFFFFFFFFFFFF0000000
00001FFFFFFFFFFFFFFFFFFFFFFFF8000000
00003FFFFFFFFFFFFFFFFFFFFFFFFC000000
00007FFFFFFFFFFFFFFFFFFFFFFFFE000000
0000FFFFFFFFFFFFFFFFFFFFFFFFFF000000
0001FFFFFFFFFFFFFFFFFFFFFFFFFF800000
0003FFFFFFFFFFF8000FFFFFFFFFFFC00000
0007FFFFFFFFFE0000007FFFFFFFFFE00000
0007FFFFFFFFE000000007FFFFFFFFF00000
000FFFFFFFFF0000000000FFFFFFFFF80000
001FFFFFFFFC00000000003FFFFFFFF80000
001FFFFFFFF000000000000FFFFFFFFC0000
003FFFFFFFC0000000000003FFFFFFFE0000
007FFFFFFF00000000000000FFFFFFFE0000
007FFFFFFE000000000000007FFFFFFF0000
00FFFFFFFC000000000000001FFFFFFF0000
01FFFFFFF0000000000000000FFFFFFF8000
01FFFFFFE00000000000000007FFFFFFC000
03FFFFFFC00000000000000003FFFFFFC000
03FFFFFF800000000000000001FFFFFFE000
07FFFFFF000000000000000000FFFFFFE000
07FFFFFF0000000000000000007FFFFFF000
07FFFFFE0000000000000000003FFFFFF000
0FFFFFFC0000000000000000003FFFFFF000
0FFFFFF80000000000000000001FFFFFF800
1FFFFFF80000000000000000000FFFFFF800
1FFFFFF00000000000000000000FFFFFF800
1FFFFFF000000000000000000007FFFFFC00
3FFFFFE000000000000000000007FFFFFC00
3FFFFFE000000000000000000003FFFFFC00
3FFFFFC000000000000000000003FFFFFE00
3FFFFFC000000000000000000003FFFFFE00
7FFFFF8000000000000000000001FFFFFE00
7FFFFF8000000000000000000001FFFFFE00
7FFFFF8000000000000000000000FFFFFF00
7FFFFF8000000000000000000000FFFFFF00
FFFFFF0000000000000000000000FFFFFF00
FFFFFF0000000000000000000000FFFFFF00
FFFFFF00000000000000000000007FFFFF00
FFFFFF00000000000000000000007FFFFF00
FFFFFE00000000000000000000007FFFFF80
FFFFFE00000000000000000000007FFFFF80
FFFFFE00000000000000000000007FFFFF80
FFFFFE00000000000000000000007FFFFF80
FFFFFE00000000000000000000007FFFFF80
FFFFFE00000000000000000000007FFFFF80
FFFFFE00000000000000000000003FFFFF80
FFFFFE00000000000000000000003FFFFF80
FFFFFE00000000000000000000003FFFFF80
FFFFFE00000000000000000000003FFFFF80
FFFFFE00000000000000000000003FFFFF80
FFFFFE00000000000000000000007FFFFF80
FFFFFE00000000000000000000007FFFFF80
FFFFFE00000000000000000000007FFFFF80
FFFFFE00000000000000000000007FFFFF80
FFFFFE00000000000000000000007FFFFF00
FFFFFE00000000000000000000007FFFFF00
FFFFFF00000000000000000000007FFFFF00
FFFFFF00000000000000000000007FFFFF00
7FFFFF0000000000000000000000FFFFFF00
7FFFFF0000000000000000000000FFFFFF00
7FFFFF0000000000000000000000FFFFFF00
7FFFFF8000000000000000000000FFFFFE00
7FFFFF8000000000000000000001FFFFFE00
3FFFFF8000000000000000000001FFFFFE00
3FFFFFC000000000000000000001FFFFFE00
3FFFFFC000000000000000000003FFFFFC00
3FFFFFC000000000000000000003FFFFFC00
1FFFFFE000000000000000000007FFFFFC00
1FFFFFE000000000000000000007FFFFF800
1FFFFFF00000000000000000000FFFFFF800
0FFFFFF00000000000000000000FFFFFF800
0FFFFFF80000000000000000001FFFFFF000
07FFFFFC0000000000000000001FFFFFF000
07FFFFFC0000000000000000003FFFFFE000
03FFFFFE0000000000000000007FFFFFE000
03FFFFFF000000000000000000FFFFFFC000
03FFFFFF800000000000000000FFFFFFC000
01FFFFFFC00000000000000001FFFFFF8000
00FFFFFFE00000000000000003FFFFFF8000
00FFFFFFF00000000000000007FFFFFF0000
007FFFFFF8000000000000000FFFFFFF0000
007FFFFFFC000000000000003FFFFFFE0000
003FFFFFFE000000000000007FFFFFFE0000
003FFFFFFF80000000000000FFFFFFFC0000
001FFFFFFFC0000000000003FFFFFFF80000
000FFFFFFFF000000000000FFFFFFFF80000
0007FFFFFFFC00000000003FFFFFFFF00000
0007FFFFFFFF8000000000FFFFFFFFE00000
0003FFFFFFFFE000000007FFFFFFFFC00000
0001FFFFFFFFFE0000007FFFFFFFFFC00000
0000FFFFFFFFFFF8000FFFFFFFFFFF800000
00007FFFFFFFFFFFFFFFFFFFFFFFFF000000
00003FFFFFFFFFFFFFFFFFFFFFFFFE000000
00003FFFFFFFFFFFFFFFFFFFFFFFFC000000
00001FFFFFFFFFFFFFFFFFFFFFFFF8000000
00000FFFFFFFFFFFFFFFFFFFFFFFF0000000
000003FFFFFFFFFFFFFFFFFFFFFFE0000000
000001FFFFFFFFFFFFFFFFFFFFFFC0000000
000000FFFFFFFFFFFFFFFFFFFFFF80000000
0000007FFFFFFFFFFFFFFFFFFFFE00000000
0000003FFFFFFFFFFFFFFFFFFFFC00000000
0000000FFFFFFFFFFFFFFFFFFFF000000000
00000007FFFFFFFFFFFFFFFFFFE000000000
00000001FFFFFFFFFFFFFFFFFFC000000000
00000000FFFFFFFFFFFFFFFFFF0000000000
000000003FFFFFFFFFFFFFFFFC0000000000
000000000FFFFFFFFFFFFFFFF00000000000
0000000003FFFFFFFFFFFFFFC00000000000
0000000000FFFFFFFFFFFFFF000000000000
00000000001FFFFFFFFFFFF8000000000000
000000000003FFFFFFFFFFE0000000000000
0000000000007FFFFFFFFE00000000000000
00000000000007FFFFFFE000000000000000
000000000000000FFFF80000000000000000
ENDCHAR
STARTCHAR one
ENCODING 49
SWIDTH 385 0
DWIDTH 70 0
BBX 55 132 4 0
BITMAP
FFFFF800000000
FFFFFFC0000000
FFFFFFFC000000
FFFFFFFF000000
FFFFFFFFE00000
FFFFFFFFF00000
FFFFFFFFFC0000
FFFFFFFFFF0000
FFFFFFFFFF8000
FFFFFFFFFFC000
FFFFFFFFFFE000
FFFFFFFFFFF000
FFFFFFFFFFF800
FFFFFFFFFFFC00
FFFFFFFFFFFC00
FFFFFFFFFFFE00
FFFFFFFFFFFF00
FFFFFFFFFFFF80
FFFFFFFFFFFF80
FFFFFFFFFFFFC0
FFFFFFFFFFFFC0
FFFFFFFFFFFFE0
FFFFFFFFFFFFE0
00003FFFFFFFE0
000007FFFFFFF0
000001FFFFFFF0
0000007FFFFFF0
0000003FFFFFF8
0000001FFFFFF8
0000000FFFFFF8
00000007FFFFF8
00000007FFFFFC
00000003FFFFFC
00000003FFFFFC
00000003FFFFFC
00000001FFFFFC
00000001FFFFFC
00000001FFFFFC
00000001FFFFFC
00000001FFFFFE
00000000FFFFFE
00000000FFFFFE
00000000FFFFFE
00000000FFFFFE
00000000FFFFFE
00000000FFFFFE
00000000FFFFFE
00000000FFFFFE
00000000FFFFFE
00000000FFFFFE
00000000FFFFFE
00000000FFFFFE
00000000FFFFFE
00000000FFFFFE
00000000FFFFFE
00000000FFFFFE
00000000FFFFFE
00000000FFFFFE
00000000FFFFFE
00000000FFFFFE
00000000FFFFFE
00000000FFFFFE
00000000FFFFFE
00000000FFFFFE
00000000FFFFFE
00000000FFFFFE
00000000FFFFFE
00000000FFFFFE
00000000FFFFFE
00000000FFFFFE
00000000FFFFFE
00000000FFFFFE
00000000FFFFFE
00000000FFFFFE
00000000FFFFFE
00000000FFFFFE
00000000FFFFFE
00000000FFFFFE
00000000FFFFFE
00000000FFFFFE
00000000FFFFFE
00000000FFFFFE
00000000FFFFFE
00000000FFFFFE
00000000FFFFFE
00000000FFFFFE
00000000FFFFFE
00000000FFFFFE
00000000FFFFFE
00000000FFFFFE
00000000FFFFFE
00000000FFFFFE
00000000FFFFFE
00000000FFFFFE
00000000FFFFFE
00000000FFFFFE
00000000FFFFFE
00000000FFFFFE
00000000FFFFFE
00000000FFFFFE
00000000FFFFFE
00000000FFFFFE
00000000FFFFFE
00000000FFFFFE
00000000FFFFFE
00000000FFFFFE
00000000FFFFFE
00000000FFFFFE
00000000FFFFFE
00000000FFFFFE
00000000FFFFFE
00000000FFFFFE
00000000FFFFFE
00000000FFFFFE
00000000FFFFFE
00000000FFFFFE
00000000FFFFFE
00000000FFFFFE
00000000FFFFFE
00000000FFFFFE
00000000FFFFFE
00000000FFFFFE
00000000FFFFFE
00000000FFFFFE
00000000FFFFFE
00000000FFFFFE
00000000FFFFFE
00000000FFFFFE
00000000FFFFFE
00000000FFFFFE
00000000FFFFFE
00000000FFFFFE
ENDCHAR
STARTCHAR two
ENCODING 50
SWIDTH 825 0
DWIDTH 150 0
BBX 130 132 11 0
BITMAP
3FFFFFFFFFFFFFFFFFFFFFFF8000000000
3FFFFFFFFFFFFFFFFFFFFFFFFC00000000
3FFFFFFFFFFFFFFFFFFFFFFFFFC0000000
3FFFFFFFFFFFFFFFFFFFFFFFFFF0000000
3FFFFFFFFFFFFFFFFFFFFFFFFFFC000000
3FFFFFFFFFFFFFFFFFFFFFFFFFFF000000
3FFFFFFFFFFFFFFFFFFFFFFFFFFFC00000
3FFFFFFFFFFFFFFFFFFFFFFFFFFFF00000
3FFFFFFFFFFFFFFFFFFFFFFFFFFFF80000
3FFFFFFFFFFFFFFFFFFFFFFFFFFFFC0000
3FFFFFFFFFFFFFFFFFFFFFFFFFFFFE0000
3FFFFFFFFFFFFFFFFFFFFFFFFFFFFF0000
3FFFFFFFFFFFFFFFFFFFFFFFFFFFFF8000
3FFFFFFFFFFFFFFFFFFFFFFFFFFFFFC000
3FFFFFFFFFFFFFFFFFFFFFFFFFFFFFE000
3FFFFFFFFFFFFFFFFFFFFFFFFFFFFFF000
3FFFFFFFFFFFFFFFFFFFFFFFFFFFFFF000
3FFFFFFFFFFFFFFFFFFFFFFFFFFFFFF800
3FFFFFFFFFFFFFFFFFFFFFFFFFFFFFF800
3FFFFFFFFFFFFFFFFFFFFFFFFFFFFFFC00
3FFFFFFFFFFFFFFFFFFFFFFFFFFFFFFC00
3FFFFFFFFFFFFFFFFFFFFFFFFFFFFFFE00
3FFFFFFFFFFFFFFFFFFFFFFFFFFFFFFE00
000000000000000000000003FFFFFFFF00
0000000000000000000000007FFFFFFF00
0000000000000000000000001FFFFFFF00
0000000000000000000000000FFFFFFF00
00000000000000000000000003FFFFFF80
00000000000000000000000003FFFFFF80
00000000000000000000000001FFFFFF80
00000000000000000000000000FFFFFF80
00000000000000000000000000FFFFFF80
000000000000000000000000007FFFFF80
000000000000000000000000007FFFFFC0
000000000000000000000000007FFFFFC0
000000000000000000000000003FFFFFC0
000000000000000000000000003FFFFFC0
000000000000000000000000003FFFFFC0
000000000000000000000000003FFFFFC0
000000000000000000000000003FFFFFC0
000000000000000000000000003FFFFFC0
000000000000000000000000003FFFFF80
000000000000000000000000003FFFFF80
000000000000000000000000007FFFFF80
000000000000000000000000007FFFFF80
000000000000000000000000007FFFFF80
00000000000000000000000000FFFFFF80
00000000000000000000000000FFFFFF00
00000000000000000000000001FFFFFF00
00000000000000000000000001FFFFFF00
00000000000000000000000003FFFFFE00
00000000000000000000000007FFFFFE00
0000000000000000000000001FFFFFFC00
0000000000000000000000007FFFFFFC00
000000000000000000000003FFFFFFFC00
000000007FFFFFFFFFFFFFFFFFFFFFF800
0000001FFFFFFFFFFFFFFFFFFFFFFFF000
000001FFFFFFFFFFFFFFFFFFFFFFFFF000
00000FFFFFFFFFFFFFFFFFFFFFFFFFE000
00003FFFFFFFFFFFFFFFFFFFFFFFFFC000
0000FFFFFFFFFFFFFFFFFFFFFFFFFFC000
0001FFFFFFFFFFFFFFFFFFFFFFFFFF8000
0007FFFFFFFFFFFFFFFFFFFFFFFFFF0000
000FFFFFFFFFFFFFFFFFFFFFFFFFFE0000
001FFFFFFFFFFFFFFFFFFFFFFFFFFC0000
003FFFFFFFFFFFFFFFFFFFFFFFFFF00000
007FFFFFFFFFFFFFFFFFFFFFFFFFE00000
00FFFFFFFFFFFFFFFFFFFFFFFFFFC00000
01FFFFFFFFFFFFFFFFFFFFFFFFFF000000
03FFFFFFFFFFFFFFFFFFFFFFFFFC000000
03FFFFFFFFFFFFFFFFFFFFFFFFF0000000
07FFFFFFFFFFFFFFFFFFFFFFFF80000000
07FFFFFFFFFFFFFFFFFFFFFFFC00000000
0FFFFFFFFFFFFFFFFFFFFFFF8000000000
0FFFFFFFE0000000000000000000000000
1FFFFFFF00000000000000000000000000
1FFFFFFC00000000000000000000000000
1FFFFFF000000000000000000000000000
3FFFFFE000000000000000000000000000
3FFFFFC000000000000000000000000000
3FFFFF8000000000000000000000000000
3FFFFF8000000000000000000000000000
7FFFFF0000000000000000000000000000
7FFFFF0000000000000000000000000000
7FFFFE0000000000000000000000000000
7FFFFE0000000000000000000000000000
7FFFFE0000000000000000000000000000
7FFFFE0000000000000000000000000000
7FFFFC0000000000000000000000000000
7FFFFC0000000000000000000000000000
FFFFFC0000000000000000000000000000
FFFFFC0000000000000000000000000000
FFFFFC0000000000000000000000000000
FFFFFC0000000000000000000000000000
FFFFFC0000000000000000000000000000
FFFFFC0000000000000000000000000000
FFFFFC0000000000000000000000000000
FFFFFC0000000000000000000000000000
FFFFFC0000000000000000000000000000
FFFFFC0000000000000000000000000000
FFFFFC0000000000000000000000000000
FFFFFC0000000000000000000000000000
FFFFFC0000000000000000000000000000
FFFFFC0000000000000000000000000000
FFFFFC0000000000000000000000000000
FFFFFC0000000000000000000000000000
FFFFFC0000000000000000000000000000
FFFFFC0000000000000000000000000000
FFFFFC0000000000000000000000000000
FFFFFFFFFFFFFFFFFFFFFFFFFFFFFFFF00
FFFFFFFFFFFFFFFFFFFFFFFFFFFFFFFF00
FFFFFFFFFFFFFFFFFFFFFFFFFFFFFFFF00
FFFFFFFFFFFFFFFFFFFFFFFFFFFFFFFF00
FFFFFFFFFFFFFFFFFFFFFFFFFFFFFFFF00
FFFFFFFFFFFFFFFFFFFFFFFFFFFFFFFF00
FFFFFFFFFFFFFFFFFFFFFFFFFFFFFFFF00
FFFFFFFFFFFFFFFFFFFFFFFFFFFFFFFF00
FFFFFFFFFFFFFFFFFFFFFFFFFFFFFFFF00
FFFFFFFFFFFFFFFFFFFFFFFFFFFFFFFF00
FFFFFFFFFFFFFFFFFFFFFFFFFFFFFFFF00
FFFFFFFFFFFFFFFFFFFFFFFFFFFFFFFF00
FFFFFFFFFFFFFFFFFFFFFFFFFFFFFFFF00
FFFFFFFFFFFFFFFFFFFFFFFFFFFFFFFF00
FFFFFFFFFFFFFFFFFFFFFFFFFFFFFFFF00
FFFFFFFFFFFFFFFFFFFFFFFFFFFFFFFF00
FFFFFFFFFFFFFFFFFFFFFFFFFFFFFFFF00
FFFFFFFFFFFFFFFFFFFFFFFFFFFFFFFF00
FFFFFFFFFFFFFFFFFFFFFFFFFFFFFFFF00
FFFFFFFFFFFFFFFFFFFFFFFFFFFFFFFF00
FFFFFFFFFFFFFFFFFFFFFFFFFFFFFFFF00
FFFFFFFFFFFFFFFFFFFFFFFFFFFFFFFF00
FFFFFFFFFFFFFFFFFFFFFFFFFFFFFFFF00
ENDCHAR
STARTCHAR three
ENCODING 51
SWIDTH 827 0
DWIDTH 151 0
BBX 134 132 8 0
BITMAP
7FFFFFFFFFFFFFFFFFFFFFFF8000000000
7FFFFFFFFFFFFFFFFFFFFFFFFE00000000
7FFFFFFFFFFFFFFFFFFFFFFFFFE0000000
7FFFFFFFFFFFFFFFFFFFFFFFFFFC000000
7FFFFFFFFFFFFFFFFFFFFFFFFFFF000000
7FFFFFFFFFFFFFFFFFFFFFFFFFFFE00000
7FFFFFFFFFFFFFFFFFFFFFFFFFFFF00000
7FFFFFFFFFFFFFFFFFFFFFFFFFFFFC0000
7FFFFFFFFFFFFFFFFFFFFFFFFFFFFE0000
7FFFFFFFFFFFFFFFFFFFFFFFFFFFFF8000
7FFFFFFFFFFFFFFFFFFFFFFFFFFFFFC000
7FFFFFFFFFFFFFFFFFFFFFFFFFFFFFE000
7FFFFFFFFFFFFFFFFFFFFFFFFFFFFFF000
7FFFFFFFFFFFFFFFFFFFFFFFFFFFFFF000
7FFFFFFFFFFFFFFFFFFFFFFFFFFFFFF800
7FFFFFFFFFFFFFFFFFFFFFFFFFFFFFFC00
7FFFFFFFFFFFFFFFFFFFFFFFFFFFFFFE00
7FFFFFFFFFFFFFFFFFFFFFFFFFFFFFFE00
7FFFFFFFFFFFFFFFFFFFFFFFFFFFFFFF00
7FFFFFFFFFFFFFFFFFFFFFFFFFFFFFFF00
7FFFFFFFFFFFFFFFFFFFFFFFFFFFFFFF80
7FFFFFFFFFFFFFFFFFFFFFFFFFFFFFFF80
7FFFFFFFFFFFFFFFFFFFFFFFFFFFFFFF80
00000000000000000000001FFFFFFFFFC0
000000000000000000000000FFFFFFFFC0
0000000000000000000000001FFFFFFFC0
00000000000000000000000007FFFFFFC0
00000000000000000000000001FFFFFFE0
00000000000000000000000000FFFFFFE0
000000000000000000000000007FFFFFE0
000000000000000000000000003FFFFFE0
000000000000000000000000003FFFFFE0
000000000000000000000000001FFFFFE0
000000000000000000000000001FFFFFE0
000000000000000000000000001FFFFFE0
000000000000000000000000001FFFFFE0
000000000000000000000000000FFFFFE0
000000000000000000000000000FFFFFE0
000000000000000000000000000FFFFFE0
000000000000000000000000000FFFFFE0
000000000000000000000000000FFFFFE0
000000000000000000000000000FFFFFC0
000000000000000000000000000FFFFFC0
000000000000000000000000001FFFFFC0
000000000000000000000000001FFFFFC0
000000000000000000000000001FFFFFC0
000000000000000000000000001FFFFF80
000000000000000000000000003FFFFF80
000000000000000000000000003FFFFF00
000000000000000000000000007FFFFF00
00000000000000000000000000FFFFFE00
00000000000000000000000001FFFFFE00
00000000000000000000000007FFFFFC00
0000000000000000000000001FFFFFF800
000000000000000000000001FFFFFFF000
00000000FFFFFFFFFFFFFFFFFFFFFFE000
00000000FFFFFFFFFFFFFFFFFFFFFFC000
00000000FFFFFFFFFFFFFFFFFFFFFF8000
00000000FFFFFFFFFFFFFFFFFFFFFF0000
00000000FFFFFFFFFFFFFFFFFFFFFC0000
00000000FFFFFFFFFFFFFFFFFFFFF80000
00000000FFFFFFFFFFFFFFFFFFFFC00000
00000000FFFFFFFFFFFFFFFFFFFFC00000
00000000FFFFFFFFFFFFFFFFFFFFF80000
00000000FFFFFFFFFFFFFFFFFFFFFE0000
00000000FFFFFFFFFFFFFFFFFFFFFF0000
00000000FFFFFFFFFFFFFFFFFFFFFFC000
00000000FFFFFFFFFFFFFFFFFFFFFFE000
00000000FFFFFFFFFFFFFFFFFFFFFFF000
00000000FFFFFFFFFFFFFFFFFFFFFFF800
00000000FFFFFFFFFFFFFFFFFFFFFFFC00
00000000FFFFFFFFFFFFFFFFFFFFFFFE00
00000000FFFFFFFFFFFFFFFFFFFFFFFF00
00000000FFFFFFFFFFFFFFFFFFFFFFFF00
000000000000000000000000FFFFFFFF80
0000000000000000000000000FFFFFFFC0
00000000000000000000000003FFFFFFC0
00000000000000000000000000FFFFFFE0
000000000000000000000000007FFFFFE0
000000000000000000000000003FFFFFF0
000000000000000000000000001FFFFFF0
000000000000000000000000000FFFFFF0
000000000000000000000000000FFFFFF0
0000000000000000000000000007FFFFF8
0000000000000000000000000007FFFFF8
0000000000000000000000000007FFFFF8
0000000000000000000000000003FFFFF8
0000000000000000000000000003FFFFF8
0000000000000000000000000003FFFFF8
0000000000000000000000000003FFFFFC
0000000000000000000000000003FFFFFC
0000000000000000000000000003FFFFFC
0000000000000000000000000003FFFFFC
0000000000000000000000000003FFFFFC
0000000000000000000000000003FFFFFC
0000000000000000000000000003FFFFF8
0000000000000000000000000007FFFFF8
0000000000000000000000000007FFFFF8
0000000000000000000000000007FFFFF8
000000000000000000000000000FFFFFF8
000000000000000000000000001FFFFFF8
000000000000000000000000001FFFFFF8
000000000000000000000000003FFFFFF0
000000000000000000000000007FFFFFF0
00000000000000000000000001FFFFFFF0
00000000000000000000000007FFFFFFF0
0000000000000000000000001FFFFFFFE0
0000000000000000000000007FFFFFFFE0
00000000000000000000000FFFFFFFFFE0
FFFFFFFFFFFFFFFFFFFFFFFFFFFFFFFFC0
FFFFFFFFFFFFFFFFFFFFFFFFFFFFFFFFC0
FFFFFFFFFFFFFFFFFFFFFFFFFFFFFFFF80
FFFFFFFFFFFFFFFFFFFFFFFFFFFFFFFF80
FFFFFFFFFFFFFFFFFFFFFFFFFFFFFFFF00
FFFFFFFFFFFFFFFFFFFFFFFFFFFFFFFE00
FFFFFFFFFFFFFFFFFFFFFFFFFFFFFFFE00
FFFFFFFFFFFFFFFFFFFFFFFFFFFFFFFC00
FFFFFFFFFFFFFFFFFFFFFFFFFFFFFFF800
FFFFFFFFFFFFFFFFFFFFFFFFFFFFFFF000
FFFFFFFFFFFFFFFFFFFFFFFFFFFFFFF000
FFFFFFFFFFFFFFFFFFFFFFFFFFFFFFE000
FFFFFFFFFFFFFFFFFFFFFFFFFFFFFF8000
FFFFFFFFFFFFFFFFFFFFFFFFFFFFFF0000
FFFFFFFFFFFFFFFFFFFFFFFFFFFFFE0000
FFFFFFFFFFFFFFFFFFFFFFFFFFFFFC0000
FFFFFFFFFFFFFFFFFFFFFFFFFFFFF00000
FFFFFFFFFFFFFFFFFFFFFFFFFFFFC00000
FFFFFFFFFFFFFFFFFFFFFFFFFFFF000000
FFFFFFFFFFFFFFFFFFFFFFFFFFFC000000
FFFFFFFFFFFFFFFFFFFFFFFFFFE0000000
FFFFFFFFFFFFFFFFFFFFFFFFFF00000000
FFFFFFFFFFFFFFFFFFFFFFFFE000000000
ENDCHAR
STARTCHAR four
ENCODING 52
SWIDTH 845 0
DWIDTH 154 0
BBX 140 132 9 0
BITMAP
FFFFFE0000000000000000003FFFFF800000
FFFFFE0000000000000000003FFFFF800000
FFFFFE0000000000000000003FFFFF800000
FFFFFE0000000000000000003FFFFF800000
FFFFFE0000000000000000003FFFFF800000
FFFFFE0000000000000000003FFFFF800000
FFFFFE0000000000000000003FFFFF800000
FFFFFE0000000000000000003FFFFF800000
FFFFFE0000000000000000003FFFFF800000
FFFFFE0000000000000000003FFFFF800000
FFFFFE0000000000000000003FFFFF800000
FFFFFE0000000000000000003FFFFF800000
FFFFFE0000000000000000003FFFFF800000
FFFFFE0000000000000000003FFFFF800000
FFFFFE0000000000000000003FFFFF800000
FFFFFE0000000000000000003FFFFF800000
FFFFFE0000000000000000003FFFFF800000
FFFFFE0000000000000000003FFFFF800000
FFFFFE0000000000000000003FFFFF800000
FFFFFE0000000000000000003FFFFF800000
FFFFFE0000000000000000003FFFFF800000
FFFFFE0000000000000000003FFFFF800000
FFFFFE0000000000000000003FFFFF800000
FFFFFE0000000000000000003FFFFF800000
FFFFFE0000000000000000003FFFFF800000
FFFFFE0000000000000000003FFFFF800000
FFFFFE0000000000000000003FFFFF800000
FFFFFE0000000000000000003FFFFF800000
FFFFFE0000000000000000003FFFFF800000
FFFFFE0000000000000000003FFFFF800000
FFFFFE0000000000000000003FFFFF800000
FFFFFE0000000000000000003FFFFF800000
FFFFFE0000000000000000003FFFFF800000
FFFFFE0000000000000000003FFFFF800000
FFFFFE0000000000000000003FFFFF800000
FFFFFE0000000000000000003FFFFF800000
FFFFFE0000000000000000003FFFFF800000
FFFFFE0000000000000000003FFFFF800000
FFFFFE0000000000000000003FFFFF800000
FFFFFE0000000000000000003FFFFF800000
FFFFFE0000000000000000003FFFFF800000
FFFFFE0000000000000000003FFFFF800000
FFFFFE0000000000000000003FFFFF800000
FFFFFE0000000000000000003FFFFF800000
FFFFFE0000000000000000003FFFFF800000
FFFFFE0000000000000000003FFFFF800000
FFFFFE0000000000000000003FFFFF800000
FFFFFE0000000000000000003FFFFF800000
FFFFFE0000000000000000003FFFFF800000
FFFFFE0000000000000000003FFFFF800000
FFFFFE0000000000000000003FFFFF800000
FFFFFE0000000000000000003FFFFF800000
FFFFFE0000000000000000003FFFFF800000
FFFFFE0000000000000000003FFFFF800000
FFFFFE0000000000000000003FFFFF800000
FFFFFE0000000000000000003FFFFF800000
FFFFFE0000000000000000003FFFFF800000
FFFFFE0000000000000000003FFFFF800000
FFFFFE0000000000000000003FFFFF800000
FFFFFE0000000000000000003FFFFF800000
FFFFFE0000000000000000003FFFFF800000
FFFFFE0000000000000000003FFFFF800000
FFFFFF0000000000000000003FFFFF800000
FFFFFF0000000000000000003FFFFF800000
FFFFFF0000000000000000003FFFFF800000
7FFFFF8000000000000000003FFFFF800000
7FFFFF8000000000000000003FFFFF800000
7FFFFF8000000000000000003FFFFF800000
7FFFFFC000000000000000003FFFFF800000
7FFFFFE000000000000000003FFFFF800000
3FFFFFF000000000000000003FFFFF800000
3FFFFFF800000000000000003FFFFF800000
3FFFFFFE00000000000000003FFFFF800000
3FFFFFFF80000000000000003FFFFF800000
1FFFFFFFF8000000000000003FFFFF800000
1FFFFFFFFFFFFFFFFFFFFFFFFFFFFFFFFFF0
0FFFFFFFFFFFFFFFFFFFFFFFFFFFFFFFFFF0
0FFFFFFFFFFFFFFFFFFFFFFFFFFFFFFFFFF0
07FFFFFFFFFFFFFFFFFFFFFFFFFFFFFFFFF0
07FFFFFFFFFFFFFFFFFFFFFFFFFFFFFFFFF0
03FFFFFFFFFFFFFFFFFFFFFFFFFFFFFFFFF0
03FFFFFFFFFFFFFFFFFFFFFFFFFFFFFFFFF0
01FFFFFFFFFFFFFFFFFFFFFFFFFFFFFFFFF0
00FFFFFFFFFFFFFFFFFFFFFFFFFFFFFFFFF0
007FFFFFFFFFFFFFFFFFFFFFFFFFFFFFFFF0
003FFFFFFFFFFFFFFFFFFFFFFFFFFFFFFFF0
001FFFFFFFFFFFFFFFFFFFFFFFFFFFFFFFF0
000FFFFFFFFFFFFFFFFFFFFFFFFFFFFFFFF0
0007FFFFFFFFFFFFFFFFFFFFFFFFFFFFFFF0
0003FFFFFFFFFFFFFFFFFFFFFFFFFFFFFFF0
0000FFFFFFFFFFFFFFFFFFFFFFFFFFFFFFF0
00003FFFFFFFFFFFFFFFFFFFFFFFFFFFFFF0
00000FFFFFFFFFFFFFFFFFFFFFFFFFFFFFF0
000003FFFFFFFFFFFFFFFFFFFFFFFFFFFFF0
0000007FFFFFFFFFFFFFFFFFFFFFFFFFFFF0
0000000FFFFFFFFFFFFFFFFFFFFFFFFFFFF0
000000001FFFFFFFFFFFFFFFFFFFFFFFFFF0
0000000000000000000000003FFFFF800000
0000000000000000000000003FFFFF800000
0000000000000000000000003FFFFF800000
0000000000000000000000003FFFFF800000
0000000000000000000000003FFFFF800000
0000000000000000000000003FFFFF800000
0000000000000000000000003FFFFF800000
0000000000000000000000003FFFFF800000
0000000000000000000000003FFFFF800000
0000000000000000000000003FFFFF800000
0000000000000000000000003FFFFF800000
0000000000000000000000003FFFFF800000
0000000000000000000000003FFFFF800000
0000000000000000000000003FFFFF800000
0000000000000000000000003FFFFF800000
0000000000000000000000003FFFFF800000
0000000000000000000000003FFFFF800000
0000000000000000000000003FFFFF800000
0000000000000000000000003FFFFF800000
0000000000000000000000003FFFFF800000
0000000000000000000000003FFFFF800000
0000000000000000000000003FFFFF800000
0000000000000000000000003FFFFF800000
0000000000000000000000003FFFFF800000
0000000000000000000000003FFFFF800000
0000000000000000000000003FFFFF800000
0000000000000000000000003FFFFF800000
0000000000000000000000003FFFFF800000
0000000000000000000000003FFFFF800000
0000000000000000000000003FFFFF800000
0000000000000000000000003FFFFF800000
0000000000000000000000003FFFFF800000
0000000000000000000000003FFFFF800000
0000000000000000000000003FFFFF800000
0000000000000000000000003FFFFF800000
ENDCHAR
STARTCHAR five
ENCODING 53
SWIDTH 885 0
DWIDTH 161 0
BBX 141 132 11 0
BITMAP
FFFFFFFFFFFFFFFFFFFFFFFFFFFFFFFFFC00
FFFFFFFFFFFFFFFFFFFFFFFFFFFFFFFFFC00
FFFFFFFFFFFFFFFFFFFFFFFFFFFFFFFFFC00
FFFFFFFFFFFFFFFFFFFFFFFFFFFFFFFFFC00
FFFFFFFFFFFFFFFFFFFFFFFFFFFFFFFFFC00
FFFFFFFFFFFFFFFFFFFFFFFFFFFFFFFFFC00
FFFFFFFFFFFFFFFFFFFFFFFFFFFFFFFFFC00
FFFFFFFFFFFFFFFFFFFFFFFFFFFFFFFFFC00
FFFFFFFFFFFFFFFFFFFFFFFFFFFFFFFFFC00
FFFFFFFFFFFFFFFFFFFFFFFFFFFFFFFFFC00
FFFFFFFFFFFFFFFFFFFFFFFFFFFFFFFFFC00
FFFFFFFFFFFFFFFFFFFFFFFFFFFFFFFFFC00
FFFFFFFFFFFFFFFFFFFFFFFFFFFFFFFFFC00
FFFFFFFFFFFFFFFFFFFFFFFFFFFFFFFFFC00
FFFFFFFFFFFFFFFFFFFFFFFFFFFFFFFFFC00
FFFFFFFFFFFFFFFFFFFFFFFFFFFFFFFFFC00
FFFFFFFFFFFFFFFFFFFFFFFFFFFFFFFFFC00
FFFFFFFFFFFFFFFFFFFFFFFFFFFFFFFFFC00
FFFFFFFFFFFFFFFFFFFFFFFFFFFFFFFFFC00
FFFFFFFFFFFFFFFFFFFFFFFFFFFFFFFFFC00
FFFFFFFFFFFFFFFFFFFFFFFFFFFFFFFFFC00
FFFFFFFFFFFFFFFFFFFFFFFFFFFFFFFFFC00
FFFFFFFFFFFFFFFFFFFFFFFFFFFFFFFFFC00
FFFFFF000000000000000000000000000000
FFFFFF000000000000000000000000000000
FFFFFF000000000000000000000000000000
FFFFFF000000000000000000000000000000
FFFFFF000000000000000000000000000000
FFFFFF000000000000000000000000000000
FFFFFF000000000000000000000000000000
FFFFFF000000000000000000000000000000
FFFFFF000000000000000000000000000000
FFFFFF000000000000000000000000000000
FFFFFF000000000000000000000000000000
FFFFFF000000000000000000000000000000
FFFFFF000000000000000000000000000000
FFFFFF000000000000000000000000000000
FFFFFF000000000000000000000000000000
FFFFFF000000000000000000000000000000
FFFFFF000000000000000000000000000000
FFFFFF000000000000000000000000000000
FFFFFF000000000000000000000000000000
FFFFFF000000000000000000000000000000
FFFFFF000000000000000000000000000000
FFFFFF000000000000000000000000000000
FFFFFF000000000000000000000000000000
FFFFFF000000000000000000000000000000
FFFFFF000000000000000000000000000000
FFFFFF000000000000000000000000000000
FFFFFF000000000000000000000000000000
FFFFFF000000000000000000000000000000
FFFFFF000000000000000000000000000000
FFFFFF000000000000000000000000000000
FFFFFF000000000000000000000000000000
FFFFFF000000000000000000000000000000
FFFFFFFFFFFFFFFFFFFFFFFFFFF000000000
FFFFFFFFFFFFFFFFFFFFFFFFFFFFC0000000
FFFFFFFFFFFFFFFFFFFFFFFFFFFFFC000000
FFFFFFFFFFFFFFFFFFFFFFFFFFFFFF000000
FFFFFFFFFFFFFFFFFFFFFFFFFFFFFFE00000
FFFFFFFFFFFFFFFFFFFFFFFFFFFFFFF80000
FFFFFFFFFFFFFFFFFFFFFFFFFFFFFFFC0000
FFFFFFFFFFFFFFFFFFFFFFFFFFFFFFFF0000
FFFFFFFFFFFFFFFFFFFFFFFFFFFFFFFF8000
FFFFFFFFFFFFFFFFFFFFFFFFFFFFFFFFC000
FFFFFFFFFFFFFFFFFFFFFFFFFFFFFFFFE000
FFFFFFFFFFFFFFFFFFFFFFFFFFFFFFFFF000
FFFFFFFFFFFFFFFFFFFFFFFFFFFFFFFFF800
FFFFFFFFFFFFFFFFFFFFFFFFFFFFFFFFFC00
FFFFFFFFFFFFFFFFFFFFFFFFFFFFFFFFFC00
FFFFFFFFFFFFFFFFFFFFFFFFFFFFFFFFFE00
FFFFFFFFFFFFFFFFFFFFFFFFFFFFFFFFFF00
FFFFFFFFFFFFFFFFFFFFFFFFFFFFFFFFFF00
FFFFFFFFFFFFFFFFFFFFFFFFFFFFFFFFFF80
000000000000000000000000007FFFFFFF80
0000000000000000000000000007FFFFFFC0
0000000000000000000000000001FFFFFFC0
00000000000000000000000000007FFFFFC0
00000000000000000000000000003FFFFFE0
00000000000000000000000000001FFFFFE0
00000000000000000000000000000FFFFFE0
00000000000000000000000000000FFFFFE0
000000000000000000000000000007FFFFF0
000000000000000000000000000007FFFFF0
000000000000000000000000000003FFFFF0
000000000000000000000000000003FFFFF0
000000000000000000000000000003FFFFF0
000000000000000000000000000003FFFFF0
000000000000000000000000000001FFFFF0
000000000000000000000000000001FFFFF0
000000000000000000000000000001FFFFF8
000000000000000000000000000001FFFFF8
000000000000000000000000000001FFFFF8
000000000000000000000000000001FFFFF8
000000000000000000000000000001FFFFF8
000000000000000000000000000003FFFFF8
000000000000000000000000000003FFFFF8
000000000000000000000000000003FFFFF0
000000000000000000000000000003FFFFF0
000000000000000000000000000007FFFFF0
000000000000000000000000000007FFFFF0
00000000000000000000000000000FFFFFF0
00000000000000000000000000001FFFFFF0
00000000000000000000000000003FFFFFF0
00000000000000000000000000007FFFFFE0
0000000000000000000000000000FFFFFFE0
0000000000000000000000000001FFFFFFE0
0000000000000000000000000007FFFFFFC0
000000000000000000000000007FFFFFFFC0
FFFFFFFFFFFFFFFFFFFFFFFFFFFFFFFFFFC0
FFFFFFFFFFFFFFFFFFFFFFFFFFFFFFFFFF80
FFFFFFFFFFFFFFFFFFFFFFFFFFFFFFFFFF80
FFFFFFFFFFFFFFFFFFFFFFFFFFFFFFFFFF00
FFFFFFFFFFFFFFFFFFFFFFFFFFFFFFFFFF00
FFFFFFFFFFFFFFFFFFFFFFFFFFFFFFFFFE00
FFFFFFFFFFFFFFFFFFFFFFFFFFFFFFFFFE00
FFFFFFFFFFFFFFFFFFFFFFFFFFFFFFFFFC00
FFFFFFFFFFFFFFFFFFFFFFFFFFFFFFFFF800
FFFFFFFFFFFFFFFFFFFFFFFFFFFFFFFFF800
FFFFFFFFFFFFFFFFFFFFFFFFFFFFFFFFF000
FFFFFFFFFFFFFFFFFFFFFFFFFFFFFFFFE000
FFFFFFFFFFFFFFFFFFFFFFFFFFFFFFFFC000
FFFFFFFFFFFFFFFFFFFFFFFFFFFFFFFF8000
FFFFFFFFFFFFFFFFFFFFFFFFFFFFFFFF0000
FFFFFFFFFFFFFFFFFFFFFFFFFFFFFFFC0000
FFFFFFFFFFFFFFFFFFFFFFFFFFFFFFF80000
FFFFFFFFFFFFFFFFFFFFFFFFFFFFFFE00000
FFFFFFFFFFFFFFFFFFFFFFFFFFFFFF800000
FFFFFFFFFFFFFFFFFFFFFFFFFFFFFE000000
FFFFFFFFFFFFFFFFFFFFFFFFFFFFF8000000
FFFFFFFFFFFFFFFFFFFFFFFFFFFF80000000
FFFFFFFFFFFFFFFFFFFFFFFFFFF000000000
ENDCHAR
STARTCHAR six
ENCODING 54
SWIDTH 872 0
DWIDTH 159 0
BBX 141 132 8 0
BITMAP
0000000000003FFFFFFFFFFFFFFFFFFFFF00
00000000001FFFFFFFFFFFFFFFFFFFFFFF00
0000000001FFFFFFFFFFFFFFFFFFFFFFFF00
000000000FFFFFFFFFFFFFFFFFFFFFFFFF00
000000007FFFFFFFFFFFFFFFFFFFFFFFFF00
00000003FFFFFFFFFFFFFFFFFFFFFFFFFF00
0000000FFFFFFFFFFFFFFFFFFFFFFFFFFF00
0000003FFFFFFFFFFFFFFFFFFFFFFFFFFF00
0000007FFFFFFFFFFFFFFFFFFFFFFFFFFF00
000001FFFFFFFFFFFFFFFFFFFFFFFFFFFF00
000003FFFFFFFFFFFFFFFFFFFFFFFFFFFF00
00000FFFFFFFFFFFFFFFFFFFFFFFFFFFFF00
00001FFFFFFFFFFFFFFFFFFFFFFFFFFFFF00
00003FFFFFFFFFFFFFFFFFFFFFFFFFFFFF00
00007FFFFFFFFFFFFFFFFFFFFFFFFFFFFF00
0000FFFFFFFFFFFFFFFFFFFFFFFFFFFFFF00
0001FFFFFFFFFFFFFFFFFFFFFFFFFFFFFF00
0003FFFFFFFFFFFFFFFFFFFFFFFFFFFFFF00
0007FFFFFFFFFFFFFFFFFFFFFFFFFFFFFF00
000FFFFFFFFFFFFFFFFFFFFFFFFFFFFFFF00
001FFFFFFFFFFFFFFFFFFFFFFFFFFFFFFF00
001FFFFFFFFFFFFFFFFFFFFFFFFFFFFFFF00
003FFFFFFFFFFFFFFFFFFFFFFFFFFFFFFF00
007FFFFFFFFFF80000000000000000000000
007FFFFFFFFE000000000000000000000000
00FFFFFFFFF0000000000000000000000000
00FFFFFFFF80000000000000000000000000
01FFFFFFFE00000000000000000000000000
01FFFFFFFC00000000000000000000000000
03FFFFFFF000000000000000000000000000
03FFFFFFE000000000000000000000000000
07FFFFFFC000000000000000000000000000
07FFFFFF8000000000000000000000000000
0FFFFFFF0000000000000000000000000000
0FFFFFFE0000000000000000000000000000
0FFFFFFC0000000000000000000000000000
1FFFFFF80000000000000000000000000000
1FFFFFF80000000000000000000000000000
1FFFFFF00000000000000000000000000000
1FFFFFF00000000000000000000000000000
3FFFFFE00000000000000000000000000000
3FFFFFE00000000000000000000000000000
3FFFFFC00000000000000000000000000000
3FFFFFC00000000000000000000000000000
7FFFFFC00000000000000000000000000000
7FFFFF800000000000000000000000000000
7FFFFF800000000000000000000000000000
7FFFFF800000000000000000000000000000
7FFFFF800000000000000000000000000000
7FFFFF000000000000000000000000000000
FFFFFF000000000000000000000000000000
FFFFFF000000000000000000000000000000
FFFFFF000000000000000000000000000000
FFFFFF000000000000000000000000000000
FFFFFE000000000000000000000000000000
FFFFFFFFFFFFFFFFFFFFFFFFFFF800000000
FFFFFFFFFFFFFFFFFFFFFFFFFFFFE0000000
FFFFFFFFFFFFFFFFFFFFFFFFFFFFFE000000
FFFFFFFFFFFFFFFFFFFFFFFFFFFFFF800000
FFFFFFFFFFFFFFFFFFFFFFFFFFFFFFF00000
FFFFFFFFFFFFFFFFFFFFFFFFFFFFFFF80000
FFFFFFFFFFFFFFFFFFFFFFFFFFFFFFFE0000
FFFFFFFFFFFFFFFFFFFFFFFFFFFFFFFF8000
FFFFFFFFFFFFFFFFFFFFFFFFFFFFFFFFC000
FFFFFFFFFFFFFFFFFFFFFFFFFFFFFFFFE000
FFFFFFFFFFFFFFFFFFFFFFFFFFFFFFFFF000
FFFFFFFFFFFFFFFFFFFFFFFFFFFFFFFFF800
FFFFFFFFFFFFFFFFFFFFFFFFFFFFFFFFFC00
FFFFFFFFFFFFFFFFFFFFFFFFFFFFFFFFFE00
FFFFFFFFFFFFFFFFFFFFFFFFFFFFFFFFFE00
FFFFFFFFFFFFFFFFFFFFFFFFFFFFFFFFFF00
FFFFFFFFFFFFFFFFFFFFFFFFFFFFFFFFFF80
FFFFFFFFFFFFFFFFFFFFFFFFFFFFFFFFFF80
FFFFFFFFFFFFFFFFFFFFFFFFFFFFFFFFFFC0
FFFFFFFFFFFFFFFFFFFFFFFFFFFFFFFFFFC0
FFFFFE000000000000000000007FFFFFFFC0
FFFFFE0000000000000000000007FFFFFFE0
FFFFFE0000000000000000000001FFFFFFE0
FFFFFF00000000000000000000007FFFFFE0
7FFFFF00000000000000000000003FFFFFF0
7FFFFF00000000000000000000001FFFFFF0
7FFFFF00000000000000000000000FFFFFF0
7FFFFF000000000000000000000007FFFFF0
7FFFFF800000000000000000000007FFFFF0
7FFFFF800000000000000000000003FFFFF8
7FFFFF800000000000000000000003FFFFF8
3FFFFF800000000000000000000003FFFFF8
3FFFFFC00000000000000000000001FFFFF8
3FFFFFC00000000000000000000001FFFFF8
3FFFFFC00000000000000000000001FFFFF8
1FFFFFE00000000000000000000001FFFFF8
1FFFFFE00000000000000000000001FFFFF8
1FFFFFF00000000000000000000001FFFFF8
1FFFFFF00000000000000000000001FFFFF8
0FFFFFF80000000000000000000001FFFFF8
0FFFFFFC0000000000000000000003FFFFF8
0FFFFFFC0000000000000000000003FFFFF8
07FFFFFE0000000000000000000003FFFFF8
07FFFFFF0000000000000000000003FFFFF8
03FFFFFF8000000000000000000007FFFFF8
03FFFFFFC000000000000000000007FFFFF0
01FFFFFFE00000000000000000000FFFFFF0
01FFFFFFF00000000000000000001FFFFFF0
01FFFFFFFC0000000000000000001FFFFFF0
00FFFFFFFF0000000000000000007FFFFFF0
007FFFFFFFC00000000000000000FFFFFFE0
007FFFFFFFF00000000000000001FFFFFFE0
003FFFFFFFFE000000000000000FFFFFFFE0
003FFFFFFFFFF8000000000000FFFFFFFFE0
001FFFFFFFFFFFFFFFFFFFFFFFFFFFFFFFC0
000FFFFFFFFFFFFFFFFFFFFFFFFFFFFFFFC0
000FFFFFFFFFFFFFFFFFFFFFFFFFFFFFFF80
0007FFFFFFFFFFFFFFFFFFFFFFFFFFFFFF80
0003FFFFFFFFFFFFFFFFFFFFFFFFFFFFFF00
0001FFFFFFFFFFFFFFFFFFFFFFFFFFFFFF00
0000FFFFFFFFFFFFFFFFFFFFFFFFFFFFFE00
00007FFFFFFFFFFFFFFFFFFFFFFFFFFFFE00
00003FFFFFFFFFFFFFFFFFFFFFFFFFFFFC00
00001FFFFFFFFFFFFFFFFFFFFFFFFFFFF800
00000FFFFFFFFFFFFFFFFFFFFFFFFFFFF000
000007FFFFFFFFFFFFFFFFFFFFFFFFFFE000
000001FFFFFFFFFFFFFFFFFFFFFFFFFFC000
000000FFFFFFFFFFFFFFFFFFFFFFFFFF8000
0000003FFFFFFFFFFFFFFFFFFFFFFFFF0000
0000001FFFFFFFFFFFFFFFFFFFFFFFFE0000
00000007FFFFFFFFFFFFFFFFFFFFFFF80000
00000001FFFFFFFFFFFFFFFFFFFFFFF00000
000000003FFFFFFFFFFFFFFFFFFFFFC00000
000000000FFFFFFFFFFFFFFFFFFFFF000000
0000000000FFFFFFFFFFFFFFFFFFF8000000
00000000000FFFFFFFFFFFFFFFFFC0000000
0000000000003FFFFFFFFFFFFFF000000000
ENDCHAR
STARTCHAR seven
ENCODING 55
SWIDTH 756 0
DWIDTH 138 0
BBX 126 132 8 0
BITMAP
FFFFFFFFFFFFFFFFFFFFFFFFFFFFF800
FFFFFFFFFFFFFFFFFFFFFFFFFFFFFF00
FFFFFFFFFFFFFFFFFFFFFFFFFFFFFFC0
FFFFFFFFFFFFFFFFFFFFFFFFFFFFFFE0
FFFFFFFFFFFFFFFFFFFFFFFFFFFFFFF0
FFFFFFFFFFFFFFFFFFFFFFFFFFFFFFF0
FFFFFFFFFFFFFFFFFFFFFFFFFFFFFFF8
FFFFFFFFFFFFFFFFFFFFFFFFFFFFFFF8
FFFFFFFFFFFFFFFFFFFFFFFFFFFFFFF8
FFFFFFFFFFFFFFFFFFFFFFFFFFFFFFFC
FFFFFFFFFFFFFFFFFFFFFFFFFFFFFFFC
FFFFFFFFFFFFFFFFFFFFFFFFFFFFFFFC
FFFFFFFFFFFFFFFFFFFFFFFFFFFFFFFC
FFFFFFFFFFFFFFFFFFFFFFFFFFFFFFFC
FFFFFFFFFFFFFFFFFFFFFFFFFFFFFFF8
FFFFFFFFFFFFFFFFFFFFFFFFFFFFFFF8
FFFFFFFFFFFFFFFFFFFFFFFFFFFFFFF8
FFFFFFFFFFFFFFFFFFFFFFFFFFFFFFF0
FFFFFFFFFFFFFFFFFFFFFFFFFFFFFFF0
FFFFFFFFFFFFFFFFFFFFFFFFFFFFFFE0
FFFFFFFFFFFFFFFFFFFFFFFFFFFFFFC0
FFFFFFFFFFFFFFFFFFFFFFFFFFFFFFC0
FFFFFFFFFFFFFFFFFFFFFFFFFFFFFF80
00000000000000000000001FFFFFFF00
00000000000000000000003FFFFFFE00
00000000000000000000003FFFFFFC00
00000000000000000000007FFFFFFC00
0000000000000000000000FFFFFFF800
0000000000000000000001FFFFFFF000
0000000000000000000003FFFFFFE000
0000000000000000000007FFFFFFC000
0000000000000000000007FFFFFF8000
000000000000000000000FFFFFFF8000
000000000000000000001FFFFFFF0000
000000000000000000003FFFFFFE0000
000000000000000000007FFFFFFC0000
00000000000000000000FFFFFFF80000
00000000000000000000FFFFFFF80000
00000000000000000001FFFFFFF00000
00000000000000000003FFFFFFE00000
00000000000000000007FFFFFFC00000
0000000000000000000FFFFFFF800000
0000000000000000001FFFFFFF000000
0000000000000000001FFFFFFF000000
0000000000000000003FFFFFFE000000
0000000000000000007FFFFFFC000000
000000000000000000FFFFFFF8000000
000000000000000001FFFFFFF0000000
000000000000000003FFFFFFF0000000
000000000000000003FFFFFFE0000000
000000000000000007FFFFFFC0000000
00000000000000000FFFFFFF80000000
00000000000000001FFFFFFF00000000
00000000000000003FFFFFFE00000000
00000000000000007FFFFFFE00000000
00000000000000007FFFFFFC00000000
0000000000000000FFFFFFF800000000
0000000000000001FFFFFFF000000000
0000000000000003FFFFFFE000000000
0000000000000007FFFFFFE000000000
000000000000000FFFFFFFC000000000
000000000000000FFFFFFF8000000000
000000000000001FFFFFFF0000000000
000000000000003FFFFFFE0000000000
000000000000007FFFFFFC0000000000
00000000000000FFFFFFFC0000000000
00000000000001FFFFFFF80000000000
00000000000001FFFFFFF00000000000
00000000000003FFFFFFE00000000000
00000000000007FFFFFFC00000000000
0000000000000FFFFFFFC00000000000
0000000000001FFFFFFF800000000000
0000000000003FFFFFFF000000000000
0000000000003FFFFFFE000000000000
0000000000007FFFFFFC000000000000
000000000000FFFFFFF8000000000000
000000000001FFFFFFF8000000000000
000000000003FFFFFFF0000000000000
000000000003FFFFFFE0000000000000
000000000007FFFFFFC0000000000000
00000000000FFFFFFF80000000000000
00000000001FFFFFFF80000000000000
00000000003FFFFFFF00000000000000
00000000007FFFFFFE00000000000000
00000000007FFFFFFC00000000000000
0000000000FFFFFFF800000000000000
0000000001FFFFFFF000000000000000
0000000003FFFFFFF000000000000000
0000000007FFFFFFE000000000000000
000000000FFFFFFFC000000000000000
000000000FFFFFFF8000000000000000
000000001FFFFFFF0000000000000000
000000003FFFFFFE0000000000000000
000000007FFFFFFE0000000000000000
00000000FFFFFFFC0000000000000000
00000001FFFFFFF80000000000000000
00000001FFFFFFF00000000000000000
00000003FFFFFFE00000000000000000
00000007FFFFFFE00000000000000000
0000000FFFFFFFC00000000000000000
0000001FFFFFFF800000000000000000
0000003FFFFFFF000000000000000000
0000003FFFFFFE000000000000000000
0000007FFFFFFC000000000000000000
000000FFFFFFFC000000000000000000
000001FFFFFFF8000000000000000000
000003FFFFFFF0000000000000000000
000007FFFFFFE0000000000000000000
000007FFFFFFC0000000000000000000
00000FFFFFFFC0000000000000000000
00001FFFFFFF80000000000000000000
00003FFFFFFF00000000000000000000
00007FFFFFFE00000000000000000000
0000FFFFFFFC00000000000000000000
0000FFFFFFF800000000000000000000
0001FFFFFFF800000000000000000000
0003FFFFFFF000000000000000000000
0007FFFFFFE000000000000000000000
000FFFFFFFC000000000000000000000
001FFFFFFF8000000000000000000000
001FFFFFFF8000000000000000000000
003FFFFFFF0000000000000000000000
007FFFFFFE0000000000000000000000
00FFFFFFFC0000000000000000000000
01FFFFFFF80000000000000000000000
03FFFFFFF00000000000000000000000
03FFFFFFF00000000000000000000000
07FFFFFFE00000000000000000000000
0FFFFFFFC00000000000000000000000
1FFFFFFF800000000000000000000000
3FFFFFFF000000000000000000000000
7FFFFFFF000000000000000000000000
ENDCHAR
STARTCHAR eight
ENCODING 56
SWIDTH 898 0
DWIDTH 163 0
BBX 145 132 9 0
BITMAP
0000000007FFFFFFFFFFFFFFFFF80000000000
00000001FFFFFFFFFFFFFFFFFFFFE000000000
0000001FFFFFFFFFFFFFFFFFFFFFFE00000000
000000FFFFFFFFFFFFFFFFFFFFFFFFC0000000
000007FFFFFFFFFFFFFFFFFFFFFFFFF0000000
00001FFFFFFFFFFFFFFFFFFFFFFFFFFC000000
00003FFFFFFFFFFFFFFFFFFFFFFFFFFF000000
0000FFFFFFFFFFFFFFFFFFFFFFFFFFFFC00000
0001FFFFFFFFFFFFFFFFFFFFFFFFFFFFE00000
0007FFFFFFFFFFFFFFFFFFFFFFFFFFFFF00000
000FFFFFFFFFFFFFFFFFFFFFFFFFFFFFF80000
001FFFFFFFFFFFFFFFFFFFFFFFFFFFFFFC0000
003FFFFFFFFFFFFFFFFFFFFFFFFFFFFFFE0000
007FFFFFFFFFFFFFFFFFFFFFFFFFFFFFFF0000
007FFFFFFFFFFFFFFFFFFFFFFFFFFFFFFF8000
00FFFFFFFFFFFFFFFFFFFFFFFFFFFFFFFFC000
01FFFFFFFFFFFFFFFFFFFFFFFFFFFFFFFFC000
01FFFFFFFFFFFFFFFFFFFFFFFFFFFFFFFFE000
03FFFFFFFFFFFFFFFFFFFFFFFFFFFFFFFFE000
03FFFFFFFFFFFFFFFFFFFFFFFFFFFFFFFFF000
07FFFFFFFFFFFFFFFFFFFFFFFFFFFFFFFFF000
07FFFFFFFFFFFFFFFFFFFFFFFFFFFFFFFFF800
07FFFFFFFFFFFFFFFFFFFFFFFFFFFFFFFFF800
0FFFFFFFFFC000000000000001FFFFFFFFF800
0FFFFFFFF800000000000000000FFFFFFFFC00
0FFFFFFFC0000000000000000001FFFFFFFC00
1FFFFFFF000000000000000000007FFFFFFC00
1FFFFFFE000000000000000000001FFFFFFC00
1FFFFFFC000000000000000000000FFFFFFC00
1FFFFFF80000000000000000000007FFFFFE00
1FFFFFF00000000000000000000007FFFFFE00
1FFFFFF00000000000000000000003FFFFFE00
1FFFFFE00000000000000000000003FFFFFE00
1FFFFFE00000000000000000000001FFFFFE00
1FFFFFE00000000000000000000001FFFFFE00
1FFFFFC00000000000000000000001FFFFFE00
1FFFFFC00000000000000000000001FFFFFE00
1FFFFFC00000000000000000000001FFFFFE00
1FFFFFC00000000000000000000001FFFFFE00
1FFFFFC00000000000000000000001FFFFFC00
1FFFFFC00000000000000000000001FFFFFC00
1FFFFFC00000000000000000000001FFFFFC00
0FFFFFC00000000000000000000001FFFFFC00
0FFFFFC00000000000000000000001FFFFFC00
0FFFFFE00000000000000000000001FFFFF800
0FFFFFE00000000000000000000003FFFFF800
07FFFFE00000000000000000000003FFFFF800
07FFFFF00000000000000000000003FFFFF000
07FFFFF00000000000000000000007FFFFF000
03FFFFF8000000000000000000000FFFFFF000
03FFFFFC000000000000000000000FFFFFE000
01FFFFFE000000000000000000003FFFFFC000
00FFFFFF800000000000000000007FFFFFC000
007FFFFFE0000000000000000001FFFFFF8000
007FFFFFFE00000000000000001FFFFFFF0000
003FFFFFFFFFFFFFFFFFFFFFFFFFFFFFFE0000
001FFFFFFFFFFFFFFFFFFFFFFFFFFFFFFC0000
0007FFFFFFFFFFFFFFFFFFFFFFFFFFFFF80000
0003FFFFFFFFFFFFFFFFFFFFFFFFFFFFF00000
0001FFFFFFFFFFFFFFFFFFFFFFFFFFFFC00000
00007FFFFFFFFFFFFFFFFFFFFFFFFFFF000000
00001FFFFFFFFFFFFFFFFFFFFFFFFFFC000000
00000FFFFFFFFFFFFFFFFFFFFFFFFFFC000000
00007FFFFFFFFFFFFFFFFFFFFFFFFFFF000000
0001FFFFFFFFFFFFFFFFFFFFFFFFFFFFC00000
0003FFFFFFFFFFFFFFFFFFFFFFFFFFFFF00000
000FFFFFFFFFFFFFFFFFFFFFFFFFFFFFF80000
001FFFFFFFFFFFFFFFFFFFFFFFFFFFFFFC0000
003FFFFFFFFFFFFFFFFFFFFFFFFFFFFFFF0000
007FFFFFFFFFFFFFFFFFFFFFFFFFFFFFFF8000
00FFFFFFFFFFFFFFFFFFFFFFFFFFFFFFFFC000
01FFFFFFFFFFFFFFFFFFFFFFFFFFFFFFFFC000
03FFFFFFFFFFFFFFFFFFFFFFFFFFFFFFFFE000
07FFFFFFFFFFFFFFFFFFFFFFFFFFFFFFFFF000
07FFFFFFFC00000000000000001FFFFFFFF800
0FFFFFFFC0000000000000000001FFFFFFF800
0FFFFFFF000000000000000000003FFFFFFC00
1FFFFFFC000000000000000000001FFFFFFC00
1FFFFFF80000000000000000000007FFFFFE00
3FFFFFF00000000000000000000003FFFFFE00
3FFFFFE00000000000000000000001FFFFFE00
3FFFFFC00000000000000000000001FFFFFF00
7FFFFFC00000000000000000000000FFFFFF00
7FFFFF800000000000000000000000FFFFFF00
7FFFFF8000000000000000000000007FFFFF00
7FFFFF0000000000000000000000007FFFFF80
7FFFFF0000000000000000000000007FFFFF80
FFFFFF0000000000000000000000003FFFFF80
FFFFFF0000000000000000000000003FFFFF80
FFFFFF0000000000000000000000003FFFFF80
FFFFFF0000000000000000000000003FFFFF80
FFFFFF0000000000000000000000003FFFFF80
FFFFFF0000000000000000000000003FFFFF80
FFFFFF0000000000000000000000003FFFFF80
FFFFFF0000000000000000000000003FFFFF80
FFFFFF0000000000000000000000007FFFFF80
FFFFFF0000000000000000000000007FFFFF80
7FFFFF8000000000000000000000007FFFFF80
7FFFFF800000000000000000000000FFFFFF80
7FFFFFC00000000000000000000000FFFFFF80
7FFFFFC00000000000000000000001FFFFFF00
7FFFFFE00000000000000000000003FFFFFF00
7FFFFFF00000000000000000000003FFFFFF00
3FFFFFF8000000000000000000000FFFFFFF00
3FFFFFFC000000000000000000001FFFFFFE00
3FFFFFFF000000000000000000007FFFFFFE00
1FFFFFFFC0000000000000000001FFFFFFFE00
1FFFFFFFF800000000000000000FFFFFFFFE00
1FFFFFFFFFC000000000000001FFFFFFFFFC00
0FFFFFFFFFFFFFFFFFFFFFFFFFFFFFFFFFFC00
0FFFFFFFFFFFFFFFFFFFFFFFFFFFFFFFFFF800
07FFFFFFFFFFFFFFFFFFFFFFFFFFFFFFFFF800
07FFFFFFFFFFFFFFFFFFFFFFFFFFFFFFFFF000
03FFFFFFFFFFFFFFFFFFFFFFFFFFFFFFFFF000
03FFFFFFFFFFFFFFFFFFFFFFFFFFFFFFFFE000
01FFFFFFFFFFFFFFFFFFFFFFFFFFFFFFFFC000
00FFFFFFFFFFFFFFFFFFFFFFFFFFFFFFFFC000
007FFFFFFFFFFFFFFFFFFFFFFFFFFFFFFF8000
007FFFFFFFFFFFFFFFFFFFFFFFFFFFFFFF0000
003FFFFFFFFFFFFFFFFFFFFFFFFFFFFFFE0000
001FFFFFFFFFFFFFFFFFFFFFFFFFFFFFFC0000
000FFFFFFFFFFFFFFFFFFFFFFFFFFFFFF80000
0007FFFFFFFFFFFFFFFFFFFFFFFFFFFFF00000
0001FFFFFFFFFFFFFFFFFFFFFFFFFFFFE00000
0000FFFFFFFFFFFFFFFFFFFFFFFFFFFF800000
00003FFFFFFFFFFFFFFFFFFFFFFFFFFF000000
00001FFFFFFFFFFFFFFFFFFFFFFFFFFC000000
000007FFFFFFFFFFFFFFFFFFFFFFFFF0000000
000001FFFFFFFFFFFFFFFFFFFFFFFFC0000000
0000003FFFFFFFFFFFFFFFFFFFFFFE00000000
00000003FFFFFFFFFFFFFFFFFFFFF000000000
000000001FFFFFFFFFFFFFFFFFFE0000000000
ENDCHAR
STARTCHAR nine
ENCODING 57
SWIDTH 861 0
DWIDTH 157 0
BBX 141 132 8 0
BITMAP
00000001FFFFFFFFFFFFFFC0000000000000
0000001FFFFFFFFFFFFFFFFF800000000000
000000FFFFFFFFFFFFFFFFFFF80000000000
000007FFFFFFFFFFFFFFFFFFFF0000000000
00001FFFFFFFFFFFFFFFFFFFFFE000000000
00003FFFFFFFFFFFFFFFFFFFFFF800000000
0000FFFFFFFFFFFFFFFFFFFFFFFE00000000
0001FFFFFFFFFFFFFFFFFFFFFFFF80000000
0007FFFFFFFFFFFFFFFFFFFFFFFFE0000000
000FFFFFFFFFFFFFFFFFFFFFFFFFF0000000
001FFFFFFFFFFFFFFFFFFFFFFFFFFC000000
003FFFFFFFFFFFFFFFFFFFFFFFFFFE000000
007FFFFFFFFFFFFFFFFFFFFFFFFFFF800000
007FFFFFFFFFFFFFFFFFFFFFFFFFFFC00000
00FFFFFFFFFFFFFFFFFFFFFFFFFFFFE00000
01FFFFFFFFFFFFFFFFFFFFFFFFFFFFF00000
03FFFFFFFFFFFFFFFFFFFFFFFFFFFFF80000
03FFFFFFFFFFFFFFFFFFFFFFFFFFFFFC0000
07FFFFFFFFFFFFFFFFFFFFFFFFFFFFFE0000
07FFFFFFFFFFFFFFFFFFFFFFFFFFFFFE0000
0FFFFFFFFFFFFFFFFFFFFFFFFFFFFFFF0000
0FFFFFFFFFFFFFFFFFFFFFFFFFFFFFFF8000
1FFFFFFFFFFFFFFFFFFFFFFFFFFFFFFFC000
1FFFFFFFF8000000000000FFFFFFFFFFC000
3FFFFFFFC000000000000007FFFFFFFFE000
3FFFFFFE0000000000000000FFFFFFFFE000
3FFFFFFC00000000000000001FFFFFFFF000
7FFFFFF8000000000000000007FFFFFFF800
7FFFFFF0000000000000000001FFFFFFF800
7FFFFFE0000000000000000000FFFFFFFC00
7FFFFFC00000000000000000007FFFFFFC00
FFFFFFC00000000000000000003FFFFFFC00
FFFFFF800000000000000000000FFFFFFE00
FFFFFF800000000000000000000FFFFFFE00
FFFFFF0000000000000000000007FFFFFF00
FFFFFF0000000000000000000003FFFFFF00
FFFFFF0000000000000000000001FFFFFF00
FFFFFF0000000000000000000001FFFFFF80
FFFFFE0000000000000000000000FFFFFF80
FFFFFE00000000000000000000007FFFFF80
FFFFFE00000000000000000000007FFFFFC0
FFFFFE00000000000000000000007FFFFFC0
FFFFFE00000000000000000000003FFFFFC0
FFFFFE00000000000000000000003FFFFFC0
FFFFFE00000000000000000000001FFFFFE0
FFFFFE00000000000000000000001FFFFFE0
FFFFFE00000000000000000000001FFFFFE0
FFFFFF00000000000000000000000FFFFFE0
FFFFFF00000000000000000000000FFFFFF0
FFFFFF00000000000000000000000FFFFFF0
FFFFFF00000000000000000000000FFFFFF0
FFFFFF800000000000000000000007FFFFF0
7FFFFF800000000000000000000007FFFFF0
7FFFFFC00000000000000000000007FFFFF0
7FFFFFC00000000000000000000007FFFFF0
7FFFFFE00000000000000000000007FFFFF0
7FFFFFF00000000000000000000007FFFFF8
3FFFFFF80000000000000000000007FFFFF8
3FFFFFFE0000000000000000000003FFFFF8
3FFFFFFF8000000000000000000003FFFFF8
1FFFFFFFF000000000000000000003FFFFF8
1FFFFFFFFFFFFFFFFFFFFFFFFFFFFFFFFFF8
0FFFFFFFFFFFFFFFFFFFFFFFFFFFFFFFFFF8
0FFFFFFFFFFFFFFFFFFFFFFFFFFFFFFFFFF8
07FFFFFFFFFFFFFFFFFFFFFFFFFFFFFFFFF8
07FFFFFFFFFFFFFFFFFFFFFFFFFFFFFFFFF8
03FFFFFFFFFFFFFFFFFFFFFFFFFFFFFFFFF8
01FFFFFFFFFFFFFFFFFFFFFFFFFFFFFFFFF8
01FFFFFFFFFFFFFFFFFFFFFFFFFFFFFFFFF8
00FFFFFFFFFFFFFFFFFFFFFFFFFFFFFFFFF8
007FFFFFFFFFFFFFFFFFFFFFFFFFFFFFFFF8
003FFFFFFFFFFFFFFFFFFFFFFFFFFFFFFFF8
000FFFFFFFFFFFFFFFFFFFFFFFFFFFFFFFF8
0007FFFFFFFFFFFFFFFFFFFFFFFFFFFFFFF8
0001FFFFFFFFFFFFFFFFFFFFFFFFFFFFFFF8
0000FFFFFFFFFFFFFFFFFFFFFFFFFFFFFFF8
00001FFFFFFFFFFFFFFFFFFFFFFFFFFFFFF8
000007FFFFFFFFFFFFFFFFFFFFFFFFFFFFF8
0000007FFFFFFFFFFFFFFFFFFFFFFFFFFFF8
00000003FFFFFFFFFFFFFFFFFFFFFFFFFFF0
000000000000000000000000000007FFFFF0
000000000000000000000000000007FFFFF0
00000000000000000000000000000FFFFFF0
00000000000000000000000000000FFFFFF0
00000000000000000000000000000FFFFFF0
00000000000000000000000000000FFFFFF0
00000000000000000000000000001FFFFFE0
00000000000000000000000000001FFFFFE0
00000000000000000000000000001FFFFFE0
00000000000000000000000000003FFFFFE0
00000000000000000000000000003FFFFFE0
00000000000000000000000000007FFFFFC0
00000000000000000000000000007FFFFFC0
0000000000000000000000000000FFFFFFC0
0000000000000000000000000000FFFFFFC0
0000000000000000000000000001FFFFFF80
0000000000000000000000000001FFFFFF80
0000000000000000000000000003FFFFFF80
0000000000000000000000000007FFFFFF00
000000000000000000000000000FFFFFFF00
000000000000000000000000001FFFFFFE00
000000000000000000000000003FFFFFFE00
000000000000000000000000007FFFFFFC00
00000000000000000000000001FFFFFFFC00
00000000000000000000000007FFFFFFFC00
0000000000000000000000001FFFFFFFF800
0000000000000000000000007FFFFFFFF800
000000000000000000000003FFFFFFFFF000
0000000000000000000000FFFFFFFFFFE000
0001FFFFFFFFFFFFFFFFFFFFFFFFFFFFE000
0001FFFFFFFFFFFFFFFFFFFFFFFFFFFFC000
0001FFFFFFFFFFFFFFFFFFFFFFFFFFFF8000
0001FFFFFFFFFFFFFFFFFFFFFFFFFFFF8000
0001FFFFFFFFFFFFFFFFFFFFFFFFFFFF0000
0001FFFFFFFFFFFFFFFFFFFFFFFFFFFE0000
0001FFFFFFFFFFFFFFFFFFFFFFFFFFFC0000
0001FFFFFFFFFFFFFFFFFFFFFFFFFFF80000
0001FFFFFFFFFFFFFFFFFFFFFFFFFFF00000
0001FFFFFFFFFFFFFFFFFFFFFFFFFFE00000
0001FFFFFFFFFFFFFFFFFFFFFFFFFFC00000
0001FFFFFFFFFFFFFFFFFFFFFFFFFF800000
0001FFFFFFFFFFFFFFFFFFFFFFFFFE000000
0001FFFFFFFFFFFFFFFFFFFFFFFFFC000000
0001FFFFFFFFFFFFFFFFFFFFFFFFF0000000
0001FFFFFFFFFFFFFFFFFFFFFFFFE0000000
0001FFFFFFFFFFFFFFFFFFFFFFFF80000000
0001FFFFFFFFFFFFFFFFFFFFFFFE00000000
0001FFFFFFFFFFFFFFFFFFFFFFF000000000
0001FFFFFFFFFFFFFFFFFFFFFF8000000000
0001FFFFFFFFFFFFFFFFFFFFFC0000000000
0001FFFFFFFFFFFFFFFFFFFF800000000000
0001FFFFFFFFFFFFFFFFFFE0000000000000
ENDCHAR
STARTCHAR colon
ENCODING 58
SWIDTH 262 0
DWIDTH 48 0
BBX 25 85 11 0
BITMAP
007F0000
01FFE000
07FFF000
0FFFF800
1FFFFC00
3FFFFE00
3FFFFF00
7FFFFF00
7FFFFF80
7FFFFF80
7FFFFF80
FFFFFF80
FFFFFF80
FFFFFF80
7FFFFF80
7FFFFF80
7FFFFF80
7FFFFF00
3FFFFF00
3FFFFE00
1FFFFE00
0FFFFC00
07FFF000
03FFE000
007F8000
00000000
00000000
00000000
00000000
00000000
00000000
00000000
00000000
00000000
00000000
00000000
00000000
00000000
00000000
00000000
00000000
00000000
00000000
00000000
00000000
00000000
00000000
00000000
00000000
00000000
00000000
00000000
00000000
00000000
00000000
00000000
00000000
00000000
00000000
00000000
007F0000
01FFE000
07FFF000
0FFFF800
1FFFFC00
3FFFFE00
3FFFFF00
7FFFFF00
7FFFFF80
7FFFFF80
7FFFFF80
FFFFFF80
FFFFFF80
FFFFFF80
7FFFFF80
7FFFFF80
7FFFFF80
7FFFFF00
3FFFFF00
3FFFFE00
1FFFFC00
0FFFFC00
07FFF000
01FFE000
007F0000
ENDCHAR
STARTCHAR semicolon
ENCODING 59
SWIDTH 262 0
DWIDTH 48 0
BBX 24 105 12 -21
BITMAP
00FF00
03FFC0
0FFFF0
1FFFF8
3FFFFC
7FFFFC
7FFFFE
FFFFFE
FFFFFF
FFFFFF
FFFFFF
FFFFFF
FFFFFF
FFFFFF
FFFFFF
FFFFFF
FFFFFF
7FFFFE
7FFFFE
3FFFFC
3FFFFC
1FFFF8
0FFFF0
03FFC0
00FF00
000000
000000
000000
000000
000000
000000
000000
000000
000000
000000
000000
000000
000000
000000
000000
000000
000000
000000
000000
000000
000000
000000
000000
000000
000000
000000
000000
000000
000000
000000
000000
000000
000000
FFFFFF
FFFFFE
FFFFFE
FFFFFE
FFFFFE
FFFFFE
FFFFFC
FFFFFC
FFFFFC
FFFFFC
FFFFFC
FFFFF8
FFFFF8
FFFFF8
FFFFF8
FFFFF8
FFFFF0
FFFFF0
FFFFF0
FFFFF0
FFFFF0
FFFFF0
FFFFE0
FFFFE0
FFFFE0
FFFFE0
FFFFE0
FFFFC0
FFFFC0
FFFFC0
FFFFC0
FFFFC0
FFFF80
FFFF80
FFFF80
FFFF80
FFFF80
FFFF00
FFFF00
FFFF00
FFFF00
FFFF00
FFFE00
FFFE00
FFFE00
FFFE00
FFFE00
ENDCHAR
STARTCHAR less
ENCODING 60
SWIDTH 690 0
DWIDTH 126 0
BBX 103 98 11 18
BITMAP
00000000000000000000000002
0000000000000000000000001E
0000000000000000000000007E
000000000000000000000001FE
00000000000000000000000FFE
00000000000000000000003FFE
0000000000000000000001FFFE
0000000000000000000007FFFE
000000000000000000001FFFFE
00000000000000000000FFFFFE
00000000000000000003FFFFFE
0000000000000000000FFFFFFE
0000000000000000007FFFFFFE
000000000000000001FFFFFFFE
00000000000000000FFFFFFFFE
00000000000000003FFFFFFFFE
0000000000000000FFFFFFFFFE
0000000000000007FFFFFFFFF8
000000000000001FFFFFFFFFC0
00000000000000FFFFFFFFFE00
00000000000003FFFFFFFFF800
0000000000000FFFFFFFFFC000
0000000000007FFFFFFFFF0000
000000000001FFFFFFFFF80000
00000000000FFFFFFFFFE00000
00000000003FFFFFFFFF000000
0000000000FFFFFFFFF8000000
0000000007FFFFFFFFE0000000
000000001FFFFFFFFF00000000
00000000FFFFFFFFFC00000000
00000003FFFFFFFFE000000000
0000000FFFFFFFFF8000000000
0000007FFFFFFFFC0000000000
000001FFFFFFFFE00000000000
00000FFFFFFFFF800000000000
00003FFFFFFFFC000000000000
0000FFFFFFFFF0000000000000
0007FFFFFFFF80000000000000
001FFFFFFFFE00000000000000
007FFFFFFFF000000000000000
03FFFFFFFF8000000000000000
0FFFFFFFFE0000000000000000
1FFFFFFFF00000000000000000
3FFFFFFFC00000000000000000
3FFFFFFE000000000000000000
7FFFFFF8000000000000000000
7FFFFFC0000000000000000000
7FFFFF00000000000000000000
FFFFF800000000000000000000
FFFFFC00000000000000000000
7FFFFF00000000000000000000
7FFFFFE0000000000000000000
7FFFFFF8000000000000000000
3FFFFFFF000000000000000000
1FFFFFFFE00000000000000000
0FFFFFFFF80000000000000000
07FFFFFFFF0000000000000000
01FFFFFFFFC000000000000000
007FFFFFFFF800000000000000
000FFFFFFFFE00000000000000
0003FFFFFFFFC0000000000000
00007FFFFFFFF0000000000000
00001FFFFFFFFE000000000000
000007FFFFFFFF800000000000
000000FFFFFFFFF00000000000
0000003FFFFFFFFE0000000000
0000000FFFFFFFFF8000000000
00000001FFFFFFFFF000000000
000000007FFFFFFFFC00000000
000000000FFFFFFFFF80000000
0000000003FFFFFFFFE0000000
0000000000FFFFFFFFFC000000
00000000001FFFFFFFFF000000
000000000007FFFFFFFFE00000
000000000001FFFFFFFFF80000
0000000000003FFFFFFFFF0000
0000000000000FFFFFFFFFE000
00000000000001FFFFFFFFF800
000000000000007FFFFFFFFF00
000000000000001FFFFFFFFFC0
0000000000000003FFFFFFFFF8
0000000000000000FFFFFFFFFE
00000000000000001FFFFFFFFE
000000000000000007FFFFFFFE
000000000000000001FFFFFFFE
0000000000000000003FFFFFFE
0000000000000000000FFFFFFE
00000000000000000001FFFFFE
000000000000000000007FFFFE
000000000000000000001FFFFE
0000000000000000000003FFFE
0000000000000000000000FFFE
00000000000000000000003FFE
000000000000000000000007FE
000000000000000000000001FE
0000000000000000000000003E
0000000000000000000000000E
00000000000000000000000002
ENDCHAR
STARTCHAR equal
ENCODING 61
SWIDTH 690 0
DWIDTH 126 0
BBX 103 64 11 35
BITMAP
FFFFFFFFFFFFFFFFFFFFFFFFFE
FFFFFFFFFFFFFFFFFFFFFFFFFE
FFFFFFFFFFFFFFFFFFFFFFFFFE
FFFFFFFFFFFFFFFFFFFFFFFFFE
FFFFFFFFFFFFFFFFFFFFFFFFFE
FFFFFFFFFFFFFFFFFFFFFFFFFE
FFFFFFFFFFFFFFFFFFFFFFFFFE
FFFFFFFFFFFFFFFFFFFFFFFFFE
FFFFFFFFFFFFFFFFFFFFFFFFFE
FFFFFFFFFFFFFFFFFFFFFFFFFE
FFFFFFFFFFFFFFFFFFFFFFFFFE
FFFFFFFFFFFFFFFFFFFFFFFFFE
FFFFFFFFFFFFFFFFFFFFFFFFFE
FFFFFFFFFFFFFFFFFFFFFFFFFE
FFFFFFFFFFFFFFFFFFFFFFFFFE
00000000000000000000000000
00000000000000000000000000
00000000000000000000000000
00000000000000000000000000
00000000000000000000000000
00000000000000000000000000
00000000000000000000000000
00000000000000000000000000
00000000000000000000000000
00000000000000000000000000
00000000000000000000000000
00000000000000000000000000
00000000000000000000000000
00000000000000000000000000
00000000000000000000000000
00000000000000000000000000
00000000000000000000000000
00000000000000000000000000
00000000000000000000000000
00000000000000000000000000
00000000000000000000000000
00000000000000000000000000
00000000000000000000000000
00000000000000000000000000
00000000000000000000000000
00000000000000000000000000
00000000000000000000000000
00000000000000000000000000
00000000000000000000000000
00000000000000000000000000
00000000000000000000000000
00000000000000000000000000
00000000000000000000000000
00000000000000000000000000
FFFFFFFFFFFFFFFFFFFFFFFFFE
FFFFFFFFFFFFFFFFFFFFFFFFFE
FFFFFFFFFFFFFFFFFFFFFFFFFE
FFFFFFFFFFFFFFFFFFFFFFFFFE
FFFFFFFFFFFFFFFFFFFFFFFFFE
FFFFFFFFFFFFFFFFFFFFFFFFFE
FFFFFFFFFFFFFFFFFFFFFFFFFE
FFFFFFFFFFFFFFFFFFFFFFFFFE
FFFFFFFFFFFFFFFFFFFFFFFFFE
FFFFFFFFFFFFFFFFFFFFFFFFFE
FFFFFFFFFFFFFFFFFFFFFFFFFE
FFFFFFFFFFFFFFFFFFFFFFFFFE
FFFFFFFFFFFFFFFFFFFFFFFFFE
FFFFFFFFFFFFFFFFFFFFFFFFFE
FFFFFFFFFFFFFFFFFFFFFFFFFE
ENDCHAR
STARTCHAR greater
ENCODING 62
SWIDTH 690 0
DWIDTH 126 0
BBX 103 98 11 18
BITMAP
C0000000000000000000000000
F0000000000000000000000000
FE000000000000000000000000
FF800000000000000000000000
FFE00000000000000000000000
FFFC0000000000000000000000
FFFF0000000000000000000000
FFFFE000000000000000000000
FFFFF800000000000000000000
FFFFFE00000000000000000000
FFFFFFC0000000000000000000
FFFFFFF0000000000000000000
FFFFFFFC000000000000000000
FFFFFFFF800000000000000000
FFFFFFFFE00000000000000000
FFFFFFFFFC0000000000000000
FFFFFFFFFF0000000000000000
1FFFFFFFFFC000000000000000
03FFFFFFFFF800000000000000
00FFFFFFFFFE00000000000000
001FFFFFFFFFC0000000000000
0007FFFFFFFFF0000000000000
0000FFFFFFFFFC000000000000
00003FFFFFFFFF800000000000
000007FFFFFFFFE00000000000
000000FFFFFFFFFC0000000000
0000003FFFFFFFFF0000000000
00000007FFFFFFFFC000000000
00000001FFFFFFFFF800000000
000000003FFFFFFFFE00000000
000000000FFFFFFFFFC0000000
0000000001FFFFFFFFF0000000
00000000003FFFFFFFFC000000
00000000000FFFFFFFFF800000
000000000001FFFFFFFFE00000
0000000000007FFFFFFFFC0000
0000000000000FFFFFFFFF0000
00000000000003FFFFFFFFC000
000000000000007FFFFFFFF800
000000000000000FFFFFFFFE00
0000000000000003FFFFFFFF80
00000000000000007FFFFFFFE0
00000000000000001FFFFFFFF0
000000000000000003FFFFFFF8
000000000000000000FFFFFFFC
0000000000000000001FFFFFFC
00000000000000000007FFFFFE
00000000000000000000FFFFFE
000000000000000000001FFFFE
000000000000000000003FFFFE
00000000000000000001FFFFFE
00000000000000000007FFFFFE
0000000000000000003FFFFFFC
000000000000000000FFFFFFFC
000000000000000007FFFFFFF8
00000000000000003FFFFFFFF0
0000000000000000FFFFFFFFE0
0000000000000007FFFFFFFF80
000000000000001FFFFFFFFC00
00000000000000FFFFFFFFF000
00000000000003FFFFFFFF8000
0000000000001FFFFFFFFE0000
0000000000007FFFFFFFF80000
000000000003FFFFFFFFC00000
00000000000FFFFFFFFF000000
00000000007FFFFFFFFC000000
0000000001FFFFFFFFE0000000
000000000FFFFFFFFF80000000
000000007FFFFFFFFC00000000
00000001FFFFFFFFF000000000
0000000FFFFFFFFFC000000000
0000003FFFFFFFFE0000000000
000001FFFFFFFFF80000000000
000007FFFFFFFFC00000000000
00003FFFFFFFFF000000000000
0000FFFFFFFFFC000000000000
0007FFFFFFFFE0000000000000
001FFFFFFFFF80000000000000
00FFFFFFFFFE00000000000000
07FFFFFFFFF000000000000000
1FFFFFFFFFC000000000000000
FFFFFFFFFE0000000000000000
FFFFFFFFF80000000000000000
FFFFFFFFE00000000000000000
FFFFFFFF000000000000000000
FFFFFFFC000000000000000000
FFFFFFE0000000000000000000
FFFFFF80000000000000000000
FFFFFE00000000000000000000
FFFFF000000000000000000000
FFFFC000000000000000000000
FFFF0000000000000000000000
FFF80000000000000000000000
FFE00000000000000000000000
FF000000000000000000000000
FC000000000000000000000000
F0000000000000000000000000
80000000000000000000000000
ENDCHAR
STARTCHAR question
ENCODING 63
SWIDTH 776 0
DWIDTH 141 0
BBX 128 132 8 0
BITMAP
FFFFFFFFFFFFFFFFFFFFFFFE00000000
FFFFFFFFFFFFFFFFFFFFFFFFF8000000
FFFFFFFFFFFFFFFFFFFFFFFFFF000000
FFFFFFFFFFFFFFFFFFFFFFFFFFE00000
FFFFFFFFFFFFFFFFFFFFFFFFFFF80000
FFFFFFFFFFFFFFFFFFFFFFFFFFFE0000
FFFFFFFFFFFFFFFFFFFFFFFFFFFF0000
FFFFFFFFFFFFFFFFFFFFFFFFFFFFC000
FFFFFFFFFFFFFFFFFFFFFFFFFFFFE000
FFFFFFFFFFFFFFFFFFFFFFFFFFFFF800
FFFFFFFFFFFFFFFFFFFFFFFFFFFFFC00
FFFFFFFFFFFFFFFFFFFFFFFFFFFFFE00
FFFFFFFFFFFFFFFFFFFFFFFFFFFFFF00
FFFFFFFFFFFFFFFFFFFFFFFFFFFFFF00
FFFFFFFFFFFFFFFFFFFFFFFFFFFFFF80
FFFFFFFFFFFFFFFFFFFFFFFFFFFFFFC0
FFFFFFFFFFFFFFFFFFFFFFFFFFFFFFC0
FFFFFFFFFFFFFFFFFFFFFFFFFFFFFFE0
FFFFFFFFFFFFFFFFFFFFFFFFFFFFFFF0
FFFFFFFFFFFFFFFFFFFFFFFFFFFFFFF0
FFFFFFFFFFFFFFFFFFFFFFFFFFFFFFF8
FFFFFFFFFFFFFFFFFFFFFFFFFFFFFFF8
FFFFFFFFFFFFFFFFFFFFFFFFFFFFFFF8
00000000000000000000000FFFFFFFFC
000000000000000000000001FFFFFFFC
0000000000000000000000007FFFFFFC
0000000000000000000000001FFFFFFE
0000000000000000000000000FFFFFFE
00000000000000000000000007FFFFFE
00000000000000000000000003FFFFFE
00000000000000000000000003FFFFFE
00000000000000000000000001FFFFFE
00000000000000000000000001FFFFFF
00000000000000000000000001FFFFFF
00000000000000000000000000FFFFFF
00000000000000000000000000FFFFFF
00000000000000000000000000FFFFFF
00000000000000000000000000FFFFFF
00000000000000000000000000FFFFFF
00000000000000000000000000FFFFFF
00000000000000000000000000FFFFFF
00000000000000000000000000FFFFFE
00000000000000000000000000FFFFFE
00000000000000000000000001FFFFFE
00000000000000000000000001FFFFFE
00000000000000000000000001FFFFFE
00000000000000000000000003FFFFFC
00000000000000000000000003FFFFFC
00000000000000000000000007FFFFFC
0000000000000000000000000FFFFFFC
0000000000000000000000001FFFFFF8
0000000000000000000000007FFFFFF8
000000000000000000000000FFFFFFF0
00000000000000000000000FFFFFFFF0
000000001FFFFFFFFFFFFFFFFFFFFFE0
00000003FFFFFFFFFFFFFFFFFFFFFFE0
0000001FFFFFFFFFFFFFFFFFFFFFFFC0
0000007FFFFFFFFFFFFFFFFFFFFFFFC0
000001FFFFFFFFFFFFFFFFFFFFFFFF80
000003FFFFFFFFFFFFFFFFFFFFFFFF00
00000FFFFFFFFFFFFFFFFFFFFFFFFE00
00001FFFFFFFFFFFFFFFFFFFFFFFFC00
00003FFFFFFFFFFFFFFFFFFFFFFFF800
00003FFFFFFFFFFFFFFFFFFFFFFFF000
00007FFFFFFFFFFFFFFFFFFFFFFFE000
0000FFFFFFFFFFFFFFFFFFFFFFFFC000
0000FFFFFFFFFFFFFFFFFFFFFFFF0000
0001FFFFFFFFFFFFFFFFFFFFFFFE0000
0001FFFFFFFFFFFFFFFFFFFFFFF80000
0003FFFFFFFFFFFFFFFFFFFFFFC00000
0003FFFFFFFFFFFFFFFFFFFFFF000000
0007FFFFFFFFFFFFFFFFFFFFF0000000
0007FFFFFFFFFFFFFFFFFFFE00000000
0007FFFFFE0000000000000000000000
0007FFFFF80000000000000000000000
0007FFFFF00000000000000000000000
0007FFFFE00000000000000000000000
000FFFFFE00000000000000000000000
000FFFFFC00000000000000000000000
000FFFFFC00000000000000000000000
000FFFFFC00000000000000000000000
000FFFFFC00000000000000000000000
000FFFFFC00000000000000000000000
000FFFFFC00000000000000000000000
000FFFFFC00000000000000000000000
000FFFFFC00000000000000000000000
000FFFFFC00000000000000000000000
000FFFFFC00000000000000000000000
00000000000000000000000000000000
00000000000000000000000000000000
00000000000000000000000000000000
00000000000000000000000000000000
00000000000000000000000000000000
00000000000000000000000000000000
00000000000000000000000000000000
00000000000000000000000000000000
00000000000000000000000000000000
00000000000000000000000000000000
00000000000000000000000000000000
00000000000000000000000000000000
00000000000000000000000000000000
00000000000000000000000000000000
00000000000000000000000000000000
00000000000000000000000000000000
00000000000000000000000000000000
00000000000000000000000000000000
00000000000000000000000000000000
00000FF0000000000000000000000000
00007FFC000000000000000000000000
0000FFFE000000000000000000000000
0001FFFF800000000000000000000000
0003FFFF800000000000000000000000
0007FFFFC00000000000000000000000
0007FFFFE00000000000000000000000
000FFFFFE00000000000000000000000
000FFFFFF00000000000000000000000
000FFFFFF00000000000000000000000
001FFFFFF00000000000000000000000
001FFFFFF00000000000000000000000
001FFFFFF00000000000000000000000
001FFFFFF00000000000000000000000
001FFFFFF00000000000000000000000
000FFFFFF00000000000000000000000
000FFFFFE00000000000000000000000
000FFFFFE00000000000000000000000
0007FFFFE00000000000000000000000
0007FFFFC00000000000000000000000
0003FFFF800000000000000000000000
0001FFFF800000000000000000000000
0000FFFE000000000000000000000000
00007FFC000000000000000000000000
00000FE0000000000000000000000000
ENDCHAR
STARTCHAR at
ENCODING 64
SWIDTH 833 0
DWIDTH 152 0
BBX 132 132 8 0
BITMAP
000000000000003FFFFFFFFFFFFFFFFFF0
0000000000001FFFFFFFFFFFFFFFFFFFF0
000000000001FFFFFFFFFFFFFFFFFFFFF0
00000000000FFFFFFFFFFFFFFFFFFFFFF0
00000000007FFFFFFFFFFFFFFFFFFFFFF0
0000000001FFFFFFFFFFFFFFFFFFFFFFF0
0000000007FFFFFFFFFFFFFFFFFFFFFFF0
000000001FFFFFFFFFFFFFFFFFFFFFFFF0
000000007FFFFFFFFFFFFFFFFFFFFFFFF0
00000001FFFFFFFFFFFFFFFFFFFFFFFFF0
00000003FFFFFFFFFFFFFFFFFFFFFFFFF0
0000000FFFFFFFFFFFFFFFFFFFFFFFFFF0
0000001FFFFFFFFFFFFFFFFFFFFFFFFFF0
0000007FFFFFFFFFFFFFFFFFFFFFFFFFF0
000000FFFFFFFFFFFFFFFFFFFFFFFFFFF0
000001FFFFFFFFFFFFFFFFFFFFFFFFFFF0
000003FFFFFFFFFFFFFFFFFFFFFFFFFFF0
000007FFFFFFFFC00000000000001FFFF0
00000FFFFFFFF0000000000000001FFFF0
00001FFFFFFF80000000000000001FFFF0
00003FFFFFFC00000000000000001FFFF0
00007FFFFFF000000000000000001FFFF0
0000FFFFFFC000000000000000001FFFF0
0001FFFFFF0000000000000000001FFFF0
0003FFFFFC0000000000000000001FFFF0
0007FFFFF00000000000000000001FFFF0
0007FFFFE00000000000000000001FFFF0
000FFFFFC00000000000000000001FFFF0
001FFFFF000000000000000000001FFFF0
001FFFFE000000000000000000001FFFF0
003FFFFC000000000000000000001FFFF0
007FFFF8000000000000000000001FFFF0
007FFFF0000000000000000000001FFFF0
00FFFFF0000000000000000000001FFFF0
00FFFFE0000000000000000000001FFFF0
01FFFFC0000000000000000000001FFFF0
01FFFF80000000000000000000001FFFF0
03FFFF800000003FFFFFFFFFE0001FFFF0
03FFFF00000003FFFFFFFFFFE0001FFFF0
07FFFE0000000FFFFFFFFFFFE0001FFFF0
07FFFE0000003FFFFFFFFFFFE0001FFFF0
0FFFFC0000007FFFFFFFFFFFE0001FFFF0
0FFFFC000000FFFFFFFFFFFFE0001FFFF0
0FFFF8000003FFFFFFFFFFFFE0001FFFF0
1FFFF8000007FFFFFFFFFFFFE0001FFFF0
1FFFF800000FFFFFFFFFFFFFE0001FFFF0
1FFFF000000FFFFFFFFFFFFFE0001FFFF0
3FFFF000001FFFFFFFFFFFFFE0001FFFF0
3FFFE000003FFFFFFFFFFFFFE0001FFFF0
3FFFE000003FFFFFFFFFFFFFE0001FFFF0
3FFFE000007FFFFE00000FFFE0001FFFF0
7FFFE000007FFFF000000FFFE0001FFFF0
7FFFC00000FFFFE000000FFFE0001FFFF0
7FFFC00000FFFF8000000FFFE0001FFFF0
7FFFC00001FFFF8000000FFFE0001FFFF0
7FFFC00001FFFF0000000FFFE0001FFFF0
FFFFC00001FFFE0000000FFFE0001FFFF0
FFFFC00003FFFE0000000FFFE0001FFFF0
FFFF800003FFFC0000000FFFE0001FFFF0
FFFF800003FFFC0000000FFFE0001FFFF0
FFFF800003FFF80000000FFFE0001FFFF0
FFFF800003FFF80000000FFFE0001FFFF0
FFFF800003FFF80000000FFFE0001FFFF0
FFFF800007FFF80000000FFFE0001FFFF0
FFFF800007FFF80000000FFFE0001FFFF0
FFFF800007FFF80000000FFFE0001FFFF0
FFFF800007FFF80000000FFFE0001FFFF0
FFFF800007FFF80000000FFFE0001FFFF0
FFFF800007FFF80000000FFFE0001FFFF0
FFFF800007FFF80000000FFFE0001FFFF0
FFFF800007FFF80000000FFFE0001FFFF0
FFFF800003FFFC0000000FFFE0001FFFF0
FFFF800003FFFC0000000FFFE0001FFFF0
FFFF800003FFFC0000000FFFE0001FFFF0
FFFF800003FFFE0000000FFFE0001FFFF0
FFFFC00003FFFE0000000FFFE0001FFFF0
FFFFC00001FFFF0000000FFFE0001FFFF0
FFFFC00001FFFF8000000FFFE0001FFFF0
FFFFC00001FFFFC000000FFFE0001FFFF0
7FFFC00000FFFFE000000FFFE0001FFFF0
7FFFE00000FFFFF800000FFFE0001FFFF0
7FFFE00000FFFFFF00000FFFE0001FFFF0
7FFFE000007FFFFFFFFFFFFFFFFFFFFFF0
7FFFF000007FFFFFFFFFFFFFFFFFFFFFF0
3FFFF000003FFFFFFFFFFFFFFFFFFFFFF0
3FFFF000001FFFFFFFFFFFFFFFFFFFFFF0
3FFFF800001FFFFFFFFFFFFFFFFFFFFFF0
3FFFF800000FFFFFFFFFFFFFFFFFFFFFF0
1FFFF8000007FFFFFFFFFFFFFFFFFFFFF0
1FFFFC000003FFFFFFFFFFFFFFFFFFFFF0
1FFFFC000001FFFFFFFFFFFFFFFFFFFFF0
0FFFFE000000FFFFFFFFFFFFFFFFFFFFF0
0FFFFE0000007FFFFFFFFFFFFFFFFFFFF0
0FFFFF0000001FFFFFFFFFFFFFFFFFFFF0
07FFFF8000000FFFFFFFFFFFFFFFFFFFF0
07FFFF80000001FFFFFFFFFFFFFFFFFFF0
03FFFFC00000003FFFFFFFFFFFFFFFFFF0
03FFFFE000000000000000000000000000
01FFFFF000000000000000000000000000
01FFFFF000000000000000000000000000
00FFFFF800000000000000000000000000
00FFFFFC00000000000000000000000000
007FFFFE00000000000000000000000000
003FFFFF00000000000000000000000000
003FFFFFC0000000000000000000000000
001FFFFFE0000000000000000000000000
000FFFFFF0000000000000000000000000
000FFFFFFC000000000000000000000000
0007FFFFFF000000000000000000000000
0003FFFFFF800000000000000000000000
0001FFFFFFF00000000000000000000000
0000FFFFFFFC0000000000000000000000
00007FFFFFFF8000000000000000000000
00003FFFFFFFF000000000000000000000
00001FFFFFFFFFC0000000000000000000
00000FFFFFFFFFFFFFFFFFFFFFFFFFFFF0
000007FFFFFFFFFFFFFFFFFFFFFFFFFFF0
000003FFFFFFFFFFFFFFFFFFFFFFFFFFF0
000001FFFFFFFFFFFFFFFFFFFFFFFFFFF0
0000007FFFFFFFFFFFFFFFFFFFFFFFFFF0
0000003FFFFFFFFFFFFFFFFFFFFFFFFFF0
0000000FFFFFFFFFFFFFFFFFFFFFFFFFF0
00000007FFFFFFFFFFFFFFFFFFFFFFFFF0
00000001FFFFFFFFFFFFFFFFFFFFFFFFF0
000000007FFFFFFFFFFFFFFFFFFFFFFFF0
000000001FFFFFFFFFFFFFFFFFFFFFFFF0
0000000007FFFFFFFFFFFFFFFFFFFFFFF0
0000000000FFFFFFFFFFFFFFFFFFFFFFF0
00000000001FFFFFFFFFFFFFFFFFFFFFF0
000000000003FFFFFFFFFFFFFFFFFFFFF0
0000000000003FFFFFFFFFFFFFFFFFFFF0
000000000000007FFFFFFFFFFFFFFFFFF0
ENDCHAR
STARTCHAR A
ENCODING 65
SWIDTH 989 0
DWIDTH 180 0
BBX 174 134 3 0
BITMAP
000000000000000000001FC000000000000000000000
000000000000000000007FF800000000000000000000
00000000000000000000FFFC00000000000000000000
00000000000000000001FFFE00000000000000000000
00000000000000000003FFFF00000000000000000000
00000000000000000007FFFF80000000000000000000
0000000000000000000FFFFF80000000000000000000
0000000000000000000FFFFFC0000000000000000000
0000000000000000001FFFFFE0000000000000000000
0000000000000000003FFFFFE0000000000000000000
0000000000000000003FFFFFF0000000000000000000
0000000000000000007FFFFFF0000000000000000000
0000000000000000007FFFFFF8000000000000000000
000000000000000000FFFFFFFC000000000000000000
000000000000000001FFFFFFFC000000000000000000
000000000000000001FFFFFFFE000000000000000000
000000000000000003FFFFFFFE000000000000000000
000000000000000003FFFFFFFF000000000000000000
000000000000000007FFFFFFFF800000000000000000
00000000000000000FFFFFFFFF800000000000000000
00000000000000000FFFFFFFFFC00000000000000000
00000000000000001FFFFFFFFFC00000000000000000
00000000000000001FFFFFFFFFE00000000000000000
00000000000000003FFFFFFFFFF00000000000000000
00000000000000007FFFFFFFFFF00000000000000000
00000000000000007FFFFFFFFFF80000000000000000
0000000000000000FFFFFFFFFFFC0000000000000000
0000000000000000FFFFFFFFFFFC0000000000000000
0000000000000001FFFFFFFFFFFE0000000000000000
0000000000000003FFFFFFFFFFFE0000000000000000
0000000000000003FFFFFFFFFFFF0000000000000000
0000000000000007FFFFFFFFFFFF8000000000000000
0000000000000007FFFFFFFFFFFF8000000000000000
000000000000000FFFFFF9FFFFFFC000000000000000
000000000000001FFFFFF9FFFFFFC000000000000000
000000000000001FFFFFF0FFFFFFE000000000000000
000000000000003FFFFFF0FFFFFFF000000000000000
000000000000003FFFFFE07FFFFFF000000000000000
000000000000007FFFFFE03FFFFFF800000000000000
00000000000000FFFFFFC03FFFFFF800000000000000
00000000000000FFFFFF801FFFFFFC00000000000000
00000000000001FFFFFF801FFFFFFE00000000000000
00000000000001FFFFFF000FFFFFFE00000000000000
00000000000003FFFFFF000FFFFFFF00000000000000
00000000000007FFFFFE0007FFFFFF00000000000000
00000000000007FFFFFC0003FFFFFF80000000000000
0000000000000FFFFFFC0003FFFFFFC0000000000000
0000000000000FFFFFF80001FFFFFFC0000000000000
0000000000001FFFFFF80001FFFFFFE0000000000000
0000000000003FFFFFF00000FFFFFFE0000000000000
0000000000003FFFFFE000007FFFFFF0000000000000
0000000000007FFFFFE000007FFFFFF8000000000000
0000000000007FFFFFC000003FFFFFF8000000000000
000000000000FFFFFFC000003FFFFFFC000000000000
000000000001FFFFFF8000001FFFFFFC000000000000
000000000001FFFFFF0000000FFFFFFE000000000000
000000000003FFFFFF0000000FFFFFFF000000000000
000000000003FFFFFE00000007FFFFFF000000000000
000000000007FFFFFE00000007FFFFFF800000000000
00000000000FFFFFFC00000003FFFFFF800000000000
00000000000FFFFFF800000001FFFFFFC00000000000
00000000001FFFFFF800000001FFFFFFE00000000000
00000000001FFFFFF000000000FFFFFFE00000000000
00000000003FFFFFF000000000FFFFFFF00000000000
00000000007FFFFFE0000000007FFFFFF00000000000
00000000007FFFFFE0000000003FFFFFF80000000000
0000000000FFFFFFC0000000003FFFFFFC0000000000
0000000000FFFFFF80000000001FFFFFFC0000000000
0000000001FFFFFF80000000001FFFFFFE0000000000
0000000003FFFFFF00000000000FFFFFFE0000000000
0000000003FFFFFF000000000007FFFFFF0000000000
0000000007FFFFFE000000000007FFFFFF8000000000
0000000007FFFFFC000000000003FFFFFF8000000000
000000000FFFFFFC000000000003FFFFFFC000000000
000000001FFFFFF8000000000001FFFFFFC000000000
000000001FFFFFF8000000000000FFFFFFE000000000
000000003FFFFFF0000000000000FFFFFFF000000000
000000007FFFFFE00000000000007FFFFFF000000000
000000007FFFFFE00000000000007FFFFFF800000000
00000000FFFFFFC00000000000003FFFFFF800000000
00000000FFFFFFC00000000000001FFFFFFC00000000
00000001FFFFFF800000000000001FFFFFFE00000000
00000003FFFFFF00001FFFFFFFFFFFFFFFFE00000000
00000003FFFFFF00003FFFFFFFFFFFFFFFFF00000000
00000007FFFFFE00007FFFFFFFFFFFFFFFFF00000000
00000007FFFFFE00007FFFFFFFFFFFFFFFFF80000000
0000000FFFFFFC0000FFFFFFFFFFFFFFFFFFC0000000
0000001FFFFFF80000FFFFFFFFFFFFFFFFFFC0000000
0000001FFFFFF80001FFFFFFFFFFFFFFFFFFE0000000
0000003FFFFFF00001FFFFFFFFFFFFFFFFFFE0000000
0000003FFFFFF00003FFFFFFFFFFFFFFFFFFF0000000
0000007FFFFFE00007FFFFFFFFFFFFFFFFFFF8000000
000000FFFFFFE00007FFFFFFFFFFFFFFFFFFF8000000
000000FFFFFFC0000FFFFFFFFFFFFFFFFFFFFC000000
000001FFFFFF80000FFFFFFFFFFFFFFFFFFFFC000000
000001FFFFFF80001FFFFFFFFFFFFFFFFFFFFE000000
000003FFFFFF00001FFFFFFFFFFFFFFFFFFFFF000000
000007FFFFFF00003FFFFFFFFFFFFFFFFFFFFF000000
000007FFFFFE00007FFFFFFFFFFFFFFFFFFFFF800000
00000FFFFFFC00007FFFFFFFFFFFFFFFFFFFFF800000
00000FFFFFFC0000FFFFFFFFFFFFFFFFFFFFFFC00000
00001FFFFFF800000000000000000001FFFFFFE00000
00003FFFFFF800000000000000000001FFFFFFE00000
00003FFFFFF000000000000000000000FFFFFFF00000
00007FFFFFE0000000000000000000007FFFFFF80000
00007FFFFFE0000000000000000000007FFFFFF80000
0000FFFFFFC0000000000000000000003FFFFFFC0000
0001FFFFFFC0000000000000000000003FFFFFFC0000
0001FFFFFF80000000000000000000001FFFFFFE0000
0003FFFFFF00000000000000000000000FFFFFFF0000
0003FFFFFF00000000000000000000000FFFFFFF0000
0007FFFFFE000000000000000000000007FFFFFF8000
000FFFFFFE000000000000000000000007FFFFFF8000
000FFFFFFC000000000000000000000003FFFFFFC000
001FFFFFFC000000000000000000000001FFFFFFE000
001FFFFFF8000000000000000000000001FFFFFFE000
003FFFFFF0000000000000000000000000FFFFFFF000
007FFFFFF00000000000000000000000007FFFFFF000
007FFFFFE00000000000000000000000007FFFFFF800
00FFFFFFE00000000000000000000000003FFFFFFC00
00FFFFFFC00000000000000000000000003FFFFFFC00
01FFFFFF800000000000000000000000001FFFFFFE00
03FFFFFF800000000000000000000000001FFFFFFE00
03FFFFFF000000000000000000000000000FFFFFFF00
07FFFFFF0000000000000000000000000007FFFFFF80
07FFFFFE0000000000000000000000000007FFFFFF80
0FFFFFFC0000000000000000000000000003FFFFFFC0
1FFFFFFC0000000000000000000000000001FFFFFFC0
1FFFFFF80000000000000000000000000001FFFFFFE0
3FFFFFF80000000000000000000000000000FFFFFFF0
3FFFFFF00000000000000000000000000000FFFFFFF0
7FFFFFE000000000000000000000000000007FFFFFF8
FFFFFFE000000000000000000000000000003FFFFFF8
FFFFFFC000000000000000000000000000003FFFFFFC
ENDCHAR
STARTCHAR B
ENCODING 66
SWIDTH 891 0
DWIDTH 162 0
BBX 142 132 11 0
BITMAP
FFFFFFFFFFFFFFFFFFFFFFFFFFC000000000
FFFFFFFFFFFFFFFFFFFFFFFFFFFF00000000
FFFFFFFFFFFFFFFFFFFFFFFFFFFFF0000000
FFFFFFFFFFFFFFFFFFFFFFFFFFFFFE000000
FFFFFFFFFFFFFFFFFFFFFFFFFFFFFF800000
FFFFFFFFFFFFFFFFFFFFFFFFFFFFFFE00000
FFFFFFFFFFFFFFFFFFFFFFFFFFFFFFF80000
FFFFFFFFFFFFFFFFFFFFFFFFFFFFFFFE0000
FFFFFFFFFFFFFFFFFFFFFFFFFFFFFFFF0000
FFFFFFFFFFFFFFFFFFFFFFFFFFFFFFFF8000
FFFFFFFFFFFFFFFFFFFFFFFFFFFFFFFFE000
FFFFFFFFFFFFFFFFFFFFFFFFFFFFFFFFF000
FFFFFFFFFFFFFFFFFFFFFFFFFFFFFFFFF000
FFFFFFFFFFFFFFFFFFFFFFFFFFFFFFFFF800
FFFFFFFFFFFFFFFFFFFFFFFFFFFFFFFFFC00
FFFFFFFFFFFFFFFFFFFFFFFFFFFFFFFFFE00
FFFFFFFFFFFFFFFFFFFFFFFFFFFFFFFFFE00
FFFFFFFFFFFFFFFFFFFFFFFFFFFFFFFFFF00
FFFFFFFFFFFFFFFFFFFFFFFFFFFFFFFFFF80
FFFFFFFFFFFFFFFFFFFFFFFFFFFFFFFFFF80
FFFFFFFFFFFFFFFFFFFFFFFFFFFFFFFFFFC0
FFFFFFFFFFFFFFFFFFFFFFFFFFFFFFFFFFC0
FFFFFFFFFFFFFFFFFFFFFFFFFFFFFFFFFFC0
FFFFFE0000000000000000003FFFFFFFFFE0
FFFFFE000000000000000000007FFFFFFFE0
FFFFFE000000000000000000000FFFFFFFE0
FFFFFE0000000000000000000003FFFFFFE0
FFFFFE0000000000000000000000FFFFFFF0
FFFFFE00000000000000000000007FFFFFF0
FFFFFE00000000000000000000003FFFFFF0
FFFFFE00000000000000000000003FFFFFF0
FFFFFE00000000000000000000001FFFFFF0
FFFFFE00000000000000000000001FFFFFF0
FFFFFE00000000000000000000000FFFFFF0
FFFFFE00000000000000000000000FFFFFF0
FFFFFE00000000000000000000000FFFFFF0
FFFFFE00000000000000000000000FFFFFF0
FFFFFE000000000000000000000007FFFFF0
FFFFFE000000000000000000000007FFFFF0
FFFFFE000000000000000000000007FFFFF0
FFFFFE000000000000000000000007FFFFF0
FFFFFE00000000000000000000000FFFFFE0
FFFFFE00000000000000000000000FFFFFE0
FFFFFE00000000000000000000000FFFFFE0
FFFFFE00000000000000000000000FFFFFE0
FFFFFE00000000000000000000000FFFFFC0
FFFFFE00000000000000000000001FFFFFC0
FFFFFE00000000000000000000001FFFFFC0
FFFFFE00000000000000000000003FFFFF80
FFFFFE00000000000000000000003FFFFF80
FFFFFE00000000000000000000007FFFFF00
FFFFFE0000000000000000000000FFFFFF00
FFFFFE0000000000000000000003FFFFFE00
FFFFFE000000000000000000000FFFFFFC00
FFFFFE00000000000000000000FFFFFFF800
FFFFFE0000FFFFFFFFFFFFFFFFFFFFFFF000
FFFFFE0000FFFFFFFFFFFFFFFFFFFFFFE000
FFFFFE0000FFFFFFFFFFFFFFFFFFFFFFC000
FFFFFE0000FFFFFFFFFFFFFFFFFFFFFF8000
FFFFFE0000FFFFFFFFFFFFFFFFFFFFFE0000
FFFFFE0000FFFFFFFFFFFFFFFFFFFFFC0000
FFFFFE0000FFFFFFFFFFFFFFFFFFFFE00000
FFFFFE0000FFFFFFFFFFFFFFFFFFFFE00000
FFFFFE0000FFFFFFFFFFFFFFFFFFFFF80000
FFFFFE0000FFFFFFFFFFFFFFFFFFFFFE0000
FFFFFE0000FFFFFFFFFFFFFFFFFFFFFF8000
FFFFFE0000FFFFFFFFFFFFFFFFFFFFFFC000
FFFFFE0000FFFFFFFFFFFFFFFFFFFFFFF000
FFFFFE0000FFFFFFFFFFFFFFFFFFFFFFF800
FFFFFE0000FFFFFFFFFFFFFFFFFFFFFFFC00
FFFFFE0000FFFFFFFFFFFFFFFFFFFFFFFE00
FFFFFE0000FFFFFFFFFFFFFFFFFFFFFFFF00
FFFFFE0000FFFFFFFFFFFFFFFFFFFFFFFF80
FFFFFE0000FFFFFFFFFFFFFFFFFFFFFFFF80
FFFFFE000000000000000000007FFFFFFFC0
FFFFFE0000000000000000000007FFFFFFC0
FFFFFE0000000000000000000001FFFFFFE0
FFFFFE00000000000000000000007FFFFFF0
FFFFFE00000000000000000000003FFFFFF0
FFFFFE00000000000000000000001FFFFFF0
FFFFFE00000000000000000000000FFFFFF8
FFFFFE00000000000000000000000FFFFFF8
FFFFFE000000000000000000000007FFFFF8
FFFFFE000000000000000000000007FFFFFC
FFFFFE000000000000000000000003FFFFFC
FFFFFE000000000000000000000003FFFFFC
FFFFFE000000000000000000000003FFFFFC
FFFFFE000000000000000000000001FFFFFC
FFFFFE000000000000000000000001FFFFFC
FFFFFE000000000000000000000001FFFFFC
FFFFFE000000000000000000000001FFFFFC
FFFFFE000000000000000000000001FFFFFC
FFFFFE000000000000000000000001FFFFFC
FFFFFE000000000000000000000001FFFFFC
FFFFFE000000000000000000000001FFFFFC
FFFFFE000000000000000000000003FFFFFC
FFFFFE000000000000000000000003FFFFFC
FFFFFE000000000000000000000003FFFFFC
FFFFFE000000000000000000000007FFFFFC
FFFFFE000000000000000000000007FFFFFC
FFFFFE00000000000000000000000FFFFFFC
FFFFFE00000000000000000000001FFFFFFC
FFFFFE00000000000000000000003FFFFFF8
FFFFFE00000000000000000000007FFFFFF8
FFFFFE0000000000000000000000FFFFFFF8
FFFFFE0000000000000000000003FFFFFFF0
FFFFFE000000000000000000000FFFFFFFF0
FFFFFE00000000000000000000FFFFFFFFF0
FFFFFE0000000000000000001FFFFFFFFFE0
FFFFFFFFFFFFFFFFFFFFFFFFFFFFFFFFFFE0
FFFFFFFFFFFFFFFFFFFFFFFFFFFFFFFFFFC0
FFFFFFFFFFFFFFFFFFFFFFFFFFFFFFFFFFC0
FFFFFFFFFFFFFFFFFFFFFFFFFFFFFFFFFF80
FFFFFFFFFFFFFFFFFFFFFFFFFFFFFFFFFF80
FFFFFFFFFFFFFFFFFFFFFFFFFFFFFFFFFF00
FFFFFFFFFFFFFFFFFFFFFFFFFFFFFFFFFF00
FFFFFFFFFFFFFFFFFFFFFFFFFFFFFFFFFE00
FFFFFFFFFFFFFFFFFFFFFFFFFFFFFFFFFC00
FFFFFFFFFFFFFFFFFFFFFFFFFFFFFFFFF800
FFFFFFFFFFFFFFFFFFFFFFFFFFFFFFFFF000
FFFFFFFFFFFFFFFFFFFFFFFFFFFFFFFFE000
FFFFFFFFFFFFFFFFFFFFFFFFFFFFFFFFC000
FFFFFFFFFFFFFFFFFFFFFFFFFFFFFFFF8000
FFFFFFFFFFFFFFFFFFFFFFFFFFFFFFFF0000
FFFFFFFFFFFFFFFFFFFFFFFFFFFFFFFE0000
FFFFFFFFFFFFFFFFFFFFFFFFFFFFFFF80000
FFFFFFFFFFFFFFFFFFFFFFFFFFFFFFE00000
FFFFFFFFFFFFFFFFFFFFFFFFFFFFFFC00000
FFFFFFFFFFFFFFFFFFFFFFFFFFFFFE000000
FFFFFFFFFFFFFFFFFFFFFFFFFFFFF0000000
FFFFFFFFFFFFFFFFFFFFFFFFFFFF80000000
FFFFFFFFFFFFFFFFFFFFFFFFFFF000000000
ENDCHAR
STARTCHAR C
ENCODING 67
SWIDTH 829 0
DWIDTH 151 0
BBX 136 132 8 0
BITMAP
00000000000001FFFFFFFFFFFFFFFFFFFF
0000000000007FFFFFFFFFFFFFFFFFFFFF
000000000007FFFFFFFFFFFFFFFFFFFFFF
00000000007FFFFFFFFFFFFFFFFFFFFFFF
0000000001FFFFFFFFFFFFFFFFFFFFFFFF
000000000FFFFFFFFFFFFFFFFFFFFFFFFF
000000003FFFFFFFFFFFFFFFFFFFFFFFFF
00000000FFFFFFFFFFFFFFFFFFFFFFFFFF
00000003FFFFFFFFFFFFFFFFFFFFFFFFFF
0000000FFFFFFFFFFFFFFFFFFFFFFFFFFF
0000001FFFFFFFFFFFFFFFFFFFFFFFFFFF
0000007FFFFFFFFFFFFFFFFFFFFFFFFFFF
000000FFFFFFFFFFFFFFFFFFFFFFFFFFFF
000001FFFFFFFFFFFFFFFFFFFFFFFFFFFF
000007FFFFFFFFFFFFFFFFFFFFFFFFFFFF
00000FFFFFFFFFFFFFFFFFFFFFFFFFFFFF
00001FFFFFFFFFFFFFFFFFFFFFFFFFFFFF
00003FFFFFFFFFFFFFFFFFFFFFFFFFFFFF
00007FFFFFFFFFFFFFFFFFFFFFFFFFFFFF
0000FFFFFFFFFFFFFFFFFFFFFFFFFFFFFF
0001FFFFFFFFFFFFFFFFFFFFFFFFFFFFFF
0003FFFFFFFFFFFFFFFFFFFFFFFFFFFFFF
0003FFFFFFFFFFFFFFFFFFFFFFFFFFFFFF
0007FFFFFFFFFFC0000000000000000000
000FFFFFFFFFF000000000000000000000
001FFFFFFFFF8000000000000000000000
001FFFFFFFFE0000000000000000000000
003FFFFFFFF80000000000000000000000
007FFFFFFFE00000000000000000000000
007FFFFFFF800000000000000000000000
00FFFFFFFF000000000000000000000000
00FFFFFFFC000000000000000000000000
01FFFFFFF8000000000000000000000000
01FFFFFFF0000000000000000000000000
03FFFFFFE0000000000000000000000000
03FFFFFFC0000000000000000000000000
07FFFFFF80000000000000000000000000
07FFFFFF00000000000000000000000000
0FFFFFFE00000000000000000000000000
0FFFFFFE00000000000000000000000000
0FFFFFFC00000000000000000000000000
1FFFFFF800000000000000000000000000
1FFFFFF800000000000000000000000000
1FFFFFF000000000000000000000000000
3FFFFFF000000000000000000000000000
3FFFFFE000000000000000000000000000
3FFFFFE000000000000000000000000000
7FFFFFC000000000000000000000000000
7FFFFFC000000000000000000000000000
7FFFFF8000000000000000000000000000
7FFFFF8000000000000000000000000000
7FFFFF8000000000000000000000000000
7FFFFF8000000000000000000000000000
FFFFFF0000000000000000000000000000
FFFFFF0000000000000000000000000000
FFFFFF0000000000000000000000000000
FFFFFF0000000000000000000000000000
FFFFFE0000000000000000000000000000
FFFFFE0000000000000000000000000000
FFFFFE0000000000000000000000000000
FFFFFE0000000000000000000000000000
FFFFFE0000000000000000000000000000
FFFFFE0000000000000000000000000000
FFFFFE0000000000000000000000000000
FFFFFE0000000000000000000000000000
FFFFFE0000000000000000000000000000
FFFFFE0000000000000000000000000000
FFFFFE0000000000000000000000000000
FFFFFE0000000000000000000000000000
FFFFFE0000000000000000000000000000
FFFFFE0000000000000000000000000000
FFFFFE0000000000000000000000000000
FFFFFE0000000000000000000000000000
FFFFFE0000000000000000000000000000
FFFFFE0000000000000000000000000000
FFFFFF0000000000000000000000000000
FFFFFF0000000000000000000000000000
7FFFFF0000000000000000000000000000
7FFFFF0000000000000000000000000000
7FFFFF8000000000000000000000000000
7FFFFF8000000000000000000000000000
7FFFFF8000000000000000000000000000
3FFFFFC000000000000000000000000000
3FFFFFC000000000000000000000000000
3FFFFFC000000000000000000000000000
3FFFFFE000000000000000000000000000
1FFFFFE000000000000000000000000000
1FFFFFF000000000000000000000000000
1FFFFFF000000000000000000000000000
0FFFFFF800000000000000000000000000
0FFFFFFC00000000000000000000000000
07FFFFFC00000000000000000000000000
07FFFFFE00000000000000000000000000
07FFFFFF00000000000000000000000000
03FFFFFF00000000000000000000000000
03FFFFFF80000000000000000000000000
01FFFFFFC0000000000000000000000000
01FFFFFFE0000000000000000000000000
00FFFFFFF0000000000000000000000000
00FFFFFFF8000000000000000000000000
007FFFFFFE000000000000000000000000
007FFFFFFF000000000000000000000000
003FFFFFFF800000000000000000000000
001FFFFFFFE00000000000000000000000
001FFFFFFFF80000000000000000000000
000FFFFFFFFE0000000000000000000000
0007FFFFFFFFC000000000000000000000
0007FFFFFFFFF800000000000000000000
0003FFFFFFFFFFC0000000000000000000
0001FFFFFFFFFFFFFFFFFFFFFFFFFFFFFF
0000FFFFFFFFFFFFFFFFFFFFFFFFFFFFFF
00007FFFFFFFFFFFFFFFFFFFFFFFFFFFFF
00003FFFFFFFFFFFFFFFFFFFFFFFFFFFFF
00001FFFFFFFFFFFFFFFFFFFFFFFFFFFFF
00000FFFFFFFFFFFFFFFFFFFFFFFFFFFFF
000007FFFFFFFFFFFFFFFFFFFFFFFFFFFF
000003FFFFFFFFFFFFFFFFFFFFFFFFFFFF
000001FFFFFFFFFFFFFFFFFFFFFFFFFFFF
000000FFFFFFFFFFFFFFFFFFFFFFFFFFFF
0000003FFFFFFFFFFFFFFFFFFFFFFFFFFF
0000001FFFFFFFFFFFFFFFFFFFFFFFFFFF
00000007FFFFFFFFFFFFFFFFFFFFFFFFFF
00000003FFFFFFFFFFFFFFFFFFFFFFFFFF
00000000FFFFFFFFFFFFFFFFFFFFFFFFFF
000000007FFFFFFFFFFFFFFFFFFFFFFFFF
000000001FFFFFFFFFFFFFFFFFFFFFFFFF
0000000003FFFFFFFFFFFFFFFFFFFFFFFF
0000000000FFFFFFFFFFFFFFFFFFFFFFFF
00000000003FFFFFFFFFFFFFFFFFFFFFFF
000000000003FFFFFFFFFFFFFFFFFFFFFF
0000000000007FFFFFFFFFFFFFFFFFFFFF
00000000000000FFFFFFFFFFFFFFFFFFFF
ENDCHAR
STARTCHAR D
ENCODING 68
SWIDTH 879 0
DWIDTH 160 0
BBX 142 132 11 0
BITMAP
FFFFFFFFFFFFFFFFFFFFFC00000000000000
FFFFFFFFFFFFFFFFFFFFFFF0000000000000
FFFFFFFFFFFFFFFFFFFFFFFF000000000000
FFFFFFFFFFFFFFFFFFFFFFFFF00000000000
FFFFFFFFFFFFFFFFFFFFFFFFFC0000000000
FFFFFFFFFFFFFFFFFFFFFFFFFF8000000000
FFFFFFFFFFFFFFFFFFFFFFFFFFE000000000
FFFFFFFFFFFFFFFFFFFFFFFFFFF800000000
FFFFFFFFFFFFFFFFFFFFFFFFFFFE00000000
FFFFFFFFFFFFFFFFFFFFFFFFFFFF80000000
FFFFFFFFFFFFFFFFFFFFFFFFFFFFC0000000
FFFFFFFFFFFFFFFFFFFFFFFFFFFFF0000000
FFFFFFFFFFFFFFFFFFFFFFFFFFFFF8000000
FFFFFFFFFFFFFFFFFFFFFFFFFFFFFC000000
FFFFFFFFFFFFFFFFFFFFFFFFFFFFFF000000
FFFFFFFFFFFFFFFFFFFFFFFFFFFFFF800000
FFFFFFFFFFFFFFFFFFFFFFFFFFFFFFC00000
FFFFFFFFFFFFFFFFFFFFFFFFFFFFFFE00000
FFFFFFFFFFFFFFFFFFFFFFFFFFFFFFF00000
FFFFFFFFFFFFFFFFFFFFFFFFFFFFFFF80000
FFFFFFFFFFFFFFFFFFFFFFFFFFFFFFFC0000
FFFFFFFFFFFFFFFFFFFFFFFFFFFFFFFE0000
FFFFFFFFFFFFFFFFFFFFFFFFFFFFFFFE0000
FFFFFE000000000000001FFFFFFFFFFF0000
FFFFFE0000000000000000FFFFFFFFFF8000
FFFFFE00000000000000000FFFFFFFFFC000
FFFFFE000000000000000003FFFFFFFFC000
FFFFFE000000000000000000FFFFFFFFE000
FFFFFE0000000000000000003FFFFFFFF000
FFFFFE0000000000000000000FFFFFFFF000
FFFFFE00000000000000000007FFFFFFF800
FFFFFE00000000000000000001FFFFFFF800
FFFFFE00000000000000000000FFFFFFFC00
FFFFFE000000000000000000007FFFFFFC00
FFFFFE000000000000000000003FFFFFFE00
FFFFFE000000000000000000001FFFFFFE00
FFFFFE000000000000000000000FFFFFFF00
FFFFFE0000000000000000000007FFFFFF00
FFFFFE0000000000000000000003FFFFFF80
FFFFFE0000000000000000000003FFFFFF80
FFFFFE0000000000000000000001FFFFFF80
FFFFFE0000000000000000000000FFFFFFC0
FFFFFE0000000000000000000000FFFFFFC0
FFFFFE00000000000000000000007FFFFFC0
FFFFFE00000000000000000000007FFFFFE0
FFFFFE00000000000000000000003FFFFFE0
FFFFFE00000000000000000000003FFFFFE0
FFFFFE00000000000000000000001FFFFFF0
FFFFFE00000000000000000000001FFFFFF0
FFFFFE00000000000000000000000FFFFFF0
FFFFFE00000000000000000000000FFFFFF0
FFFFFE00000000000000000000000FFFFFF0
FFFFFE000000000000000000000007FFFFF8
FFFFFE000000000000000000000007FFFFF8
FFFFFE000000000000000000000007FFFFF8
FFFFFE000000000000000000000007FFFFF8
FFFFFE000000000000000000000003FFFFF8
FFFFFE000000000000000000000003FFFFF8
FFFFFE000000000000000000000003FFFFF8
FFFFFE000000000000000000000003FFFFF8
FFFFFE000000000000000000000003FFFFF8
FFFFFE000000000000000000000003FFFFF8
FFFFFE000000000000000000000003FFFFF8
FFFFFE000000000000000000000003FFFFF8
FFFFFE000000000000000000000003FFFFFC
FFFFFE000000000000000000000003FFFFFC
FFFFFE000000000000000000000003FFFFF8
FFFFFE000000000000000000000003FFFFF8
FFFFFE000000000000000000000003FFFFF8
FFFFFE000000000000000000000003FFFFF8
FFFFFE000000000000000000000003FFFFF8
FFFFFE000000000000000000000003FFFFF8
FFFFFE000000000000000000000003FFFFF8
FFFFFE000000000000000000000003FFFFF8
FFFFFE000000000000000000000003FFFFF8
FFFFFE000000000000000000000007FFFFF8
FFFFFE000000000000000000000007FFFFF8
FFFFFE000000000000000000000007FFFFF0
FFFFFE000000000000000000000007FFFFF0
FFFFFE00000000000000000000000FFFFFF0
FFFFFE00000000000000000000000FFFFFF0
FFFFFE00000000000000000000000FFFFFF0
FFFFFE00000000000000000000001FFFFFE0
FFFFFE00000000000000000000001FFFFFE0
FFFFFE00000000000000000000001FFFFFE0
FFFFFE00000000000000000000003FFFFFE0
FFFFFE00000000000000000000003FFFFFC0
FFFFFE00000000000000000000007FFFFFC0
FFFFFE00000000000000000000007FFFFFC0
FFFFFE0000000000000000000000FFFFFF80
FFFFFE0000000000000000000000FFFFFF80
FFFFFE0000000000000000000001FFFFFF80
FFFFFE0000000000000000000003FFFFFF00
FFFFFE0000000000000000000007FFFFFF00
FFFFFE0000000000000000000007FFFFFE00
FFFFFE000000000000000000000FFFFFFE00
FFFFFE000000000000000000001FFFFFFC00
FFFFFE000000000000000000003FFFFFFC00
FFFFFE000000000000000000007FFFFFF800
FFFFFE00000000000000000000FFFFFFF800
FFFFFE00000000000000000003FFFFFFF000
FFFFFE00000000000000000007FFFFFFF000
FFFFFE0000000000000000000FFFFFFFE000
FFFFFE0000000000000000003FFFFFFFE000
FFFFFE000000000000000000FFFFFFFFC000
FFFFFE000000000000000003FFFFFFFF8000
FFFFFE00000000000000001FFFFFFFFF0000
FFFFFE0000000000000000FFFFFFFFFF0000
FFFFFE000000000000001FFFFFFFFFFE0000
FFFFFFFFFFFFFFFFFFFFFFFFFFFFFFFC0000
FFFFFFFFFFFFFFFFFFFFFFFFFFFFFFF80000
FFFFFFFFFFFFFFFFFFFFFFFFFFFFFFF00000
FFFFFFFFFFFFFFFFFFFFFFFFFFFFFFE00000
FFFFFFFFFFFFFFFFFFFFFFFFFFFFFFC00000
FFFFFFFFFFFFFFFFFFFFFFFFFFFFFF800000
FFFFFFFFFFFFFFFFFFFFFFFFFFFFFF000000
FFFFFFFFFFFFFFFFFFFFFFFFFFFFFE000000
FFFFFFFFFFFFFFFFFFFFFFFFFFFFFC000000
FFFFFFFFFFFFFFFFFFFFFFFFFFFFF8000000
FFFFFFFFFFFFFFFFFFFFFFFFFFFFF0000000
FFFFFFFFFFFFFFFFFFFFFFFFFFFFC0000000
FFFFFFFFFFFFFFFFFFFFFFFFFFFF80000000
FFFFFFFFFFFFFFFFFFFFFFFFFFFE00000000
FFFFFFFFFFFFFFFFFFFFFFFFFFFC00000000
FFFFFFFFFFFFFFFFFFFFFFFFFFF000000000
FFFFFFFFFFFFFFFFFFFFFFFFFFC000000000
FFFFFFFFFFFFFFFFFFFFFFFFFF0000000000
FFFFFFFFFFFFFFFFFFFFFFFFF80000000000
FFFFFFFFFFFFFFFFFFFFFFFFE00000000000
FFFFFFFFFFFFFFFFFFFFFFFE000000000000
FFFFFFFFFFFFFFFFFFFFFFE0000000000000
FFFFFFFFFFFFFFFFFFFFF800000000000000
ENDCHAR
STARTCHAR E
ENCODING 69
SWIDTH 759 0
DWIDTH 138 0
BBX 119 132 11 0
BITMAP
FFFFFFFFFFFFFFFFFFFFFFFFFFFFFE
FFFFFFFFFFFFFFFFFFFFFFFFFFFFFE
FFFFFFFFFFFFFFFFFFFFFFFFFFFFFE
FFFFFFFFFFFFFFFFFFFFFFFFFFFFFE
FFFFFFFFFFFFFFFFFFFFFFFFFFFFFE
FFFFFFFFFFFFFFFFFFFFFFFFFFFFFE
FFFFFFFFFFFFFFFFFFFFFFFFFFFFFE
FFFFFFFFFFFFFFFFFFFFFFFFFFFFFE
FFFFFFFFFFFFFFFFFFFFFFFFFFFFFE
FFFFFFFFFFFFFFFFFFFFFFFFFFFFFE
FFFFFFFFFFFFFFFFFFFFFFFFFFFFFE
FFFFFFFFFFFFFFFFFFFFFFFFFFFFFE
FFFFFFFFFFFFFFFFFFFFFFFFFFFFFE
FFFFFFFFFFFFFFFFFFFFFFFFFFFFFE
FFFFFFFFFFFFFFFFFFFFFFFFFFFFFE
FFFFFFFFFFFFFFFFFFFFFFFFFFFFFE
FFFFFFFFFFFFFFFFFFFFFFFFFFFFFE
FFFFFFFFFFFFFFFFFFFFFFFFFFFFFE
FFFFFFFFFFFFFFFFFFFFFFFFFFFFFE
FFFFFFFFFFFFFFFFFFFFFFFFFFFFFE
FFFFFFFFFFFFFFFFFFFFFFFFFFFFFE
FFFFFFFFFFFFFFFFFFFFFFFFFFFFFE
FFFFFFFFFFFFFFFFFFFFFFFFFFFFFE
FFFFFE000000000000000000000000
FFFFFE000000000000000000000000
FFFFFE000000000000000000000000
FFFFFE000000000000000000000000
FFFFFE000000000000000000000000
FFFFFE000000000000000000000000
FFFFFE000000000000000000000000
FFFFFE000000000000000000000000
FFFFFE000000000000000000000000
FFFFFE000000000000000000000000
FFFFFE000000000000000000000000
FFFFFE000000000000000000000000
FFFFFE000000000000000000000000
FFFFFE000000000000000000000000
FFFFFE000000000000000000000000
FFFFFE000000000000000000000000
FFFFFE000000000000000000000000
FFFFFE000000000000000000000000
FFFFFE000000000000000000000000
FFFFFE000000000000000000000000
FFFFFE000000000000000000000000
FFFFFE000000000000000000000000
FFFFFE000000000000000000000000
FFFFFE000000000000000000000000
FFFFFE000000000000000000000000
FFFFFE000000000000000000000000
FFFFFE000000000000000000000000
FFFFFE000000000000000000000000
FFFFFE000000000000000000000000
FFFFFE000000000000000000000000
FFFFFE000000000000000000000000
FFFFFE000000000000000000000000
FFFFFE0000FFFFFFFFFFFFFFFFFFC0
FFFFFE0000FFFFFFFFFFFFFFFFFFC0
FFFFFE0000FFFFFFFFFFFFFFFFFFC0
FFFFFE0000FFFFFFFFFFFFFFFFFFC0
FFFFFE0000FFFFFFFFFFFFFFFFFFC0
FFFFFE0000FFFFFFFFFFFFFFFFFFC0
FFFFFE0000FFFFFFFFFFFFFFFFFFC0
FFFFFE0000FFFFFFFFFFFFFFFFFFC0
FFFFFE0000FFFFFFFFFFFFFFFFFFC0
FFFFFE0000FFFFFFFFFFFFFFFFFFC0
FFFFFE0000FFFFFFFFFFFFFFFFFFC0
FFFFFE0000FFFFFFFFFFFFFFFFFFC0
FFFFFE0000FFFFFFFFFFFFFFFFFFC0
FFFFFE0000FFFFFFFFFFFFFFFFFFC0
FFFFFE0000FFFFFFFFFFFFFFFFFFC0
FFFFFE0000FFFFFFFFFFFFFFFFFFC0
FFFFFE0000FFFFFFFFFFFFFFFFFFC0
FFFFFE0000FFFFFFFFFFFFFFFFFFC0
FFFFFE0000FFFFFFFFFFFFFFFFFFC0
FFFFFE000000000000000000000000
FFFFFE000000000000000000000000
FFFFFE000000000000000000000000
FFFFFE000000000000000000000000
FFFFFE000000000000000000000000
FFFFFE000000000000000000000000
FFFFFE000000000000000000000000
FFFFFE000000000000000000000000
FFFFFE000000000000000000000000
FFFFFE000000000000000000000000
FFFFFE000000000000000000000000
FFFFFE000000000000000000000000
FFFFFE000000000000000000000000
FFFFFE000000000000000000000000
FFFFFE000000000000000000000000
FFFFFE000000000000000000000000
FFFFFE000000000000000000000000
FFFFFE000000000000000000000000
FFFFFE000000000000000000000000
FFFFFE000000000000000000000000
FFFFFE000000000000000000000000
FFFFFE000000000000000000000000
FFFFFE000000000000000000000000
FFFFFE000000000000000000000000
FFFFFE000000000000000000000000
FFFFFE000000000000000000000000
FFFFFE000000000000000000000000
FFFFFE000000000000000000000000
FFFFFE000000000000000000000000
FFFFFE000000000000000000000000
FFFFFE000000000000000000000000
FFFFFE000000000000000000000000
FFFFFE000000000000000000000000
FFFFFE000000000000000000000000
FFFFFE000000000000000000000000
FFFFFFFFFFFFFFFFFFFFFFFFFFFFFE
FFFFFFFFFFFFFFFFFFFFFFFFFFFFFE
FFFFFFFFFFFFFFFFFFFFFFFFFFFFFE
FFFFFFFFFFFFFFFFFFFFFFFFFFFFFE
FFFFFFFFFFFFFFFFFFFFFFFFFFFFFE
FFFFFFFFFFFFFFFFFFFFFFFFFFFFFE
FFFFFFFFFFFFFFFFFFFFFFFFFFFFFE
FFFFFFFFFFFFFFFFFFFFFFFFFFFFFE
FFFFFFFFFFFFFFFFFFFFFFFFFFFFFE
FFFFFFFFFFFFFFFFFFFFFFFFFFFFFE
FFFFFFFFFFFFFFFFFFFFFFFFFFFFFE
FFFFFFFFFFFFFFFFFFFFFFFFFFFFFE
FFFFFFFFFFFFFFFFFFFFFFFFFFFFFE
FFFFFFFFFFFFFFFFFFFFFFFFFFFFFE
FFFFFFFFFFFFFFFFFFFFFFFFFFFFFE
FFFFFFFFFFFFFFFFFFFFFFFFFFFFFE
FFFFFFFFFFFFFFFFFFFFFFFFFFFFFE
FFFFFFFFFFFFFFFFFFFFFFFFFFFFFE
FFFFFFFFFFFFFFFFFFFFFFFFFFFFFE
FFFFFFFFFFFFFFFFFFFFFFFFFFFFFE
FFFFFFFFFFFFFFFFFFFFFFFFFFFFFE
FFFFFFFFFFFFFFFFFFFFFFFFFFFFFE
FFFFFFFFFFFFFFFFFFFFFFFFFFFFFE
ENDCHAR
STARTCHAR F
ENCODING 70
SWIDTH 705 0
DWIDTH 128 0
BBX 113 132 11 0
BITMAP
FFFFFFFFFFFFFFFFFFFFFFFFFFFF80
FFFFFFFFFFFFFFFFFFFFFFFFFFFF80
FFFFFFFFFFFFFFFFFFFFFFFFFFFF80
FFFFFFFFFFFFFFFFFFFFFFFFFFFF80
FFFFFFFFFFFFFFFFFFFFFFFFFFFF80
FFFFFFFFFFFFFFFFFFFFFFFFFFFF80
FFFFFFFFFFFFFFFFFFFFFFFFFFFF80
FFFFFFFFFFFFFFFFFFFFFFFFFFFF80
FFFFFFFFFFFFFFFFFFFFFFFFFFFF80
FFFFFFFFFFFFFFFFFFFFFFFFFFFF80
FFFFFFFFFFFFFFFFFFFFFFFFFFFF80
FFFFFFFFFFFFFFFFFFFFFFFFFFFF80
FFFFFFFFFFFFFFFFFFFFFFFFFFFF80
FFFFFFFFFFFFFFFFFFFFFFFFFFFF80
FFFFFFFFFFFFFFFFFFFFFFFFFFFF80
FFFFFFFFFFFFFFFFFFFFFFFFFFFF80
FFFFFFFFFFFFFFFFFFFFFFFFFFFF80
FFFFFFFFFFFFFFFFFFFFFFFFFFFF80
FFFFFFFFFFFFFFFFFFFFFFFFFFFF80
FFFFFFFFFFFFFFFFFFFFFFFFFFFF80
FFFFFFFFFFFFFFFFFFFFFFFFFFFF80
FFFFFFFFFFFFFFFFFFFFFFFFFFFF80
FFFFFFFFFFFFFFFFFFFFFFFFFFFF80
FFFFFE000000000000000000000000
FFFFFE000000000000000000000000
FFFFFE000000000000000000000000
FFFFFE000000000000000000000000
FFFFFE000000000000000000000000
FFFFFE000000000000000000000000
FFFFFE000000000000000000000000
FFFFFE000000000000000000000000
FFFFFE000000000000000000000000
FFFFFE000000000000000000000000
FFFFFE000000000000000000000000
FFFFFE000000000000000000000000
FFFFFE000000000000000000000000
FFFFFE000000000000000000000000
FFFFFE000000000000000000000000
FFFFFE000000000000000000000000
FFFFFE000000000000000000000000
FFFFFE000000000000000000000000
FFFFFE000000000000000000000000
FFFFFE000000000000000000000000
FFFFFE000000000000000000000000
FFFFFE000000000000000000000000
FFFFFE000000000000000000000000
FFFFFE000000000000000000000000
FFFFFE000000000000000000000000
FFFFFE000000000000000000000000
FFFFFE000000000000000000000000
FFFFFE000000000000000000000000
FFFFFE000000000000000000000000
FFFFFE000000000000000000000000
FFFFFE000000000000000000000000
FFFFFE000000000000000000000000
FFFFFE000000000000000000000000
FFFFFE000000000000000000000000
FFFFFE0000FFFFFFFFFFFFFFFFE000
FFFFFE0000FFFFFFFFFFFFFFFFE000
FFFFFE0000FFFFFFFFFFFFFFFFE000
FFFFFE0000FFFFFFFFFFFFFFFFE000
FFFFFE0000FFFFFFFFFFFFFFFFE000
FFFFFE0000FFFFFFFFFFFFFFFFE000
FFFFFE0000FFFFFFFFFFFFFFFFE000
FFFFFE0000FFFFFFFFFFFFFFFFE000
FFFFFE0000FFFFFFFFFFFFFFFFE000
FFFFFE0000FFFFFFFFFFFFFFFFE000
FFFFFE0000FFFFFFFFFFFFFFFFE000
FFFFFE0000FFFFFFFFFFFFFFFFE000
FFFFFE0000FFFFFFFFFFFFFFFFE000
FFFFFE0000FFFFFFFFFFFFFFFFE000
FFFFFE0000FFFFFFFFFFFFFFFFE000
FFFFFE0000FFFFFFFFFFFFFFFFE000
FFFFFE0000FFFFFFFFFFFFFFFFE000
FFFFFE0000FFFFFFFFFFFFFFFFE000
FFFFFE0000FFFFFFFFFFFFFFFFE000
FFFFFE0000FFFFFFFFFFFFFFFFE000
FFFFFE000000000000000000000000
FFFFFE000000000000000000000000
FFFFFE000000000000000000000000
FFFFFE000000000000000000000000
FFFFFE000000000000000000000000
FFFFFE000000000000000000000000
FFFFFE000000000000000000000000
FFFFFE000000000000000000000000
FFFFFE000000000000000000000000
FFFFFE000000000000000000000000
FFFFFE000000000000000000000000
FFFFFE000000000000000000000000
FFFFFE000000000000000000000000
FFFFFE000000000000000000000000
FFFFFE000000000000000000000000
FFFFFE000000000000000000000000
FFFFFE000000000000000000000000
FFFFFE000000000000000000000000
FFFFFE000000000000000000000000
FFFFFE000000000000000000000000
FFFFFE000000000000000000000000
FFFFFE000000000000000000000000
FFFFFE000000000000000000000000
FFFFFE000000000000000000000000
FFFFFE000000000000000000000000
FFFFFE000000000000000000000000
FFFFFE000000000000000000000000
FFFFFE000000000000000000000000
FFFFFE000000000000000000000000
FFFFFE000000000000000000000000
FFFFFE000000000000000000000000
FFFFFE000000000000000000000000
FFFFFE000000000000000000000000
FFFFFE000000000000000000000000
FFFFFE000000000000000000000000
FFFFFE000000000000000000000000
FFFFFE000000000000000000000000
FFFFFE000000000000000000000000
FFFFFE000000000000000000000000
FFFFFE000000000000000000000000
FFFFFE000000000000000000000000
FFFFFE000000000000000000000000
FFFFFE000000000000000000000000
FFFFFE000000000000000000000000
FFFFFE000000000000000000000000
FFFFFE000000000000000000000000
FFFFFE000000000000000000000000
FFFFFE000000000000000000000000
FFFFFE000000000000000000000000
FFFFFE000000000000000000000000
FFFFFE000000000000000000000000
FFFFFE000000000000000000000000
FFFFFE000000000000000000000000
FFFFFE000000000000000000000000
FFFFFE000000000000000000000000
ENDCHAR
STARTCHAR G
ENCODING 71
SWIDTH 888 0
DWIDTH 162 0
BBX 144 132 8 0
BITMAP
00000000000001FFFFFFFFFFFFFFFFFFFF00
0000000000007FFFFFFFFFFFFFFFFFFFFF00
000000000007FFFFFFFFFFFFFFFFFFFFFF00
00000000007FFFFFFFFFFFFFFFFFFFFFFF00
0000000001FFFFFFFFFFFFFFFFFFFFFFFF00
000000000FFFFFFFFFFFFFFFFFFFFFFFFF00
000000003FFFFFFFFFFFFFFFFFFFFFFFFF00
00000000FFFFFFFFFFFFFFFFFFFFFFFFFF00
00000003FFFFFFFFFFFFFFFFFFFFFFFFFF00
0000000FFFFFFFFFFFFFFFFFFFFFFFFFFF00
0000001FFFFFFFFFFFFFFFFFFFFFFFFFFF00
0000007FFFFFFFFFFFFFFFFFFFFFFFFFFF00
000000FFFFFFFFFFFFFFFFFFFFFFFFFFFF00
000001FFFFFFFFFFFFFFFFFFFFFFFFFFFF00
000007FFFFFFFFFFFFFFFFFFFFFFFFFFFF00
00000FFFFFFFFFFFFFFFFFFFFFFFFFFFFF00
00001FFFFFFFFFFFFFFFFFFFFFFFFFFFFF00
00003FFFFFFFFFFFFFFFFFFFFFFFFFFFFF00
00007FFFFFFFFFFFFFFFFFFFFFFFFFFFFF00
0000FFFFFFFFFFFFFFFFFFFFFFFFFFFFFF00
0001FFFFFFFFFFFFFFFFFFFFFFFFFFFFFF00
0003FFFFFFFFFFFFFFFFFFFFFFFFFFFFFF00
0003FFFFFFFFFFFFFFFFFFFFFFFFFFFFFF00
0007FFFFFFFFFFC000000000000000000000
000FFFFFFFFFF00000000000000000000000
001FFFFFFFFF800000000000000000000000
001FFFFFFFFE000000000000000000000000
003FFFFFFFF8000000000000000000000000
007FFFFFFFE0000000000000000000000000
007FFFFFFF80000000000000000000000000
00FFFFFFFF00000000000000000000000000
00FFFFFFFC00000000000000000000000000
01FFFFFFF800000000000000000000000000
01FFFFFFF000000000000000000000000000
03FFFFFFE000000000000000000000000000
03FFFFFFC000000000000000000000000000
07FFFFFF8000000000000000000000000000
07FFFFFF0000000000000000000000000000
0FFFFFFE0000000000000000000000000000
0FFFFFFE0000000000000000000000000000
0FFFFFFC0000000000000000000000000000
1FFFFFF80000000000000000000000000000
1FFFFFF80000000000000000000000000000
1FFFFFF00000000000000000000000000000
3FFFFFF00000000000000000000000000000
3FFFFFE00000000000000000000000000000
3FFFFFE00000000000000000000000000000
7FFFFFC00000000000000000000000000000
7FFFFFC00000000000000000000000000000
7FFFFF800000000000000000000000000000
7FFFFF800000000000000000000000000000
7FFFFF800000000000000000000000000000
7FFFFF800000000000000000000000000000
FFFFFF000000000000000000000000000000
FFFFFF000000000000000000000000000000
FFFFFF0000000007FFFFFFFFFFFFFFFFFFFF
FFFFFF0000000007FFFFFFFFFFFFFFFFFFFF
FFFFFE0000000007FFFFFFFFFFFFFFFFFFFF
FFFFFE0000000007FFFFFFFFFFFFFFFFFFFF
FFFFFE0000000007FFFFFFFFFFFFFFFFFFFF
FFFFFE0000000007FFFFFFFFFFFFFFFFFFFF
FFFFFE0000000007FFFFFFFFFFFFFFFFFFFF
FFFFFE0000000007FFFFFFFFFFFFFFFFFFFF
FFFFFE0000000007FFFFFFFFFFFFFFFFFFFF
FFFFFE0000000007FFFFFFFFFFFFFFFFFFFF
FFFFFE0000000007FFFFFFFFFFFFFFFFFFFF
FFFFFE0000000007FFFFFFFFFFFFFFFFFFFF
FFFFFE0000000007FFFFFFFFFFFFFFFFFFFF
FFFFFE0000000007FFFFFFFFFFFFFFFFFFFF
FFFFFE0000000007FFFFFFFFFFFFFFFFFFFF
FFFFFE0000000007FFFFFFFFFFFFFFFFFFFF
FFFFFE0000000007FFFFFFFFFFFFFFFFFFFF
FFFFFE0000000007FFFFFFFFFFFFFFFFFFFF
FFFFFE0000000007FFFFFFFFFFFFFFFFFFFF
FFFFFE000000000000000000000000FFFFFF
FFFFFF000000000000000000000000FFFFFF
FFFFFF000000000000000000000000FFFFFF
7FFFFF000000000000000000000000FFFFFF
7FFFFF000000000000000000000000FFFFFF
7FFFFF800000000000000000000000FFFFFF
7FFFFF800000000000000000000000FFFFFF
7FFFFF800000000000000000000000FFFFFF
3FFFFFC00000000000000000000000FFFFFF
3FFFFFC00000000000000000000000FFFFFF
3FFFFFC00000000000000000000000FFFFFF
3FFFFFE00000000000000000000000FFFFFF
1FFFFFE00000000000000000000000FFFFFF
1FFFFFF00000000000000000000000FFFFFF
1FFFFFF00000000000000000000000FFFFFF
0FFFFFF80000000000000000000000FFFFFF
0FFFFFFC0000000000000000000000FFFFFF
07FFFFFC0000000000000000000000FFFFFF
07FFFFFE0000000000000000000000FFFFFF
07FFFFFF0000000000000000000000FFFFFF
03FFFFFF0000000000000000000000FFFFFF
03FFFFFF8000000000000000000000FFFFFF
01FFFFFFC000000000000000000000FFFFFF
01FFFFFFE000000000000000000000FFFFFF
00FFFFFFF000000000000000000000FFFFFF
00FFFFFFF800000000000000000000FFFFFF
007FFFFFFE00000000000000000000FFFFFF
007FFFFFFF00000000000000000000FFFFFF
003FFFFFFF80000000000000000000FFFFFF
001FFFFFFFE0000000000000000000FFFFFF
001FFFFFFFF8000000000000000000FFFFFF
000FFFFFFFFE000000000000000000FFFFFF
0007FFFFFFFFC00000000000000000FFFFFF
0007FFFFFFFFF80000000000000000FFFFFF
0003FFFFFFFFFFC000000000000000FFFFFF
0001FFFFFFFFFFFFFFFFFFFFFFFFFFFFFFFF
0000FFFFFFFFFFFFFFFFFFFFFFFFFFFFFFFF
00007FFFFFFFFFFFFFFFFFFFFFFFFFFFFFFF
00003FFFFFFFFFFFFFFFFFFFFFFFFFFFFFFF
00001FFFFFFFFFFFFFFFFFFFFFFFFFFFFFFF
00000FFFFFFFFFFFFFFFFFFFFFFFFFFFFFFF
000007FFFFFFFFFFFFFFFFFFFFFFFFFFFFFF
000003FFFFFFFFFFFFFFFFFFFFFFFFFFFFFF
000001FFFFFFFFFFFFFFFFFFFFFFFFFFFFFF
000000FFFFFFFFFFFFFFFFFFFFFFFFFFFFFF
0000003FFFFFFFFFFFFFFFFFFFFFFFFFFFFF
0000001FFFFFFFFFFFFFFFFFFFFFFFFFFFFF
00000007FFFFFFFFFFFFFFFFFFFFFFFFFFFF
00000003FFFFFFFFFFFFFFFFFFFFFFFFFFFF
00000000FFFFFFFFFFFFFFFFFFFFFFFFFFFF
000000007FFFFFFFFFFFFFFFFFFFFFFFFFFF
000000001FFFFFFFFFFFFFFFFFFFFFFFFFFF
0000000003FFFFFFFFFFFFFFFFFFFFFFFFFF
0000000000FFFFFFFFFFFFFFFFFFFFFFFFFF
00000000003FFFFFFFFFFFFFFFFFFFFFFFFF
000000000003FFFFFFFFFFFFFFFFFFFFFFFF
0000000000007FFFFFFFFFFFFFFFFFFFFFFF
00000000000000FFFFFFFFFFFFFFFFFFFFFF
ENDCHAR
STARTCHAR H
ENCODING 72
SWIDTH 838 0
DWIDTH 153 0
BBX 130 132 11 0
BITMAP
FFFFFF000000000000000000001FFFFFC0
FFFFFF000000000000000000001FFFFFC0
FFFFFF000000000000000000001FFFFFC0
FFFFFF000000000000000000001FFFFFC0
FFFFFF000000000000000000001FFFFFC0
FFFFFF000000000000000000001FFFFFC0
FFFFFF000000000000000000001FFFFFC0
FFFFFF000000000000000000001FFFFFC0
FFFFFF000000000000000000001FFFFFC0
FFFFFF000000000000000000001FFFFFC0
FFFFFF000000000000000000001FFFFFC0
FFFFFF000000000000000000001FFFFFC0
FFFFFF000000000000000000001FFFFFC0
FFFFFF000000000000000000001FFFFFC0
FFFFFF000000000000000000001FFFFFC0
FFFFFF000000000000000000001FFFFFC0
FFFFFF000000000000000000001FFFFFC0
FFFFFF000000000000000000001FFFFFC0
FFFFFF000000000000000000001FFFFFC0
FFFFFF000000000000000000001FFFFFC0
FFFFFF000000000000000000001FFFFFC0
FFFFFF000000000000000000001FFFFFC0
FFFFFF000000000000000000001FFFFFC0
FFFFFF000000000000000000001FFFFFC0
FFFFFF000000000000000000001FFFFFC0
FFFFFF000000000000000000001FFFFFC0
FFFFFF000000000000000000001FFFFFC0
FFFFFF000000000000000000001FFFFFC0
FFFFFF000000000000000000001FFFFFC0
FFFFFF000000000000000000001FFFFFC0
FFFFFF000000000000000000001FFFFFC0
FFFFFF000000000000000000001FFFFFC0
FFFFFF000000000000000000001FFFFFC0
FFFFFF000000000000000000001FFFFFC0
FFFFFF000000000000000000001FFFFFC0
FFFFFF000000000000000000001FFFFFC0
FFFFFF000000000000000000001FFFFFC0
FFFFFF000000000000000000001FFFFFC0
FFFFFF000000000000000000001FFFFFC0
FFFFFF000000000000000000001FFFFFC0
FFFFFF000000000000000000001FFFFFC0
FFFFFF000000000000000000001FFFFFC0
FFFFFF000000000000000000001FFFFFC0
FFFFFF000000000000000000001FFFFFC0
FFFFFF000000000000000000001FFFFFC0
FFFFFF000000000000000000001FFFFFC0
FFFFFF000000000000000000001FFFFFC0
FFFFFF000000000000000000001FFFFFC0
FFFFFF000000000000000000001FFFFFC0
FFFFFF000000000000000000001FFFFFC0
FFFFFF000000000000000000001FFFFFC0
FFFFFF000000000000000000001FFFFFC0
FFFFFF000000000000000000001FFFFFC0
FFFFFF000000000000000000001FFFFFC0
FFFFFF0000FFFFFFFFFFFFFFFFFFFFFFC0
FFFFFF0000FFFFFFFFFFFFFFFFFFFFFFC0
FFFFFF0000FFFFFFFFFFFFFFFFFFFFFFC0
FFFFFF0000FFFFFFFFFFFFFFFFFFFFFFC0
FFFFFF0000FFFFFFFFFFFFFFFFFFFFFFC0
FFFFFF0000FFFFFFFFFFFFFFFFFFFFFFC0
FFFFFF0000FFFFFFFFFFFFFFFFFFFFFFC0
FFFFFF0000FFFFFFFFFFFFFFFFFFFFFFC0
FFFFFF0000FFFFFFFFFFFFFFFFFFFFFFC0
FFFFFF0000FFFFFFFFFFFFFFFFFFFFFFC0
FFFFFF0000FFFFFFFFFFFFFFFFFFFFFFC0
FFFFFF0000FFFFFFFFFFFFFFFFFFFFFFC0
FFFFFF0000FFFFFFFFFFFFFFFFFFFFFFC0
FFFFFF0000FFFFFFFFFFFFFFFFFFFFFFC0
FFFFFF0000FFFFFFFFFFFFFFFFFFFFFFC0
FFFFFF0000FFFFFFFFFFFFFFFFFFFFFFC0
FFFFFF0000FFFFFFFFFFFFFFFFFFFFFFC0
FFFFFF0000FFFFFFFFFFFFFFFFFFFFFFC0
FFFFFF0000FFFFFFFFFFFFFFFFFFFFFFC0
FFFFFF0000FFFFFFFFFFFFFFFFFFFFFFC0
FFFFFF0000FFFFFFFFFFFFFFFFFFFFFFC0
FFFFFF000000000000000000001FFFFFC0
FFFFFF000000000000000000001FFFFFC0
FFFFFF000000000000000000001FFFFFC0
FFFFFF000000000000000000001FFFFFC0
FFFFFF000000000000000000001FFFFFC0
FFFFFF000000000000000000001FFFFFC0
FFFFFF000000000000000000001FFFFFC0
FFFFFF000000000000000000001FFFFFC0
FFFFFF000000000000000000001FFFFFC0
FFFFFF000000000000000000001FFFFFC0
FFFFFF000000000000000000001FFFFFC0
FFFFFF000000000000000000001FFFFFC0
FFFFFF000000000000000000001FFFFFC0
FFFFFF000000000000000000001FFFFFC0
FFFFFF000000000000000000001FFFFFC0
FFFFFF000000000000000000001FFFFFC0
FFFFFF000000000000000000001FFFFFC0
FFFFFF000000000000000000001FFFFFC0
FFFFFF000000000000000000001FFFFFC0
FFFFFF000000000000000000001FFFFFC0
FFFFFF000000000000000000001FFFFFC0
FFFFFF000000000000000000001FFFFFC0
FFFFFF000000000000000000001FFFFFC0
FFFFFF000000000000000000001FFFFFC0
FFFFFF000000000000000000001FFFFFC0
FFFFFF000000000000000000001FFFFFC0
FFFFFF000000000000000000001FFFFFC0
FFFFFF000000000000000000001FFFFFC0
FFFFFF000000000000000000001FFFFFC0
FFFFFF000000000000000000001FFFFFC0
FFFFFF000000000000000000001FFFFFC0
FFFFFF000000000000000000001FFFFFC0
FFFFFF000000000000000000001FFFFFC0
FFFFFF000000000000000000001FFFFFC0
FFFFFF000000000000000000001FFFFFC0
FFFFFF000000000000000000001FFFFFC0
FFFFFF000000000000000000001FFFFFC0
FFFFFF000000000000000000001FFFFFC0
FFFFFF000000000000000000001FFFFFC0
FFFFFF000000000000000000001FFFFFC0
FFFFFF000000000000000000001FFFFFC0
FFFFFF000000000000000000001FFFFFC0
FFFFFF000000000000000000001FFFFFC0
FFFFFF000000000000000000001FFFFFC0
FFFFFF000000000000000000001FFFFFC0
FFFFFF000000000000000000001FFFFFC0
FFFFFF000000000000000000001FFFFFC0
FFFFFF000000000000000000001FFFFFC0
FFFFFF000000000000000000001FFFFFC0
FFFFFF000000000000000000001FFFFFC0
FFFFFF000000000000000000001FFFFFC0
FFFFFF000000000000000000001FFFFFC0
FFFFFF000000000000000000001FFFFFC0
FFFFFF000000000000000000001FFFFFC0
FFFFFF000000000000000000001FFFFFC0
FFFFFF000000000000000000001FFFFFC0
FFFFFF000000000000000000001FFFFFC0
ENDCHAR
STARTCHAR I
ENCODING 73
SWIDTH 267 0
DWIDTH 49 0
BBX 23 132 13 0
BITMAP
FFFFFE
FFFFFE
FFFFFE
FFFFFE
FFFFFE
FFFFFE
FFFFFE
FFFFFE
FFFFFE
FFFFFE
FFFFFE
FFFFFE
FFFFFE
FFFFFE
FFFFFE
FFFFFE
FFFFFE
FFFFFE
FFFFFE
FFFFFE
FFFFFE
FFFFFE
FFFFFE
FFFFFE
FFFFFE
FFFFFE
FFFFFE
FFFFFE
FFFFFE
FFFFFE
FFFFFE
FFFFFE
FFFFFE
FFFFFE
FFFFFE
FFFFFE
FFFFFE
FFFFFE
FFFFFE
FFFFFE
FFFFFE
FFFFFE
FFFFFE
FFFFFE
FFFFFE
FFFFFE
FFFFFE
FFFFFE
FFFFFE
FFFFFE
FFFFFE
FFFFFE
FFFFFE
FFFFFE
FFFFFE
FFFFFE
FFFFFE
FFFFFE
FFFFFE
FFFFFE
FFFFFE
FFFFFE
FFFFFE
FFFFFE
FFFFFE
FFFFFE
FFFFFE
FFFFFE
FFFFFE
FFFFFE
FFFFFE
FFFFFE
FFFFFE
FFFFFE
FFFFFE
FFFFFE
FFFFFE
FFFFFE
FFFFFE
FFFFFE
FFFFFE
FFFFFE
FFFFFE
FFFFFE
FFFFFE
FFFFFE
FFFFFE
FFFFFE
FFFFFE
FFFFFE
FFFFFE
FFFFFE
FFFFFE
FFFFFE
FFFFFE
FFFFFE
FFFFFE
FFFFFE
FFFFFE
FFFFFE
FFFFFE
FFFFFE
FFFFFE
FFFFFE
FFFFFE
FFFFFE
FFFFFE
FFFFFE
FFFFFE
FFFFFE
FFFFFE
FFFFFE
FFFFFE
FFFFFE
FFFFFE
FFFFFE
FFFFFE
FFFFFE
FFFFFE
FFFFFE
FFFFFE
FFFFFE
FFFFFE
FFFFFE
FFFFFE
FFFFFE
FFFFFE
FFFFFE
FFFFFE
FFFFFE
FFFFFE
FFFFFE
ENDCHAR
STARTCHAR J
ENCODING 74
SWIDTH 708 0
DWIDTH 129 0
BBX 115 132 4 0
BITMAP
00000000000000000000000FFFFFE0
00000000000000000000000FFFFFE0
00000000000000000000000FFFFFE0
00000000000000000000000FFFFFE0
00000000000000000000000FFFFFE0
00000000000000000000000FFFFFE0
00000000000000000000000FFFFFE0
00000000000000000000000FFFFFE0
00000000000000000000000FFFFFE0
00000000000000000000000FFFFFE0
00000000000000000000000FFFFFE0
00000000000000000000000FFFFFE0
00000000000000000000000FFFFFE0
00000000000000000000000FFFFFE0
00000000000000000000000FFFFFE0
00000000000000000000000FFFFFE0
00000000000000000000000FFFFFE0
00000000000000000000000FFFFFE0
00000000000000000000000FFFFFE0
00000000000000000000000FFFFFE0
00000000000000000000000FFFFFE0
00000000000000000000000FFFFFE0
00000000000000000000000FFFFFE0
00000000000000000000000FFFFFE0
00000000000000000000000FFFFFE0
00000000000000000000000FFFFFE0
00000000000000000000000FFFFFE0
00000000000000000000000FFFFFE0
00000000000000000000000FFFFFE0
00000000000000000000000FFFFFE0
00000000000000000000000FFFFFE0
00000000000000000000000FFFFFE0
00000000000000000000000FFFFFE0
00000000000000000000000FFFFFE0
00000000000000000000000FFFFFE0
00000000000000000000000FFFFFE0
00000000000000000000000FFFFFE0
00000000000000000000000FFFFFE0
00000000000000000000000FFFFFE0
00000000000000000000000FFFFFE0
00000000000000000000000FFFFFE0
00000000000000000000000FFFFFE0
00000000000000000000000FFFFFE0
00000000000000000000000FFFFFE0
00000000000000000000000FFFFFE0
00000000000000000000000FFFFFE0
00000000000000000000000FFFFFE0
00000000000000000000000FFFFFE0
00000000000000000000000FFFFFE0
00000000000000000000000FFFFFE0
00000000000000000000000FFFFFE0
00000000000000000000000FFFFFE0
00000000000000000000000FFFFFE0
00000000000000000000000FFFFFE0
00000000000000000000000FFFFFE0
00000000000000000000000FFFFFE0
00000000000000000000000FFFFFE0
00000000000000000000000FFFFFE0
00000000000000000000000FFFFFE0
00000000000000000000000FFFFFE0
00000000000000000000000FFFFFE0
00000000000000000000000FFFFFE0
00000000000000000000000FFFFFE0
00000000000000000000000FFFFFE0
00000000000000000000000FFFFFE0
00000000000000000000000FFFFFE0
00000000000000000000000FFFFFE0
00000000000000000000000FFFFFE0
00000000000000000000000FFFFFE0
00000000000000000000000FFFFFE0
00000000000000000000000FFFFFE0
00000000000000000000000FFFFFE0
00000000000000000000000FFFFFE0
00000000000000000000000FFFFFE0
00000000000000000000000FFFFFE0
00000000000000000000000FFFFFE0
00000000000000000000000FFFFFE0
00000000000000000000000FFFFFE0
00000000000000000000000FFFFFE0
00000000000000000000000FFFFFE0
00000000000000000000000FFFFFE0
00000000000000000000000FFFFFE0
00000000000000000000001FFFFFE0
00000000000000000000001FFFFFE0
00000000000000000000001FFFFFE0
00000000000000000000001FFFFFC0
00000000000000000000003FFFFFC0
00000000000000000000003FFFFFC0
00000000000000000000003FFFFFC0
00000000000000000000007FFFFFC0
00000000000000000000007FFFFFC0
0000000000000000000000FFFFFF80
0000000000000000000000FFFFFF80
0000000000000000000001FFFFFF80
0000000000000000000001FFFFFF80
0000000000000000000003FFFFFF00
0000000000000000000007FFFFFF00
0000000000000000000007FFFFFF00
000000000000000000000FFFFFFE00
000000000000000000001FFFFFFE00
000000000000000000003FFFFFFE00
00000000000000000000FFFFFFFC00
00000000000000000001FFFFFFFC00
00000000000000000007FFFFFFF800
0000000000000000001FFFFFFFF800
0000000000000000007FFFFFFFF000
000000000000000007FFFFFFFFF000
00000000000000007FFFFFFFFFE000
000000000000003FFFFFFFFFFFE000
FFFFFFFFFFFFFFFFFFFFFFFFFFC000
FFFFFFFFFFFFFFFFFFFFFFFFFF8000
FFFFFFFFFFFFFFFFFFFFFFFFFF8000
FFFFFFFFFFFFFFFFFFFFFFFFFF0000
FFFFFFFFFFFFFFFFFFFFFFFFFE0000
FFFFFFFFFFFFFFFFFFFFFFFFFC0000
FFFFFFFFFFFFFFFFFFFFFFFFF80000
FFFFFFFFFFFFFFFFFFFFFFFFF00000
FFFFFFFFFFFFFFFFFFFFFFFFE00000
FFFFFFFFFFFFFFFFFFFFFFFFC00000
FFFFFFFFFFFFFFFFFFFFFFFF800000
FFFFFFFFFFFFFFFFFFFFFFFE000000
FFFFFFFFFFFFFFFFFFFFFFFC000000
FFFFFFFFFFFFFFFFFFFFFFF0000000
FFFFFFFFFFFFFFFFFFFFFFE0000000
FFFFFFFFFFFFFFFFFFFFFF80000000
FFFFFFFFFFFFFFFFFFFFFC00000000
FFFFFFFFFFFFFFFFFFFFF000000000
FFFFFFFFFFFFFFFFFFFF8000000000
FFFFFFFFFFFFFFFFFFFC0000000000
FFFFFFFFFFFFFFFFFFC00000000000
FFFFFFFFFFFFFFFFF8000000000000
FFFFFFFFFFFFFFF800000000000000
ENDCHAR
STARTCHAR K
ENCODING 75
SWIDTH 875 0
DWIDTH 159 0
BBX 145 132 11 0
BITMAP
FFFFFF000000000000000000003FFFFFFFFC00
FFFFFF000000000000000000007FFFFFFFF000
FFFFFF00000000000000000001FFFFFFFFE000
FFFFFF00000000000000000003FFFFFFFF8000
FFFFFF00000000000000000007FFFFFFFF0000
FFFFFF0000000000000000001FFFFFFFFE0000
FFFFFF0000000000000000003FFFFFFFF80000
FFFFFF0000000000000000007FFFFFFFF00000
FFFFFF000000000000000001FFFFFFFFE00000
FFFFFF000000000000000003FFFFFFFFC00000
FFFFFF000000000000000007FFFFFFFF000000
FFFFFF00000000000000000FFFFFFFFE000000
FFFFFF00000000000000003FFFFFFFFC000000
FFFFFF00000000000000007FFFFFFFF0000000
FFFFFF0000000000000000FFFFFFFFE0000000
FFFFFF0000000000000003FFFFFFFFC0000000
FFFFFF0000000000000007FFFFFFFF00000000
FFFFFF000000000000000FFFFFFFFE00000000
FFFFFF000000000000003FFFFFFFFC00000000
FFFFFF000000000000007FFFFFFFF000000000
FFFFFF00000000000000FFFFFFFFE000000000
FFFFFF00000000000001FFFFFFFFC000000000
FFFFFF00000000000007FFFFFFFF0000000000
FFFFFF0000000000000FFFFFFFFE0000000000
FFFFFF0000000000001FFFFFFFFC0000000000
FFFFFF0000000000007FFFFFFFF00000000000
FFFFFF000000000000FFFFFFFFE00000000000
FFFFFF000000000001FFFFFFFFC00000000000
FFFFFF000000000007FFFFFFFF000000000000
FFFFFF00000000000FFFFFFFFE000000000000
FFFFFF00000000001FFFFFFFFC000000000000
FFFFFF00000000007FFFFFFFF0000000000000
FFFFFF0000000000FFFFFFFFE0000000000000
FFFFFF0000000001FFFFFFFFC0000000000000
FFFFFF0000000003FFFFFFFF00000000000000
FFFFFF000000000FFFFFFFFE00000000000000
FFFFFF000000001FFFFFFFFC00000000000000
FFFFFF000000003FFFFFFFF800000000000000
FFFFFF00000000FFFFFFFFE000000000000000
FFFFFF00000001FFFFFFFFC000000000000000
FFFFFF00000003FFFFFFFF8000000000000000
FFFFFF0000000FFFFFFFFE0000000000000000
FFFFFF0000001FFFFFFFFC0000000000000000
FFFFFF0000003FFFFFFFF80000000000000000
FFFFFF0000007FFFFFFFE00000000000000000
FFFFFF000001FFFFFFFFC00000000000000000
FFFFFF000003FFFFFFFF800000000000000000
FFFFFF000007FFFFFFFE000000000000000000
FFFFFF00001FFFFFFFFC000000000000000000
FFFFFF00003FFFFFFFF8000000000000000000
FFFFFF00007FFFFFFFE0000000000000000000
FFFFFF0001FFFFFFFFC0000000000000000000
FFFFFF0003FFFFFFFF80000000000000000000
FFFFFF0007FFFFFFFE00000000000000000000
FFFFFF000FFFFFFFFC00000000000000000000
FFFFFF003FFFFFFFF800000000000000000000
FFFFFF007FFFFFFFE000000000000000000000
FFFFFF007FFFFFFFC000000000000000000000
FFFFFF00FFFFFFFF8000000000000000000000
FFFFFF01FFFFFFFE0000000000000000000000
FFFFFF01FFFFFFFC0000000000000000000000
FFFFFF01FFFFFFF80000000000000000000000
FFFFFF01FFFFFFE00000000000000000000000
FFFFFF01FFFFFFC00000000000000000000000
FFFFFF01FFFFFF800000000000000000000000
FFFFFF01FFFFFE000000000000000000000000
FFFFFF01FFFFFF800000000000000000000000
FFFFFF01FFFFFFC00000000000000000000000
FFFFFF01FFFFFFE00000000000000000000000
FFFFFF00FFFFFFF80000000000000000000000
FFFFFF00FFFFFFFC0000000000000000000000
FFFFFF007FFFFFFF0000000000000000000000
FFFFFF003FFFFFFF8000000000000000000000
FFFFFF001FFFFFFFC000000000000000000000
FFFFFF000FFFFFFFF000000000000000000000
FFFFFF0007FFFFFFF800000000000000000000
FFFFFF0001FFFFFFFC00000000000000000000
FFFFFF0000FFFFFFFF00000000000000000000
FFFFFF00007FFFFFFF80000000000000000000
FFFFFF00001FFFFFFFC0000000000000000000
FFFFFF00000FFFFFFFF0000000000000000000
FFFFFF000007FFFFFFF8000000000000000000
FFFFFF000003FFFFFFFC000000000000000000
FFFFFF000000FFFFFFFF000000000000000000
FFFFFF0000007FFFFFFF800000000000000000
FFFFFF0000003FFFFFFFC00000000000000000
FFFFFF0000001FFFFFFFF00000000000000000
FFFFFF00000007FFFFFFF80000000000000000
FFFFFF00000003FFFFFFFC0000000000000000
FFFFFF00000001FFFFFFFF0000000000000000
FFFFFF000000007FFFFFFF8000000000000000
FFFFFF000000003FFFFFFFC000000000000000
FFFFFF000000001FFFFFFFF000000000000000
FFFFFF000000000FFFFFFFF800000000000000
FFFFFF0000000003FFFFFFFC00000000000000
FFFFFF0000000001FFFFFFFF00000000000000
FFFFFF0000000000FFFFFFFF80000000000000
FFFFFF00000000003FFFFFFFC0000000000000
FFFFFF00000000001FFFFFFFF0000000000000
FFFFFF00000000000FFFFFFFF8000000000000
FFFFFF000000000007FFFFFFFC000000000000
FFFFFF000000000001FFFFFFFF000000000000
FFFFFF000000000000FFFFFFFF800000000000
FFFFFF0000000000007FFFFFFFE00000000000
FFFFFF0000000000003FFFFFFFF00000000000
FFFFFF0000000000000FFFFFFFF80000000000
FFFFFF00000000000007FFFFFFFE0000000000
FFFFFF00000000000003FFFFFFFF0000000000
FFFFFF00000000000001FFFFFFFF8000000000
FFFFFF000000000000007FFFFFFFE000000000
FFFFFF000000000000003FFFFFFFF000000000
FFFFFF000000000000001FFFFFFFF800000000
FFFFFF0000000000000007FFFFFFFE00000000
FFFFFF0000000000000003FFFFFFFF00000000
FFFFFF0000000000000001FFFFFFFF80000000
FFFFFF0000000000000000FFFFFFFFE0000000
FFFFFF00000000000000003FFFFFFFF0000000
FFFFFF00000000000000001FFFFFFFF8000000
FFFFFF00000000000000000FFFFFFFFE000000
FFFFFF000000000000000003FFFFFFFF000000
FFFFFF000000000000000001FFFFFFFF800000
FFFFFF000000000000000000FFFFFFFFE00000
FFFFFF0000000000000000007FFFFFFFF00000
FFFFFF0000000000000000001FFFFFFFF80000
FFFFFF0000000000000000000FFFFFFFFE0000
FFFFFF00000000000000000007FFFFFFFF0000
FFFFFF00000000000000000003FFFFFFFF8000
FFFFFF00000000000000000000FFFFFFFFE000
FFFFFF000000000000000000007FFFFFFFF000
FFFFFF000000000000000000003FFFFFFFF800
FFFFFF000000000000000000000FFFFFFFFE00
FFFFFF0000000000000000000007FFFFFFFF80
ENDCHAR
STARTCHAR L
ENCODING 76
SWIDTH 707 0
DWIDTH 129 0
BBX 113 132 11 0
BITMAP
FFFFFF000000000000000000000000
FFFFFF000000000000000000000000
FFFFFF000000000000000000000000
FFFFFF000000000000000000000000
FFFFFF000000000000000000000000
FFFFFF000000000000000000000000
FFFFFF000000000000000000000000
FFFFFF000000000000000000000000
FFFFFF000000000000000000000000
FFFFFF000000000000000000000000
FFFFFF000000000000000000000000
FFFFFF000000000000000000000000
FFFFFF000000000000000000000000
FFFFFF000000000000000000000000
FFFFFF000000000000000000000000
FFFFFF000000000000000000000000
FFFFFF000000000000000000000000
FFFFFF000000000000000000000000
FFFFFF000000000000000000000000
FFFFFF000000000000000000000000
FFFFFF000000000000000000000000
FFFFFF000000000000000000000000
FFFFFF000000000000000000000000
FFFFFF000000000000000000000000
FFFFFF000000000000000000000000
FFFFFF000000000000000000000000
FFFFFF000000000000000000000000
FFFFFF000000000000000000000000
FFFFFF000000000000000000000000
FFFFFF000000000000000000000000
FFFFFF000000000000000000000000
FFFFFF000000000000000000000000
FFFFFF000000000000000000000000
FFFFFF000000000000000000000000
FFFFFF000000000000000000000000
FFFFFF000000000000000000000000
FFFFFF000000000000000000000000
FFFFFF000000000000000000000000
FFFFFF000000000000000000000000
FFFFFF000000000000000000000000
FFFFFF000000000000000000000000
FFFFFF000000000000000000000000
FFFFFF000000000000000000000000
FFFFFF000000000000000000000000
FFFFFF000000000000000000000000
FFFFFF000000000000000000000000
FFFFFF000000000000000000000000
FFFFFF000000000000000000000000
FFFFFF000000000000000000000000
FFFFFF000000000000000000000000
FFFFFF000000000000000000000000
FFFFFF000000000000000000000000
FFFFFF000000000000000000000000
FFFFFF000000000000000000000000
FFFFFF000000000000000000000000
FFFFFF000000000000000000000000
FFFFFF000000000000000000000000
FFFFFF000000000000000000000000
FFFFFF000000000000000000000000
FFFFFF000000000000000000000000
FFFFFF000000000000000000000000
FFFFFF000000000000000000000000
FFFFFF000000000000000000000000
FFFFFF000000000000000000000000
FFFFFF000000000000000000000000
FFFFFF000000000000000000000000
FFFFFF000000000000000000000000
FFFFFF000000000000000000000000
FFFFFF000000000000000000000000
FFFFFF000000000000000000000000
FFFFFF000000000000000000000000
FFFFFF000000000000000000000000
FFFFFF000000000000000000000000
FFFFFF000000000000000000000000
FFFFFF000000000000000000000000
FFFFFF000000000000000000000000
FFFFFF000000000000000000000000
FFFFFF000000000000000000000000
FFFFFF000000000000000000000000
FFFFFF000000000000000000000000
FFFFFF000000000000000000000000
FFFFFF000000000000000000000000
FFFFFF000000000000000000000000
FFFFFF000000000000000000000000
FFFFFF000000000000000000000000
FFFFFF000000000000000000000000
FFFFFF000000000000000000000000
FFFFFF000000000000000000000000
FFFFFF000000000000000000000000
FFFFFF000000000000000000000000
FFFFFF000000000000000000000000
FFFFFF000000000000000000000000
FFFFFF000000000000000000000000
FFFFFF000000000000000000000000
FFFFFF000000000000000000000000
FFFFFF000000000000000000000000
FFFFFF000000000000000000000000
FFFFFF000000000000000000000000
FFFFFF000000000000000000000000
FFFFFF000000000000000000000000
FFFFFF000000000000000000000000
FFFFFF000000000000000000000000
FFFFFF000000000000000000000000
FFFFFF000000000000000000000000
FFFFFF000000000000000000000000
FFFFFF000000000000000000000000
FFFFFF000000000000000000000000
FFFFFF000000000000000000000000
FFFFFF000000000000000000000000
FFFFFFFFFFFFFFFFFFFFFFFFFFFF80
FFFFFFFFFFFFFFFFFFFFFFFFFFFF80
FFFFFFFFFFFFFFFFFFFFFFFFFFFF80
FFFFFFFFFFFFFFFFFFFFFFFFFFFF80
FFFFFFFFFFFFFFFFFFFFFFFFFFFF80
FFFFFFFFFFFFFFFFFFFFFFFFFFFF80
FFFFFFFFFFFFFFFFFFFFFFFFFFFF80
FFFFFFFFFFFFFFFFFFFFFFFFFFFF80
FFFFFFFFFFFFFFFFFFFFFFFFFFFF80
FFFFFFFFFFFFFFFFFFFFFFFFFFFF80
FFFFFFFFFFFFFFFFFFFFFFFFFFFF80
FFFFFFFFFFFFFFFFFFFFFFFFFFFF80
FFFFFFFFFFFFFFFFFFFFFFFFFFFF80
FFFFFFFFFFFFFFFFFFFFFFFFFFFF80
FFFFFFFFFFFFFFFFFFFFFFFFFFFF80
FFFFFFFFFFFFFFFFFFFFFFFFFFFF80
FFFFFFFFFFFFFFFFFFFFFFFFFFFF80
FFFFFFFFFFFFFFFFFFFFFFFFFFFF80
FFFFFFFFFFFFFFFFFFFFFFFFFFFF80
FFFFFFFFFFFFFFFFFFFFFFFFFFFF80
FFFFFFFFFFFFFFFFFFFFFFFFFFFF80
FFFFFFFFFFFFFFFFFFFFFFFFFFFF80
FFFFFFFFFFFFFFFFFFFFFFFFFFFF80
ENDCHAR
STARTCHAR M
ENCODING 77
SWIDTH 1115 0
DWIDTH 203 0
BBX 195 134 4 -2
BITMAP
00000000003F8000000000000000000000003FC00000000000
0000000000FFF00000000000000000000000FFF00000000000
0000000003FFF80000000000000000000001FFF80000000000
0000000007FFFE0000000000000000000003FFFC0000000000
000000000FFFFF0000000000000000000007FFFE0000000000
000000000FFFFF000000000000000000000FFFFF0000000000
000000001FFFFF800000000000000000000FFFFF0000000000
000000001FFFFF800000000000000000001FFFFF8000000000
000000001FFFFFC00000000000000000001FFFFF8000000000
000000003FFFFFC00000000000000000003FFFFF8000000000
000000003FFFFFE00000000000000000003FFFFFC000000000
000000003FFFFFE00000000000000000007FFFFFC000000000
000000003FFFFFF00000000000000000007FFFFFC000000000
000000007FFFFFF0000000000000000000FFFFFFC000000000
000000007FFFFFF8000000000000000000FFFFFFE000000000
000000007FFFFFF8000000000000000000FFFFFFE000000000
00000000FFFFFFF8000000000000000001FFFFFFE000000000
00000000FFFFFFFC000000000000000001FFFFFFF000000000
00000000FFFFFFFC000000000000000003FFFFFFF000000000
00000000FFFFFFFE000000000000000003FFFFFFF000000000
00000001FFFFFFFE000000000000000007FFFFFFF000000000
00000001FFFFFFFF000000000000000007FFFFFFF800000000
00000001FFFFFFFF00000000000000000FFFFFFFF800000000
00000003FFFFFFFF00000000000000000FFFFFFFF800000000
00000003FFFFFFFF80000000000000000FFFFFFFF800000000
00000003FFFFFFFF80000000000000001FFFFFFFFC00000000
00000003FFFFFFFFC0000000000000001FFFFFFFFC00000000
00000007FFFFFFFFC0000000000000003FFFFFFFFC00000000
00000007FFFFFFFFE0000000000000003FFFFFFFFE00000000
00000007FFFFFFFFE0000000000000007FFFFFFFFE00000000
00000007FFFFFFFFF0000000000000007FFFFFFFFE00000000
0000000FFFFFFFFFF0000000000000007FFFFFFFFE00000000
0000000FFFFFFFFFF000000000000000FFFFFFFFFF00000000
0000000FFFFFFFFFF800000000000000FFFFFFFFFF00000000
0000001FFFFFFFFFF800000000000001FFFFFFFFFF00000000
0000001FFFFFFFFFFC00000000000001FFFFFFFFFF00000000
0000001FFFFFFFFFFC00000000000003FFFFFFFFFF80000000
0000001FFFFFFFFFFE00000000000003FFFFFFFFFF80000000
0000003FFFFFFFFFFE00000000000007FFFFFFFFFF80000000
0000003FFFFFFFFFFF00000000000007FFFFFFFFFFC0000000
0000003FFFFFFFFFFF00000000000007FFFFFFFFFFC0000000
0000007FFFFF7FFFFF0000000000000FFFFFFFFFFFC0000000
0000007FFFFF7FFFFF8000000000000FFFFFDFFFFFC0000000
0000007FFFFF3FFFFF8000000000001FFFFFCFFFFFE0000000
0000007FFFFE3FFFFFC000000000001FFFFF8FFFFFE0000000
000000FFFFFE1FFFFFC000000000003FFFFF8FFFFFE0000000
000000FFFFFE1FFFFFE000000000003FFFFF0FFFFFF0000000
000000FFFFFE1FFFFFE000000000007FFFFF07FFFFF0000000
000000FFFFFC0FFFFFF000000000007FFFFE07FFFFF0000000
000001FFFFFC0FFFFFF000000000007FFFFE07FFFFF0000000
000001FFFFFC07FFFFF00000000000FFFFFE03FFFFF8000000
000001FFFFF807FFFFF80000000000FFFFFC03FFFFF8000000
000003FFFFF803FFFFF80000000001FFFFFC03FFFFF8000000
000003FFFFF803FFFFFC0000000001FFFFF803FFFFF8000000
000003FFFFF801FFFFFC0000000003FFFFF801FFFFFC000000
000003FFFFF001FFFFFE0000000003FFFFF001FFFFFC000000
000007FFFFF001FFFFFE0000000007FFFFF001FFFFFC000000
000007FFFFF000FFFFFF0000000007FFFFE000FFFFFE000000
000007FFFFE000FFFFFF0000000007FFFFE000FFFFFE000000
00000FFFFFE0007FFFFF000000000FFFFFE000FFFFFE000000
00000FFFFFE0007FFFFF800000000FFFFFC000FFFFFE000000
00000FFFFFE0003FFFFF800000001FFFFFC0007FFFFF000000
00000FFFFFC0003FFFFFC00000001FFFFF80007FFFFF000000
00001FFFFFC0003FFFFFC00000003FFFFF80007FFFFF000000
00001FFFFFC0001FFFFFE00000003FFFFF00007FFFFF000000
00001FFFFFC0001FFFFFE00000003FFFFF00003FFFFF800000
00001FFFFF80000FFFFFE00000007FFFFE00003FFFFF800000
00003FFFFF80000FFFFFF00000007FFFFE00003FFFFF800000
00003FFFFF800007FFFFF0000000FFFFFE00001FFFFFC00000
00003FFFFF000007FFFFF8000000FFFFFC00001FFFFFC00000
00007FFFFF000003FFFFF8000001FFFFFC00001FFFFFC00000
00007FFFFF000003FFFFFC000001FFFFF800001FFFFFC00000
00007FFFFF000003FFFFFC000003FFFFF800000FFFFFE00000
00007FFFFE000001FFFFFE000003FFFFF000000FFFFFE00000
0000FFFFFE000001FFFFFE000003FFFFF000000FFFFFE00000
0000FFFFFE000000FFFFFE000007FFFFE0000007FFFFF00000
0000FFFFFE000000FFFFFF000007FFFFE0000007FFFFF00000
0001FFFFFC0000007FFFFF00000FFFFFE0000007FFFFF00000
0001FFFFFC0000007FFFFF80000FFFFFC0000007FFFFF00000
0001FFFFFC0000003FFFFF80001FFFFFC0000003FFFFF80000
0001FFFFF80000003FFFFFC0001FFFFF80000003FFFFF80000
0003FFFFF80000003FFFFFC0003FFFFF80000003FFFFF80000
0003FFFFF80000001FFFFFE0003FFFFF00000003FFFFF80000
0003FFFFF80000001FFFFFE0003FFFFF00000001FFFFFC0000
0003FFFFF00000000FFFFFE0007FFFFE00000001FFFFFC0000
0007FFFFF00000000FFFFFF0007FFFFE00000001FFFFFC0000
0007FFFFF000000007FFFFF000FFFFFE00000000FFFFFE0000
0007FFFFE000000007FFFFF800FFFFFC00000000FFFFFE0000
000FFFFFE000000007FFFFF801FFFFFC00000000FFFFFE0000
000FFFFFE000000003FFFFFC01FFFFF800000000FFFFFE0000
000FFFFFE000000003FFFFFC03FFFFF8000000007FFFFF0000
000FFFFFC000000001FFFFFE03FFFFF0000000007FFFFF0000
001FFFFFC000000001FFFFFE03FFFFF0000000007FFFFF0000
001FFFFFC000000000FFFFFE07FFFFF0000000003FFFFF0000
001FFFFFC000000000FFFFFF07FFFFE0000000003FFFFF8000
003FFFFF80000000007FFFFF0FFFFFE0000000003FFFFF8000
003FFFFF80000000007FFFFF8FFFFFC0000000003FFFFF8000
003FFFFF80000000007FFFFF9FFFFFC0000000001FFFFFC000
003FFFFF00000000003FFFFFDFFFFF80000000001FFFFFC000
007FFFFF00000000003FFFFFFFFFFF80000000001FFFFFC000
007FFFFF00000000001FFFFFFFFFFF00000000001FFFFFC000
007FFFFF00000000001FFFFFFFFFFF00000000000FFFFFE000
007FFFFE00000000000FFFFFFFFFFF00000000000FFFFFE000
00FFFFFE00000000000FFFFFFFFFFE00000000000FFFFFE000
00FFFFFE000000000007FFFFFFFFFE000000000007FFFFF000
00FFFFFC000000000007FFFFFFFFFC000000000007FFFFF000
01FFFFFC000000000007FFFFFFFFFC000000000007FFFFF000
01FFFFFC000000000003FFFFFFFFF8000000000007FFFFF000
01FFFFFC000000000003FFFFFFFFF8000000000003FFFFF800
01FFFFF8000000000001FFFFFFFFF0000000000003FFFFF800
03FFFFF8000000000001FFFFFFFFF0000000000003FFFFF800
03FFFFF8000000000000FFFFFFFFF0000000000003FFFFF800
03FFFFF8000000000000FFFFFFFFE0000000000001FFFFFC00
07FFFFF0000000000000FFFFFFFFE0000000000001FFFFFC00
07FFFFF00000000000007FFFFFFFC0000000000001FFFFFC00
07FFFFF00000000000007FFFFFFFC0000000000000FFFFFE00
07FFFFE00000000000003FFFFFFF80000000000000FFFFFE00
0FFFFFE00000000000003FFFFFFF80000000000000FFFFFE00
0FFFFFE00000000000001FFFFFFF00000000000000FFFFFE00
0FFFFFE00000000000001FFFFFFF000000000000007FFFFF00
0FFFFFC00000000000000FFFFFFF000000000000007FFFFF00
1FFFFFC00000000000000FFFFFFE000000000000007FFFFF00
1FFFFFC00000000000000FFFFFFE000000000000003FFFFF00
1FFFFF8000000000000007FFFFFC000000000000003FFFFF80
3FFFFF8000000000000007FFFFFC000000000000003FFFFF80
3FFFFF8000000000000003FFFFF8000000000000003FFFFF80
3FFFFF8000000000000003FFFFF8000000000000001FFFFFC0
3FFFFF0000000000000001FFFFF0000000000000001FFFFFC0
7FFFFF0000000000000001FFFFF0000000000000001FFFFFC0
7FFFFF0000000000000000FFFFE0000000000000001FFFFFC0
7FFFFF00000000000000007FFFC0000000000000000FFFFFE0
FFFFFE00000000000000003FFF80000000000000000FFFFFE0
00000000000000000000001FFE000000000000000000000000
000000000000000000000003F8000000000000000000000000
ENDCHAR
STARTCHAR N
ENCODING 78
SWIDTH 873 0
DWIDTH 159 0
BBX 137 132 11 0
BITMAP
00FE0000000000000000000000001FFFFF80
03FF8000000000000000000000001FFFFF80
0FFFE000000000000000000000001FFFFF80
1FFFF000000000000000000000001FFFFF80
3FFFF800000000000000000000001FFFFF80
3FFFFC00000000000000000000001FFFFF80
7FFFFE00000000000000000000001FFFFF80
7FFFFF00000000000000000000001FFFFF80
7FFFFFC0000000000000000000001FFFFF80
FFFFFFE0000000000000000000001FFFFF80
FFFFFFF0000000000000000000001FFFFF80
FFFFFFF8000000000000000000001FFFFF80
FFFFFFFC000000000000000000001FFFFF80
FFFFFFFE000000000000000000001FFFFF80
FFFFFFFF000000000000000000001FFFFF80
FFFFFFFF800000000000000000001FFFFF80
FFFFFFFFC00000000000000000001FFFFF80
FFFFFFFFE00000000000000000001FFFFF80
FFFFFFFFF00000000000000000001FFFFF80
FFFFFFFFF80000000000000000001FFFFF80
FFFFFFFFFC0000000000000000001FFFFF80
FFFFFFFFFE0000000000000000001FFFFF80
FFFFFFFFFF0000000000000000001FFFFF80
FFFFFFFFFF8000000000000000001FFFFF80
FFFFFFFFFFC000000000000000001FFFFF80
FFFFFFFFFFE000000000000000001FFFFF80
FFFFFFFFFFF000000000000000001FFFFF80
FFFFFFFFFFF800000000000000001FFFFF80
FFFFFFFFFFFC00000000000000001FFFFF80
FFFFFFFFFFFE00000000000000001FFFFF80
FFFFFFFFFFFF00000000000000001FFFFF80
FFFFFFFFFFFF80000000000000001FFFFF80
FFFFFFFFFFFFC0000000000000001FFFFF80
FFFFFFFFFFFFE0000000000000001FFFFF80
FFFFFFFFFFFFF0000000000000001FFFFF80
FFFFFFFFFFFFF8000000000000001FFFFF80
FFFFFFFFFFFFFC000000000000001FFFFF80
FFFFFDFFFFFFFE000000000000001FFFFF80
FFFFFCFFFFFFFF000000000000001FFFFF80
FFFFFC7FFFFFFF800000000000001FFFFF80
FFFFFC3FFFFFFFC00000000000001FFFFF80
FFFFFC1FFFFFFFE00000000000001FFFFF80
FFFFFC0FFFFFFFF00000000000001FFFFF80
FFFFFC07FFFFFFF80000000000001FFFFF80
FFFFFC03FFFFFFFC0000000000001FFFFF80
FFFFFC01FFFFFFFE0000000000001FFFFF80
FFFFFC00FFFFFFFF0000000000001FFFFF80
FFFFFC007FFFFFFF8000000000001FFFFF80
FFFFFC003FFFFFFFC000000000001FFFFF80
FFFFFC001FFFFFFFE000000000001FFFFF80
FFFFFC000FFFFFFFF000000000001FFFFF80
FFFFFC0007FFFFFFF800000000001FFFFF80
FFFFFC0003FFFFFFFC00000000001FFFFF80
FFFFFC0001FFFFFFFE00000000001FFFFF80
FFFFFC0000FFFFFFFF00000000001FFFFF80
FFFFFC00007FFFFFFFC0000000001FFFFF80
FFFFFC00003FFFFFFFE0000000001FFFFF80
FFFFFC00001FFFFFFFF0000000001FFFFF80
FFFFFC00000FFFFFFFF8000000001FFFFF80
FFFFFC000007FFFFFFFC000000001FFFFF80
FFFFFC000003FFFFFFFE000000001FFFFF80
FFFFFC000001FFFFFFFF000000001FFFFF80
FFFFFC000000FFFFFFFF800000001FFFFF80
FFFFFC0000007FFFFFFFC00000001FFFFF80
FFFFFC0000003FFFFFFFE00000001FFFFF80
FFFFFC0000001FFFFFFFF00000001FFFFF80
FFFFFC0000000FFFFFFFF80000001FFFFF80
FFFFFC00000007FFFFFFFC0000001FFFFF80
FFFFFC00000003FFFFFFFE0000001FFFFF80
FFFFFC00000001FFFFFFFF0000001FFFFF80
FFFFFC00000000FFFFFFFF8000001FFFFF80
FFFFFC000000003FFFFFFFC000001FFFFF80
FFFFFC000000001FFFFFFFE000001FFFFF80
FFFFFC000000000FFFFFFFF000001FFFFF80
FFFFFC0000000007FFFFFFF800001FFFFF80
FFFFFC0000000003FFFFFFFC00001FFFFF80
FFFFFC0000000001FFFFFFFE00001FFFFF80
FFFFFC0000000000FFFFFFFF00001FFFFF80
FFFFFC00000000007FFFFFFF80001FFFFF80
FFFFFC00000000003FFFFFFFC0001FFFFF80
FFFFFC00000000001FFFFFFFE0001FFFFF80
FFFFFC00000000000FFFFFFFF0001FFFFF80
FFFFFC000000000007FFFFFFF8001FFFFF80
FFFFFC000000000003FFFFFFFC001FFFFF80
FFFFFC000000000001FFFFFFFE001FFFFF80
FFFFFC000000000000FFFFFFFF001FFFFF80
FFFFFC0000000000007FFFFFFF801FFFFF80
FFFFFC0000000000003FFFFFFFC01FFFFF80
FFFFFC0000000000001FFFFFFFE01FFFFF80
FFFFFC0000000000000FFFFFFFF01FFFFF80
FFFFFC00000000000007FFFFFFF81FFFFF80
FFFFFC00000000000003FFFFFFFC1FFFFF80
FFFFFC00000000000001FFFFFFFE1FFFFF80
FFFFFC00000000000000FFFFFFFF1FFFFF80
FFFFFC000000000000007FFFFFFF9FFFFF80
FFFFFC000000000000003FFFFFFFDFFFFF80
FFFFFC000000000000001FFFFFFFFFFFFF80
FFFFFC000000000000000FFFFFFFFFFFFF80
FFFFFC0000000000000007FFFFFFFFFFFF80
FFFFFC0000000000000003FFFFFFFFFFFF80
FFFFFC0000000000000001FFFFFFFFFFFF80
FFFFFC0000000000000000FFFFFFFFFFFF80
FFFFFC00000000000000007FFFFFFFFFFF80
FFFFFC00000000000000003FFFFFFFFFFF80
FFFFFC00000000000000001FFFFFFFFFFF80
FFFFFC000000000000000007FFFFFFFFFF80
FFFFFC000000000000000003FFFFFFFFFF80
FFFFFC000000000000000001FFFFFFFFFF80
FFFFFC000000000000000000FFFFFFFFFF80
FFFFFC0000000000000000007FFFFFFFFF80
FFFFFC0000000000000000003FFFFFFFFF80
FFFFFC0000000000000000001FFFFFFFFF80
FFFFFC0000000000000000000FFFFFFFFF80
FFFFFC00000000000000000007FFFFFFFF80
FFFFFC00000000000000000003FFFFFFFF80
FFFFFC00000000000000000001FFFFFFFF80
FFFFFC00000000000000000000FFFFFFFF80
FFFFFC000000000000000000007FFFFFFF80
FFFFFC000000000000000000003FFFFFFF80
FFFFFC000000000000000000001FFFFFFF80
FFFFFC000000000000000000000FFFFFFF80
FFFFFC0000000000000000000007FFFFFF80
FFFFFC0000000000000000000003FFFFFF80
FFFFFC0000000000000000000001FFFFFF00
FFFFFC0000000000000000000000FFFFFF00
FFFFFC00000000000000000000007FFFFF00
FFFFFC00000000000000000000003FFFFE00
FFFFFC00000000000000000000001FFFFE00
FFFFFC00000000000000000000000FFFFC00
FFFFFC000000000000000000000003FFF800
FFFFFC000000000000000000000001FFE000
FFFFFC0000000000000000000000003F8000
ENDCHAR
STARTCHAR O
ENCODING 79
SWIDTH 968 0
DWIDTH 176 0
BBX 161 132 8 0
BITMAP
00000000000001FFFFFFFFFFFF8000000000000000
0000000000007FFFFFFFFFFFFFFF00000000000000
000000000007FFFFFFFFFFFFFFFFF0000000000000
00000000007FFFFFFFFFFFFFFFFFFE000000000000
0000000001FFFFFFFFFFFFFFFFFFFFC00000000000
000000000FFFFFFFFFFFFFFFFFFFFFF00000000000
000000003FFFFFFFFFFFFFFFFFFFFFFE0000000000
00000000FFFFFFFFFFFFFFFFFFFFFFFF8000000000
00000003FFFFFFFFFFFFFFFFFFFFFFFFC000000000
0000000FFFFFFFFFFFFFFFFFFFFFFFFFF000000000
0000001FFFFFFFFFFFFFFFFFFFFFFFFFFC00000000
0000007FFFFFFFFFFFFFFFFFFFFFFFFFFE00000000
000000FFFFFFFFFFFFFFFFFFFFFFFFFFFF80000000
000001FFFFFFFFFFFFFFFFFFFFFFFFFFFFC0000000
000007FFFFFFFFFFFFFFFFFFFFFFFFFFFFE0000000
00000FFFFFFFFFFFFFFFFFFFFFFFFFFFFFF0000000
00001FFFFFFFFFFFFFFFFFFFFFFFFFFFFFF8000000
00003FFFFFFFFFFFFFFFFFFFFFFFFFFFFFFC000000
00007FFFFFFFFFFFFFFFFFFFFFFFFFFFFFFE000000
0000FFFFFFFFFFFFFFFFFFFFFFFFFFFFFFFF000000
0001FFFFFFFFFFFFFFFFFFFFFFFFFFFFFFFF800000
0003FFFFFFFFFFFFFFFFFFFFFFFFFFFFFFFFC00000
0003FFFFFFFFFFFFFFFFFFFFFFFFFFFFFFFFE00000
0007FFFFFFFFFFC00000000003FFFFFFFFFFF00000
000FFFFFFFFFF00000000000000FFFFFFFFFF00000
001FFFFFFFFF8000000000000001FFFFFFFFF80000
001FFFFFFFFE00000000000000007FFFFFFFFC0000
003FFFFFFFF800000000000000000FFFFFFFFE0000
007FFFFFFFE0000000000000000007FFFFFFFE0000
007FFFFFFF80000000000000000001FFFFFFFF0000
00FFFFFFFF000000000000000000007FFFFFFF0000
00FFFFFFFC000000000000000000003FFFFFFF8000
01FFFFFFF8000000000000000000001FFFFFFF8000
01FFFFFFF0000000000000000000000FFFFFFFC000
03FFFFFFE00000000000000000000007FFFFFFC000
03FFFFFFC00000000000000000000003FFFFFFE000
07FFFFFF800000000000000000000001FFFFFFE000
07FFFFFF000000000000000000000000FFFFFFF000
0FFFFFFE0000000000000000000000007FFFFFF000
0FFFFFFE0000000000000000000000003FFFFFF800
0FFFFFFC0000000000000000000000003FFFFFF800
1FFFFFF80000000000000000000000001FFFFFF800
1FFFFFF80000000000000000000000000FFFFFFC00
1FFFFFF00000000000000000000000000FFFFFFC00
3FFFFFF000000000000000000000000007FFFFFC00
3FFFFFE000000000000000000000000007FFFFFC00
3FFFFFE000000000000000000000000003FFFFFE00
7FFFFFC000000000000000000000000003FFFFFE00
7FFFFFC000000000000000000000000001FFFFFE00
7FFFFF8000000000000000000000000001FFFFFE00
7FFFFF8000000000000000000000000001FFFFFF00
7FFFFF8000000000000000000000000000FFFFFF00
7FFFFF8000000000000000000000000000FFFFFF00
FFFFFF0000000000000000000000000000FFFFFF00
FFFFFF0000000000000000000000000000FFFFFF00
FFFFFF00000000000000000000000000007FFFFF00
FFFFFF00000000000000000000000000007FFFFF00
FFFFFE00000000000000000000000000007FFFFF80
FFFFFE00000000000000000000000000007FFFFF80
FFFFFE00000000000000000000000000007FFFFF80
FFFFFE00000000000000000000000000007FFFFF80
FFFFFE00000000000000000000000000003FFFFF80
FFFFFE00000000000000000000000000003FFFFF80
FFFFFE00000000000000000000000000003FFFFF80
FFFFFE00000000000000000000000000003FFFFF80
FFFFFE00000000000000000000000000003FFFFF80
FFFFFE00000000000000000000000000003FFFFF80
FFFFFE00000000000000000000000000003FFFFF80
FFFFFE00000000000000000000000000003FFFFF80
FFFFFE00000000000000000000000000003FFFFF80
FFFFFE00000000000000000000000000003FFFFF80
FFFFFE00000000000000000000000000007FFFFF80
FFFFFE00000000000000000000000000007FFFFF80
FFFFFE00000000000000000000000000007FFFFF00
FFFFFE00000000000000000000000000007FFFFF00
FFFFFF00000000000000000000000000007FFFFF00
FFFFFF00000000000000000000000000007FFFFF00
7FFFFF0000000000000000000000000000FFFFFF00
7FFFFF0000000000000000000000000000FFFFFF00
7FFFFF8000000000000000000000000000FFFFFE00
7FFFFF8000000000000000000000000000FFFFFE00
7FFFFF8000000000000000000000000001FFFFFE00
3FFFFFC000000000000000000000000001FFFFFE00
3FFFFFC000000000000000000000000003FFFFFE00
3FFFFFC000000000000000000000000003FFFFFC00
3FFFFFE000000000000000000000000003FFFFFC00
1FFFFFE000000000000000000000000007FFFFFC00
1FFFFFF000000000000000000000000007FFFFF800
1FFFFFF00000000000000000000000000FFFFFF800
0FFFFFF80000000000000000000000000FFFFFF800
0FFFFFFC0000000000000000000000001FFFFFF000
07FFFFFC0000000000000000000000003FFFFFF000
07FFFFFE0000000000000000000000003FFFFFF000
07FFFFFF0000000000000000000000007FFFFFE000
03FFFFFF000000000000000000000000FFFFFFE000
03FFFFFF800000000000000000000001FFFFFFC000
01FFFFFFC00000000000000000000003FFFFFFC000
01FFFFFFE00000000000000000000007FFFFFF8000
00FFFFFFF0000000000000000000000FFFFFFF8000
00FFFFFFF8000000000000000000001FFFFFFF0000
007FFFFFFE000000000000000000003FFFFFFF0000
007FFFFFFF00000000000000000000FFFFFFFE0000
003FFFFFFF80000000000000000001FFFFFFFC0000
001FFFFFFFE0000000000000000007FFFFFFFC0000
001FFFFFFFF800000000000000001FFFFFFFF80000
000FFFFFFFFE00000000000000007FFFFFFFF00000
0007FFFFFFFFC000000000000001FFFFFFFFF00000
0007FFFFFFFFF80000000000000FFFFFFFFFE00000
0003FFFFFFFFFFC00000000001FFFFFFFFFFC00000
0001FFFFFFFFFFFFFFFFFFFFFFFFFFFFFFFF800000
0000FFFFFFFFFFFFFFFFFFFFFFFFFFFFFFFF800000
00007FFFFFFFFFFFFFFFFFFFFFFFFFFFFFFF000000
00003FFFFFFFFFFFFFFFFFFFFFFFFFFFFFFE000000
00001FFFFFFFFFFFFFFFFFFFFFFFFFFFFFFC000000
00000FFFFFFFFFFFFFFFFFFFFFFFFFFFFFF8000000
000007FFFFFFFFFFFFFFFFFFFFFFFFFFFFF0000000
000003FFFFFFFFFFFFFFFFFFFFFFFFFFFFE0000000
000001FFFFFFFFFFFFFFFFFFFFFFFFFFFF80000000
000000FFFFFFFFFFFFFFFFFFFFFFFFFFFF00000000
0000003FFFFFFFFFFFFFFFFFFFFFFFFFFE00000000
0000001FFFFFFFFFFFFFFFFFFFFFFFFFF800000000
00000007FFFFFFFFFFFFFFFFFFFFFFFFF000000000
00000003FFFFFFFFFFFFFFFFFFFFFFFFC000000000
00000000FFFFFFFFFFFFFFFFFFFFFFFF8000000000
000000007FFFFFFFFFFFFFFFFFFFFFFE0000000000
000000001FFFFFFFFFFFFFFFFFFFFFF80000000000
0000000003FFFFFFFFFFFFFFFFFFFFE00000000000
0000000000FFFFFFFFFFFFFFFFFFFF000000000000
00000000003FFFFFFFFFFFFFFFFFFC000000000000
000000000003FFFFFFFFFFFFFFFFE0000000000000
0000000000007FFFFFFFFFFFFFFE00000000000000
00000000000000FFFFFFFFFFFF0000000000000000
ENDCHAR
STARTCHAR P
ENCODING 80
SWIDTH 867 0
DWIDTH 158 0
BBX 142 132 11 0
BITMAP
FFFFFFFFFFFFFFFFFFFFFFFFFC0000000000
FFFFFFFFFFFFFFFFFFFFFFFFFFF000000000
FFFFFFFFFFFFFFFFFFFFFFFFFFFE00000000
FFFFFFFFFFFFFFFFFFFFFFFFFFFFC0000000
FFFFFFFFFFFFFFFFFFFFFFFFFFFFF8000000
FFFFFFFFFFFFFFFFFFFFFFFFFFFFFE000000
FFFFFFFFFFFFFFFFFFFFFFFFFFFFFF800000
FFFFFFFFFFFFFFFFFFFFFFFFFFFFFFC00000
FFFFFFFFFFFFFFFFFFFFFFFFFFFFFFF00000
FFFFFFFFFFFFFFFFFFFFFFFFFFFFFFF80000
FFFFFFFFFFFFFFFFFFFFFFFFFFFFFFFE0000
FFFFFFFFFFFFFFFFFFFFFFFFFFFFFFFF0000
FFFFFFFFFFFFFFFFFFFFFFFFFFFFFFFF8000
FFFFFFFFFFFFFFFFFFFFFFFFFFFFFFFFC000
FFFFFFFFFFFFFFFFFFFFFFFFFFFFFFFFE000
FFFFFFFFFFFFFFFFFFFFFFFFFFFFFFFFF000
FFFFFFFFFFFFFFFFFFFFFFFFFFFFFFFFF000
FFFFFFFFFFFFFFFFFFFFFFFFFFFFFFFFF800
FFFFFFFFFFFFFFFFFFFFFFFFFFFFFFFFFC00
FFFFFFFFFFFFFFFFFFFFFFFFFFFFFFFFFE00
FFFFFFFFFFFFFFFFFFFFFFFFFFFFFFFFFE00
FFFFFFFFFFFFFFFFFFFFFFFFFFFFFFFFFF00
FFFFFFFFFFFFFFFFFFFFFFFFFFFFFFFFFF00
FFFFFE0000000000000000001FFFFFFFFF80
FFFFFE00000000000000000001FFFFFFFF80
FFFFFE000000000000000000003FFFFFFFC0
FFFFFE000000000000000000000FFFFFFFC0
FFFFFE0000000000000000000003FFFFFFE0
FFFFFE0000000000000000000001FFFFFFE0
FFFFFE0000000000000000000000FFFFFFE0
FFFFFE00000000000000000000007FFFFFF0
FFFFFE00000000000000000000003FFFFFF0
FFFFFE00000000000000000000001FFFFFF0
FFFFFE00000000000000000000001FFFFFF0
FFFFFE00000000000000000000000FFFFFF8
FFFFFE000000000000000000000007FFFFF8
FFFFFE000000000000000000000007FFFFF8
FFFFFE000000000000000000000003FFFFF8
FFFFFE000000000000000000000003FFFFF8
FFFFFE000000000000000000000003FFFFF8
FFFFFE000000000000000000000003FFFFFC
FFFFFE000000000000000000000001FFFFFC
FFFFFE000000000000000000000001FFFFFC
FFFFFE000000000000000000000001FFFFFC
FFFFFE000000000000000000000001FFFFFC
FFFFFE000000000000000000000001FFFFFC
FFFFFE000000000000000000000001FFFFFC
FFFFFE000000000000000000000001FFFFFC
FFFFFE000000000000000000000001FFFFFC
FFFFFE000000000000000000000001FFFFFC
FFFFFE000000000000000000000001FFFFFC
FFFFFE000000000000000000000001FFFFFC
FFFFFE000000000000000000000001FFFFFC
FFFFFE000000000000000000000001FFFFFC
FFFFFE000000000000000000000001FFFFF8
FFFFFE000000000000000000000003FFFFF8
FFFFFE000000000000000000000003FFFFF8
FFFFFE000000000000000000000003FFFFF8
FFFFFE000000000000000000000007FFFFF8
FFFFFE000000000000000000000007FFFFF8
FFFFFE000000000000000000000007FFFFF0
FFFFFE00000000000000000000000FFFFFF0
FFFFFE00000000000000000000001FFFFFF0
FFFFFE00000000000000000000001FFFFFF0
FFFFFE00000000000000000000003FFFFFE0
FFFFFE00000000000000000000007FFFFFE0
FFFFFE0000000000000000000000FFFFFFE0
FFFFFE0000000000000000000001FFFFFFC0
FFFFFE0000000000000000000003FFFFFFC0
FFFFFE000000000000000000000FFFFFFF80
FFFFFE000000000000000000003FFFFFFF80
FFFFFE00000000000000000000FFFFFFFF00
FFFFFE0000000000000000000FFFFFFFFF00
FFFFFE0000FFFFFFFFFFFFFFFFFFFFFFFE00
FFFFFE0000FFFFFFFFFFFFFFFFFFFFFFFE00
FFFFFE0000FFFFFFFFFFFFFFFFFFFFFFFC00
FFFFFE0000FFFFFFFFFFFFFFFFFFFFFFF800
FFFFFE0000FFFFFFFFFFFFFFFFFFFFFFF800
FFFFFE0000FFFFFFFFFFFFFFFFFFFFFFF000
FFFFFE0000FFFFFFFFFFFFFFFFFFFFFFE000
FFFFFE0000FFFFFFFFFFFFFFFFFFFFFFC000
FFFFFE0000FFFFFFFFFFFFFFFFFFFFFF8000
FFFFFE0000FFFFFFFFFFFFFFFFFFFFFF0000
FFFFFE0000FFFFFFFFFFFFFFFFFFFFFE0000
FFFFFE0000FFFFFFFFFFFFFFFFFFFFFC0000
FFFFFE0000FFFFFFFFFFFFFFFFFFFFF80000
FFFFFE0000FFFFFFFFFFFFFFFFFFFFE00000
FFFFFE0000FFFFFFFFFFFFFFFFFFFFC00000
FFFFFE0000FFFFFFFFFFFFFFFFFFFF000000
FFFFFE0000FFFFFFFFFFFFFFFFFFFC000000
FFFFFE0000FFFFFFFFFFFFFFFFFFF0000000
FFFFFE0000FFFFFFFFFFFFFFFFFFC0000000
FFFFFE0000FFFFFFFFFFFFFFFFFE00000000
FFFFFE0000FFFFFFFFFFFFFFFFE000000000
FFFFFE0000FFFFFFFFFFFFFFFC0000000000
FFFFFE000000000000000000000000000000
FFFFFE000000000000000000000000000000
FFFFFE000000000000000000000000000000
FFFFFE000000000000000000000000000000
FFFFFE000000000000000000000000000000
FFFFFE000000000000000000000000000000
FFFFFE000000000000000000000000000000
FFFFFE000000000000000000000000000000
FFFFFE000000000000000000000000000000
FFFFFE000000000000000000000000000000
FFFFFE000000000000000000000000000000
FFFFFE000000000000000000000000000000
FFFFFE000000000000000000000000000000
FFFFFE000000000000000000000000000000
FFFFFE000000000000000000000000000000
FFFFFE000000000000000000000000000000
FFFFFE000000000000000000000000000000
FFFFFE000000000000000000000000000000
FFFFFE000000000000000000000000000000
FFFFFE000000000000000000000000000000
FFFFFE000000000000000000000000000000
FFFFFE000000000000000000000000000000
FFFFFE000000000000000000000000000000
FFFFFE000000000000000000000000000000
FFFFFE000000000000000000000000000000
FFFFFE000000000000000000000000000000
FFFFFE000000000000000000000000000000
FFFFFE000000000000000000000000000000
FFFFFE000000000000000000000000000000
FFFFFE000000000000000000000000000000
FFFFFE000000000000000000000000000000
FFFFFE000000000000000000000000000000
FFFFFE000000000000000000000000000000
FFFFFE000000000000000000000000000000
FFFFFE000000000000000000000000000000
FFFFFE000000000000000000000000000000
FFFFFE000000000000000000000000000000
ENDCHAR
STARTCHAR Q
ENCODING 81
SWIDTH 968 0
DWIDTH 176 0
BBX 167 132 8 0
BITMAP
00000000000001FFFFFFFFFFFF8000000000000000
0000000000007FFFFFFFFFFFFFFF00000000000000
000000000007FFFFFFFFFFFFFFFFF0000000000000
00000000007FFFFFFFFFFFFFFFFFFE000000000000
0000000001FFFFFFFFFFFFFFFFFFFFC00000000000
000000000FFFFFFFFFFFFFFFFFFFFFF00000000000
000000003FFFFFFFFFFFFFFFFFFFFFFE0000000000
00000000FFFFFFFFFFFFFFFFFFFFFFFF8000000000
00000003FFFFFFFFFFFFFFFFFFFFFFFFC000000000
0000000FFFFFFFFFFFFFFFFFFFFFFFFFF000000000
0000001FFFFFFFFFFFFFFFFFFFFFFFFFFC00000000
0000007FFFFFFFFFFFFFFFFFFFFFFFFFFE00000000
000000FFFFFFFFFFFFFFFFFFFFFFFFFFFF80000000
000001FFFFFFFFFFFFFFFFFFFFFFFFFFFFC0000000
000007FFFFFFFFFFFFFFFFFFFFFFFFFFFFE0000000
00000FFFFFFFFFFFFFFFFFFFFFFFFFFFFFF0000000
00001FFFFFFFFFFFFFFFFFFFFFFFFFFFFFF8000000
00003FFFFFFFFFFFFFFFFFFFFFFFFFFFFFFC000000
00007FFFFFFFFFFFFFFFFFFFFFFFFFFFFFFE000000
0000FFFFFFFFFFFFFFFFFFFFFFFFFFFFFFFF000000
0001FFFFFFFFFFFFFFFFFFFFFFFFFFFFFFFF800000
0003FFFFFFFFFFFFFFFFFFFFFFFFFFFFFFFFC00000
0003FFFFFFFFFFFFFFFFFFFFFFFFFFFFFFFFE00000
0007FFFFFFFFFFC00000000003FFFFFFFFFFF00000
000FFFFFFFFFF00000000000000FFFFFFFFFF80000
001FFFFFFFFF8000000000000001FFFFFFFFF80000
001FFFFFFFFE00000000000000007FFFFFFFFC0000
003FFFFFFFF800000000000000000FFFFFFFFE0000
007FFFFFFFE0000000000000000007FFFFFFFE0000
007FFFFFFF80000000000000000001FFFFFFFF0000
00FFFFFFFF000000000000000000007FFFFFFF0000
00FFFFFFFC000000000000000000003FFFFFFF8000
01FFFFFFF8000000000000000000001FFFFFFF8000
01FFFFFFF0000000000000000000000FFFFFFFC000
03FFFFFFE00000000000000000000007FFFFFFC000
03FFFFFFC00000000000000000000003FFFFFFE000
07FFFFFF800000000000000000000001FFFFFFE000
07FFFFFF000000000000000000000000FFFFFFF000
0FFFFFFE0000000000000000000000007FFFFFF000
0FFFFFFE0000000000000000000000003FFFFFF800
0FFFFFFC0000000000000000000000003FFFFFF800
1FFFFFF80000000000000000000000001FFFFFF800
1FFFFFF80000000000000000000000000FFFFFFC00
1FFFFFF00000000000000000000000000FFFFFFC00
3FFFFFF000000000000000000000000007FFFFFC00
3FFFFFE000000000000000000000000007FFFFFC00
3FFFFFE000000000000000000000000003FFFFFE00
7FFFFFC000000000000000000000000003FFFFFE00
7FFFFFC000000000000000000000000001FFFFFE00
7FFFFF8000000000000000000000000001FFFFFE00
7FFFFF8000000000000000000000000001FFFFFF00
7FFFFF8000000000000000000000000000FFFFFF00
7FFFFF8000000000000000000000000000FFFFFF00
FFFFFF0000000000000000000000000000FFFFFF00
FFFFFF0000000000000000000000000000FFFFFF00
FFFFFF00000000000000000000000000007FFFFF00
FFFFFF00000000000000000000000000007FFFFF00
FFFFFE00000000000000000000000000007FFFFF80
FFFFFE00000000000000000000000000007FFFFF80
FFFFFE00000000000000000000000000007FFFFF80
FFFFFE00000000000000000000000000007FFFFF80
FFFFFE00000000000000000000000000003FFFFF80
FFFFFE00000000000000000000000000003FFFFF80
FFFFFE00000000000000000000000000003FFFFF80
FFFFFE00000000000000000000000000003FFFFF80
FFFFFE00000000000000000000000000003FFFFF80
FFFFFE00000000000000000000000000003FFFFF80
FFFFFE00000000000000000000000000003FFFFF80
FFFFFE00000000000000000000000000003FFFFF80
FFFFFE00000000000000000000000000003FFFFF80
FFFFFE00000000000000000000000000003FFFFF80
FFFFFE00000000000000000000000000007FFFFF80
FFFFFE00000000000000000000000000007FFFFF80
FFFFFE00000000000000000000000000007FFFFF00
FFFFFE00000000000000000000000000007FFFFF00
FFFFFF00000000000000000000000000007FFFFF00
FFFFFF00000000000000000000000000007FFFFF00
7FFFFF0000000000060000000000000000FFFFFF00
7FFFFF000000000001FFFFFFF800000000FFFFFF00
7FFFFF800000000000FFFFFFFC00000000FFFFFE00
7FFFFF8000000000007FFFFFFE00000000FFFFFE00
7FFFFF8000000000003FFFFFFF80000001FFFFFE00
3FFFFFC000000000000FFFFFFFC0000001FFFFFE00
3FFFFFC0000000000007FFFFFFE0000003FFFFFE00
3FFFFFC0000000000003FFFFFFF0000003FFFFFC00
3FFFFFE0000000000001FFFFFFF8000003FFFFFC00
1FFFFFE00000000000007FFFFFFE000007FFFFFC00
1FFFFFF00000000000003FFFFFFF000007FFFFF800
1FFFFFF00000000000001FFFFFFF80000FFFFFF800
0FFFFFF800000000000007FFFFFFC0001FFFFFF800
0FFFFFFC00000000000003FFFFFFE0001FFFFFF000
07FFFFFC00000000000001FFFFFFF8003FFFFFF000
07FFFFFE00000000000000FFFFFFFC007FFFFFF000
07FFFFFF000000000000003FFFFFFE007FFFFFE000
03FFFFFF000000000000001FFFFFFF00FFFFFFE000
03FFFFFF800000000000000FFFFFFF81FFFFFFC000
01FFFFFFC000000000000003FFFFFFC3FFFFFFC000
01FFFFFFE000000000000001FFFFFFF7FFFFFF8000
00FFFFFFF000000000000000FFFFFFFFFFFFFF8000
00FFFFFFF8000000000000007FFFFFFFFFFFFF0000
007FFFFFFE000000000000001FFFFFFFFFFFFF0000
007FFFFFFF000000000000000FFFFFFFFFFFFE0000
003FFFFFFF8000000000000007FFFFFFFFFFFC0000
001FFFFFFFE000000000000003FFFFFFFFFFFC0000
001FFFFFFFF800000000000000FFFFFFFFFFF80000
000FFFFFFFFE000000000000007FFFFFFFFFF00000
0007FFFFFFFFC00000000000003FFFFFFFFFF00000
0007FFFFFFFFF80000000000001FFFFFFFFFE00000
0003FFFFFFFFFFC00000000003FFFFFFFFFFC00000
0001FFFFFFFFFFFFFFFFFFFFFFFFFFFFFFFF800000
0000FFFFFFFFFFFFFFFFFFFFFFFFFFFFFFFF800000
00007FFFFFFFFFFFFFFFFFFFFFFFFFFFFFFF000000
00003FFFFFFFFFFFFFFFFFFFFFFFFFFFFFFE000000
00001FFFFFFFFFFFFFFFFFFFFFFFFFFFFFFF000000
00000FFFFFFFFFFFFFFFFFFFFFFFFFFFFFFF800000
000007FFFFFFFFFFFFFFFFFFFFFFFFFFFFFFC00000
000003FFFFFFFFFFFFFFFFFFFFFFFFFFFFFFE00000
000001FFFFFFFFFFFFFFFFFFFFFFFFFFFFFFF80000
000000FFFFFFFFFFFFFFFFFFFFFFFFFFFFFFFC0000
0000003FFFFFFFFFFFFFFFFFFFFFFFFFFFFFFE0000
0000001FFFFFFFFFFFFFFFFFFFFFFFFFFFFFFF8000
00000007FFFFFFFFFFFFFFFFFFFFFFFFFFFFFFC000
00000003FFFFFFFFFFFFFFFFFFFFFFFFFFFFFFE000
00000000FFFFFFFFFFFFFFFFFFFFFFFFFFFFFFF000
000000007FFFFFFFFFFFFFFFFFFFFFFEFFFFFFFC00
000000001FFFFFFFFFFFFFFFFFFFFFF87FFFFFFE00
0000000003FFFFFFFFFFFFFFFFFFFFE03FFFFFFF00
0000000000FFFFFFFFFFFFFFFFFFFF001FFFFFFFC0
00000000003FFFFFFFFFFFFFFFFFF80007FFFFFFE0
000000000003FFFFFFFFFFFFFFFFC00003FFFFFFF0
0000000000007FFFFFFFFFFFFFFC000001FFFFFFFC
00000000000000FFFFFFFFFFFF80000000FFFFFFFE
ENDCHAR
STARTCHAR R
ENCODING 82
SWIDTH 921 0
DWIDTH 168 0
BBX 156 132 11 0
BITMAP
FFFFFFFFFFFFFFFFFFFFFFFFFF00000000000000
FFFFFFFFFFFFFFFFFFFFFFFFFFFC000000000000
FFFFFFFFFFFFFFFFFFFFFFFFFFFF800000000000
FFFFFFFFFFFFFFFFFFFFFFFFFFFFF00000000000
FFFFFFFFFFFFFFFFFFFFFFFFFFFFFC0000000000
FFFFFFFFFFFFFFFFFFFFFFFFFFFFFF8000000000
FFFFFFFFFFFFFFFFFFFFFFFFFFFFFFC000000000
FFFFFFFFFFFFFFFFFFFFFFFFFFFFFFF000000000
FFFFFFFFFFFFFFFFFFFFFFFFFFFFFFFC00000000
FFFFFFFFFFFFFFFFFFFFFFFFFFFFFFFE00000000
FFFFFFFFFFFFFFFFFFFFFFFFFFFFFFFF00000000
FFFFFFFFFFFFFFFFFFFFFFFFFFFFFFFF80000000
FFFFFFFFFFFFFFFFFFFFFFFFFFFFFFFFC0000000
FFFFFFFFFFFFFFFFFFFFFFFFFFFFFFFFE0000000
FFFFFFFFFFFFFFFFFFFFFFFFFFFFFFFFF0000000
FFFFFFFFFFFFFFFFFFFFFFFFFFFFFFFFF8000000
FFFFFFFFFFFFFFFFFFFFFFFFFFFFFFFFFC000000
FFFFFFFFFFFFFFFFFFFFFFFFFFFFFFFFFE000000
FFFFFFFFFFFFFFFFFFFFFFFFFFFFFFFFFE000000
FFFFFFFFFFFFFFFFFFFFFFFFFFFFFFFFFF000000
FFFFFFFFFFFFFFFFFFFFFFFFFFFFFFFFFF800000
FFFFFFFFFFFFFFFFFFFFFFFFFFFFFFFFFF800000
FFFFFFFFFFFFFFFFFFFFFFFFFFFFFFFFFFC00000
FFFFFE00000000000000000007FFFFFFFFC00000
FFFFFE000000000000000000003FFFFFFFE00000
FFFFFE000000000000000000000FFFFFFFE00000
FFFFFE0000000000000000000003FFFFFFF00000
FFFFFE0000000000000000000000FFFFFFF00000
FFFFFE00000000000000000000007FFFFFF00000
FFFFFE00000000000000000000003FFFFFF80000
FFFFFE00000000000000000000001FFFFFF80000
FFFFFE00000000000000000000000FFFFFF80000
FFFFFE000000000000000000000007FFFFFC0000
FFFFFE000000000000000000000007FFFFFC0000
FFFFFE000000000000000000000003FFFFFC0000
FFFFFE000000000000000000000003FFFFFC0000
FFFFFE000000000000000000000001FFFFFE0000
FFFFFE000000000000000000000001FFFFFE0000
FFFFFE000000000000000000000001FFFFFE0000
FFFFFE000000000000000000000000FFFFFE0000
FFFFFE000000000000000000000000FFFFFE0000
FFFFFE000000000000000000000000FFFFFE0000
FFFFFE000000000000000000000000FFFFFE0000
FFFFFE000000000000000000000000FFFFFE0000
FFFFFE0000000000000000000000007FFFFE0000
FFFFFE0000000000000000000000007FFFFE0000
FFFFFE0000000000000000000000007FFFFE0000
FFFFFE0000000000000000000000007FFFFF0000
FFFFFE0000000000000000000000007FFFFF0000
FFFFFE0000000000000000000000007FFFFE0000
FFFFFE0000000000000000000000007FFFFE0000
FFFFFE0000000000000000000000007FFFFE0000
FFFFFE0000000000000000000000007FFFFE0000
FFFFFE000000000000000000000000FFFFFE0000
FFFFFE000000000000000000000000FFFFFE0000
FFFFFE000000000000000000000000FFFFFE0000
FFFFFE000000000000000000000000FFFFFE0000
FFFFFE000000000000000000000000FFFFFE0000
FFFFFE000000000000000000000000FFFFFE0000
FFFFFE000000000000000000000001FFFFFE0000
FFFFFE000000000000000000000001FFFFFC0000
FFFFFE000000000000000000000001FFFFFC0000
FFFFFE000000000000000000000003FFFFFC0000
FFFFFE000000000000000000000003FFFFFC0000
FFFFFE000000000000000000000007FFFFF80000
FFFFFE00000000000000000000000FFFFFF80000
FFFFFE00000000000000000000000FFFFFF80000
FFFFFE00000000000000000000001FFFFFF00000
FFFFFE00000000000000000000003FFFFFF00000
FFFFFE00000000000000000000007FFFFFF00000
FFFFFE0000000000000000000000FFFFFFE00000
FFFFFE0000000000000000000003FFFFFFE00000
FFFFFE000000000000000000000FFFFFFFC00000
FFFFFE000000000000000000003FFFFFFFC00000
FFFFFE00000000000000000003FFFFFFFF800000
FFFFFE0000FFFFFFFFFFFFFFFFFFFFFFFF000000
FFFFFE0000FFFFFFFFFFFFFFFFFFFFFFFF000000
FFFFFE0000FFFFFFFFFFFFFFFFFFFFFFFE000000
FFFFFE0000FFFFFFFFFFFFFFFFFFFFFFFC000000
FFFFFE0000FFFFFFFFFFFFFFFFFFFFFFF8000000
FFFFFE0000FFFFFFFFFFFFFFFFFFFFFFF8000000
FFFFFE0000FFFFFFFFFFFFFFFFFFFFFFF0000000
FFFFFE0000FFFFFFFFFFFFFFFFFFFFFFE0000000
FFFFFE0000FFFFFFFFFFFFFFFFFFFFFFC0000000
FFFFFE0000FFFFFFFFFFFFFFFFFFFFFF80000000
FFFFFE0000FFFFFFFFFFFFFFFFFFFFFE00000000
FFFFFE0000FFFFFFFFFFFFFFFFFFFFFC00000000
FFFFFE0000FFFFFFFFFFFFFFFFFFFFF000000000
FFFFFE0000FFFFFFFFFFFFFFFFFFFFE000000000
FFFFFE0000FFFFFFFFFFFFFFFFFFFF8000000000
FFFFFE0000FFFFFFFFFFFFFFFFFFFE0000000000
FFFFFE0000FFFFFFFFFFFFFFFFFFF80000000000
FFFFFE0000FFFFFFFFFFFFFFFFFFF80000000000
FFFFFE0000FFFFFFFFFFFFFFFFFFFC0000000000
FFFFFE0000FFFFFFFFFFFFFFFFFFFE0000000000
FFFFFE00000000000000003FFFFFFF0000000000
FFFFFE00000000000000001FFFFFFF8000000000
FFFFFE00000000000000000FFFFFFFC000000000
FFFFFE000000000000000007FFFFFFE000000000
FFFFFE000000000000000003FFFFFFF000000000
FFFFFE000000000000000001FFFFFFF800000000
FFFFFE000000000000000000FFFFFFFC00000000
FFFFFE0000000000000000007FFFFFFE00000000
FFFFFE0000000000000000007FFFFFFF00000000
FFFFFE0000000000000000003FFFFFFF80000000
FFFFFE0000000000000000001FFFFFFFC0000000
FFFFFE0000000000000000000FFFFFFFE0000000
FFFFFE00000000000000000007FFFFFFF0000000
FFFFFE00000000000000000003FFFFFFF8000000
FFFFFE00000000000000000001FFFFFFFC000000
FFFFFE00000000000000000000FFFFFFFE000000
FFFFFE000000000000000000007FFFFFFF000000
FFFFFE000000000000000000003FFFFFFF800000
FFFFFE000000000000000000001FFFFFFFC00000
FFFFFE000000000000000000001FFFFFFFE00000
FFFFFE000000000000000000000FFFFFFFF00000
FFFFFE0000000000000000000007FFFFFFF80000
FFFFFE0000000000000000000003FFFFFFFC0000
FFFFFE0000000000000000000001FFFFFFFE0000
FFFFFE0000000000000000000000FFFFFFFF0000
FFFFFE00000000000000000000007FFFFFFF8000
FFFFFE00000000000000000000003FFFFFFFC000
FFFFFE00000000000000000000001FFFFFFFE000
FFFFFE00000000000000000000000FFFFFFFF000
FFFFFE000000000000000000000007FFFFFFF800
FFFFFE000000000000000000000007FFFFFFFC00
FFFFFE000000000000000000000003FFFFFFFE00
FFFFFE000000000000000000000001FFFFFFFF00
FFFFFE000000000000000000000000FFFFFFFF80
FFFFFE0000000000000000000000007FFFFFFFC0
FFFFFE0000000000000000000000003FFFFFFFE0
FFFFFE0000000000000000000000001FFFFFFFF0
ENDCHAR
STARTCHAR S
ENCODING 83
SWIDTH 880 0
DWIDTH 160 0
BBX 143 132 9 0
BITMAP
000000007FFFFFFFFFFFFFFFFFFFFFFFFF00
0000000FFFFFFFFFFFFFFFFFFFFFFFFFFF00
0000007FFFFFFFFFFFFFFFFFFFFFFFFFFF00
000003FFFFFFFFFFFFFFFFFFFFFFFFFFFF00
00000FFFFFFFFFFFFFFFFFFFFFFFFFFFFF00
00003FFFFFFFFFFFFFFFFFFFFFFFFFFFFF00
0000FFFFFFFFFFFFFFFFFFFFFFFFFFFFFF00
0001FFFFFFFFFFFFFFFFFFFFFFFFFFFFFF00
0007FFFFFFFFFFFFFFFFFFFFFFFFFFFFFF00
000FFFFFFFFFFFFFFFFFFFFFFFFFFFFFFF00
001FFFFFFFFFFFFFFFFFFFFFFFFFFFFFFF00
003FFFFFFFFFFFFFFFFFFFFFFFFFFFFFFF00
007FFFFFFFFFFFFFFFFFFFFFFFFFFFFFFF00
00FFFFFFFFFFFFFFFFFFFFFFFFFFFFFFFF00
01FFFFFFFFFFFFFFFFFFFFFFFFFFFFFFFF00
01FFFFFFFFFFFFFFFFFFFFFFFFFFFFFFFF00
03FFFFFFFFFFFFFFFFFFFFFFFFFFFFFFFF00
07FFFFFFFFFFFFFFFFFFFFFFFFFFFFFFFF00
07FFFFFFFFFFFFFFFFFFFFFFFFFFFFFFFF00
0FFFFFFFFFFFFFFFFFFFFFFFFFFFFFFFFF00
0FFFFFFFFFFFFFFFFFFFFFFFFFFFFFFFFF00
1FFFFFFFFFFFFFFFFFFFFFFFFFFFFFFFFF00
1FFFFFFFFFFFFFFFFFFFFFFFFFFFFFFFFF00
1FFFFFFFF800000000000000000000000000
3FFFFFFF8000000000000000000000000000
3FFFFFFE0000000000000000000000000000
3FFFFFFC0000000000000000000000000000
7FFFFFF80000000000000000000000000000
7FFFFFF00000000000000000000000000000
7FFFFFE00000000000000000000000000000
7FFFFFC00000000000000000000000000000
7FFFFFC00000000000000000000000000000
7FFFFFC00000000000000000000000000000
7FFFFF800000000000000000000000000000
FFFFFF800000000000000000000000000000
FFFFFF800000000000000000000000000000
FFFFFF800000000000000000000000000000
FFFFFF800000000000000000000000000000
FFFFFF800000000000000000000000000000
7FFFFF000000000000000000000000000000
7FFFFF800000000000000000000000000000
7FFFFF800000000000000000000000000000
7FFFFF800000000000000000000000000000
7FFFFF800000000000000000000000000000
7FFFFF800000000000000000000000000000
7FFFFF800000000000000000000000000000
3FFFFFC00000000000000000000000000000
3FFFFFC00000000000000000000000000000
3FFFFFE00000000000000000000000000000
3FFFFFF00000000000000000000000000000
1FFFFFF80000000000000000000000000000
1FFFFFFC0000000000000000000000000000
0FFFFFFE0000000000000000000000000000
0FFFFFFF8000000000000000000000000000
07FFFFFFF000000000000000000000000000
07FFFFFFFFFFFFFFFFFFFFFFFFFC00000000
03FFFFFFFFFFFFFFFFFFFFFFFFFFF0000000
03FFFFFFFFFFFFFFFFFFFFFFFFFFFF000000
01FFFFFFFFFFFFFFFFFFFFFFFFFFFFE00000
00FFFFFFFFFFFFFFFFFFFFFFFFFFFFF80000
00FFFFFFFFFFFFFFFFFFFFFFFFFFFFFE0000
007FFFFFFFFFFFFFFFFFFFFFFFFFFFFF0000
003FFFFFFFFFFFFFFFFFFFFFFFFFFFFFC000
001FFFFFFFFFFFFFFFFFFFFFFFFFFFFFE000
000FFFFFFFFFFFFFFFFFFFFFFFFFFFFFF000
0003FFFFFFFFFFFFFFFFFFFFFFFFFFFFF800
0001FFFFFFFFFFFFFFFFFFFFFFFFFFFFFC00
0000FFFFFFFFFFFFFFFFFFFFFFFFFFFFFE00
00003FFFFFFFFFFFFFFFFFFFFFFFFFFFFF00
00000FFFFFFFFFFFFFFFFFFFFFFFFFFFFF80
000003FFFFFFFFFFFFFFFFFFFFFFFFFFFF80
0000007FFFFFFFFFFFFFFFFFFFFFFFFFFFC0
0000000FFFFFFFFFFFFFFFFFFFFFFFFFFFC0
000000007FFFFFFFFFFFFFFFFFFFFFFFFFE0
000000000000000000000000001FFFFFFFE0
0000000000000000000000000001FFFFFFF0
00000000000000000000000000007FFFFFF0
00000000000000000000000000001FFFFFF8
00000000000000000000000000000FFFFFF8
000000000000000000000000000007FFFFF8
000000000000000000000000000003FFFFF8
000000000000000000000000000001FFFFFC
000000000000000000000000000001FFFFFC
000000000000000000000000000000FFFFFC
000000000000000000000000000000FFFFFC
000000000000000000000000000000FFFFFC
000000000000000000000000000000FFFFFC
0000000000000000000000000000007FFFFE
0000000000000000000000000000007FFFFE
0000000000000000000000000000007FFFFE
0000000000000000000000000000007FFFFE
0000000000000000000000000000007FFFFE
0000000000000000000000000000007FFFFE
0000000000000000000000000000007FFFFE
0000000000000000000000000000007FFFFE
0000000000000000000000000000007FFFFE
000000000000000000000000000000FFFFFE
000000000000000000000000000000FFFFFE
000000000000000000000000000000FFFFFE
000000000000000000000000000001FFFFFC
000000000000000000000000000001FFFFFC
000000000000000000000000000003FFFFFC
000000000000000000000000000007FFFFFC
000000000000000000000000000007FFFFFC
00000000000000000000000000000FFFFFF8
00000000000000000000000000003FFFFFF8
00000000000000000000000000007FFFFFF8
0000000000000000000000000001FFFFFFF8
000000000000000000000000001FFFFFFFF0
3FFFFFFFFFFFFFFFFFFFFFFFFFFFFFFFFFF0
3FFFFFFFFFFFFFFFFFFFFFFFFFFFFFFFFFF0
3FFFFFFFFFFFFFFFFFFFFFFFFFFFFFFFFFE0
3FFFFFFFFFFFFFFFFFFFFFFFFFFFFFFFFFE0
3FFFFFFFFFFFFFFFFFFFFFFFFFFFFFFFFFC0
3FFFFFFFFFFFFFFFFFFFFFFFFFFFFFFFFFC0
3FFFFFFFFFFFFFFFFFFFFFFFFFFFFFFFFF80
3FFFFFFFFFFFFFFFFFFFFFFFFFFFFFFFFF00
3FFFFFFFFFFFFFFFFFFFFFFFFFFFFFFFFF00
3FFFFFFFFFFFFFFFFFFFFFFFFFFFFFFFFE00
3FFFFFFFFFFFFFFFFFFFFFFFFFFFFFFFFC00
3FFFFFFFFFFFFFFFFFFFFFFFFFFFFFFFF800
3FFFFFFFFFFFFFFFFFFFFFFFFFFFFFFFF000
3FFFFFFFFFFFFFFFFFFFFFFFFFFFFFFFE000
3FFFFFFFFFFFFFFFFFFFFFFFFFFFFFFFC000
3FFFFFFFFFFFFFFFFFFFFFFFFFFFFFFF8000
3FFFFFFFFFFFFFFFFFFFFFFFFFFFFFFE0000
3FFFFFFFFFFFFFFFFFFFFFFFFFFFFFF80000
3FFFFFFFFFFFFFFFFFFFFFFFFFFFFFE00000
3FFFFFFFFFFFFFFFFFFFFFFFFFFFFF800000
3FFFFFFFFFFFFFFFFFFFFFFFFFFFFE000000
3FFFFFFFFFFFFFFFFFFFFFFFFFFFE0000000
3FFFFFFFFFFFFFFFFFFFFFFFFFFC00000000
ENDCHAR
STARTCHAR T
ENCODING 84
SWIDTH 720 0
DWIDTH 131 0
BBX 123 132 4 0
BITMAP
FFFFFFFFFFFFFFFFFFFFFFFFFFFFFFE0
FFFFFFFFFFFFFFFFFFFFFFFFFFFFFFE0
FFFFFFFFFFFFFFFFFFFFFFFFFFFFFFE0
FFFFFFFFFFFFFFFFFFFFFFFFFFFFFFE0
FFFFFFFFFFFFFFFFFFFFFFFFFFFFFFE0
FFFFFFFFFFFFFFFFFFFFFFFFFFFFFFE0
FFFFFFFFFFFFFFFFFFFFFFFFFFFFFFE0
FFFFFFFFFFFFFFFFFFFFFFFFFFFFFFE0
FFFFFFFFFFFFFFFFFFFFFFFFFFFFFFE0
FFFFFFFFFFFFFFFFFFFFFFFFFFFFFFE0
FFFFFFFFFFFFFFFFFFFFFFFFFFFFFFE0
FFFFFFFFFFFFFFFFFFFFFFFFFFFFFFE0
FFFFFFFFFFFFFFFFFFFFFFFFFFFFFFE0
FFFFFFFFFFFFFFFFFFFFFFFFFFFFFFE0
FFFFFFFFFFFFFFFFFFFFFFFFFFFFFFE0
FFFFFFFFFFFFFFFFFFFFFFFFFFFFFFE0
FFFFFFFFFFFFFFFFFFFFFFFFFFFFFFE0
FFFFFFFFFFFFFFFFFFFFFFFFFFFFFFE0
FFFFFFFFFFFFFFFFFFFFFFFFFFFFFFE0
FFFFFFFFFFFFFFFFFFFFFFFFFFFFFFE0
FFFFFFFFFFFFFFFFFFFFFFFFFFFFFFE0
FFFFFFFFFFFFFFFFFFFFFFFFFFFFFFE0
FFFFFFFFFFFFFFFFFFFFFFFFFFFFFFE0
0000000000003FFFFF80000000000000
0000000000003FFFFF80000000000000
0000000000003FFFFF80000000000000
0000000000003FFFFF80000000000000
0000000000003FFFFF80000000000000
0000000000003FFFFF80000000000000
0000000000003FFFFF80000000000000
0000000000003FFFFF80000000000000
0000000000003FFFFF80000000000000
0000000000003FFFFF80000000000000
0000000000003FFFFF80000000000000
0000000000003FFFFF80000000000000
0000000000003FFFFF80000000000000
0000000000003FFFFF80000000000000
0000000000003FFFFF80000000000000
0000000000003FFFFF80000000000000
0000000000003FFFFF80000000000000
0000000000003FFFFF80000000000000
0000000000003FFFFF80000000000000
0000000000003FFFFF80000000000000
0000000000003FFFFF80000000000000
0000000000003FFFFF80000000000000
0000000000003FFFFF80000000000000
0000000000003FFFFF80000000000000
0000000000003FFFFF80000000000000
0000000000003FFFFF80000000000000
0000000000003FFFFF80000000000000
0000000000003FFFFF80000000000000
0000000000003FFFFF80000000000000
0000000000003FFFFF80000000000000
0000000000003FFFFF80000000000000
0000000000003FFFFF80000000000000
0000000000003FFFFF80000000000000
0000000000003FFFFF80000000000000
0000000000003FFFFF80000000000000
0000000000003FFFFF80000000000000
0000000000003FFFFF80000000000000
0000000000003FFFFF80000000000000
0000000000003FFFFF80000000000000
0000000000003FFFFF80000000000000
0000000000003FFFFF80000000000000
0000000000003FFFFF80000000000000
0000000000003FFFFF80000000000000
0000000000003FFFFF80000000000000
0000000000003FFFFF80000000000000
0000000000003FFFFF80000000000000
0000000000003FFFFF80000000000000
0000000000003FFFFF80000000000000
0000000000003FFFFF80000000000000
0000000000003FFFFF80000000000000
0000000000003FFFFF80000000000000
0000000000003FFFFF80000000000000
0000000000003FFFFF80000000000000
0000000000003FFFFF80000000000000
0000000000003FFFFF80000000000000
0000000000003FFFFF80000000000000
0000000000003FFFFF80000000000000
0000000000003FFFFF80000000000000
0000000000003FFFFF80000000000000
0000000000003FFFFF80000000000000
0000000000003FFFFF80000000000000
0000000000003FFFFF80000000000000
0000000000003FFFFF80000000000000
0000000000003FFFFF80000000000000
0000000000003FFFFF80000000000000
0000000000003FFFFF80000000000000
0000000000003FFFFF80000000000000
0000000000003FFFFF80000000000000
0000000000003FFFFF80000000000000
0000000000003FFFFF80000000000000
0000000000003FFFFF80000000000000
0000000000003FFFFF80000000000000
0000000000003FFFFF80000000000000
0000000000003FFFFF80000000000000
0000000000003FFFFF80000000000000
0000000000003FFFFF80000000000000
0000000000003FFFFF80000000000000
0000000000003FFFFF80000000000000
0000000000003FFFFF80000000000000
0000000000003FFFFF80000000000000
0000000000003FFFFF80000000000000
0000000000003FFFFF80000000000000
0000000000003FFFFF80000000000000
0000000000003FFFFF80000000000000
0000000000003FFFFF80000000000000
0000000000003FFFFF80000000000000
0000000000003FFFFF80000000000000
0000000000003FFFFF80000000000000
0000000000003FFFFF80000000000000
0000000000003FFFFF80000000000000
0000000000003FFFFF80000000000000
0000000000003FFFFF80000000000000
0000000000003FFFFF80000000000000
0000000000003FFFFF80000000000000
0000000000003FFFFF80000000000000
0000000000003FFFFF80000000000000
0000000000003FFFFF80000000000000
0000000000003FFFFF80000000000000
0000000000003FFFFF80000000000000
0000000000003FFFFF80000000000000
0000000000003FFFFF80000000000000
0000000000003FFFFF80000000000000
0000000000003FFFFF80000000000000
0000000000003FFFFF80000000000000
0000000000003FFFFF80000000000000
0000000000003FFFFF80000000000000
0000000000003FFFFF80000000000000
0000000000003FFFFF80000000000000
0000000000003FFFFF80000000000000
ENDCHAR
ENDFONT
